<?xml version="1.0" encoding="UTF-8" standalone="no"?>
<svg
   width="260"
   height="80"
   viewBox="0 0 260 80"
   fill="none"
   version="1.1"
   id="svg4"
   sodipodi:docname="get_taiga.svg"
   inkscape:version="1.4.3 (0d15f75042, 2025-12-25)"
   xmlns:inkscape="http://www.inkscape.org/namespaces/inkscape"
   xmlns:sodipodi="http://sodipodi.sourceforge.net/DTD/sodipodi-0.dtd"
   xmlns="http://www.w3.org/2000/svg"
   xmlns:svg="http://www.w3.org/2000/svg">
  <defs
     id="defs4">
    <rect
       x="78.55587"
       y="21.772038"
       width="163.5845"
       height="37.65974"
       id="rect5" />
    <rect
       x="82.674904"
       y="15.593487"
       width="160.64233"
       height="54.13588"
       id="rect4" />
    <rect
       x="545.27075"
       y="129.38628"
       width="170.53992"
       height="37.730087"
       id="rect5878" />
    <rect
       x="79.480141"
       y="243.98555"
       width="98.107262"
       height="19.632467"
       id="rect5297" />
    <rect
       x="545.27075"
       y="129.38628"
       width="141.00365"
       height="40.573864"
       id="rect5878-3" />
    <rect
       x="79.480141"
       y="243.98555"
       width="97.836517"
       height="25.859533"
       id="rect5297-6" />
  </defs>
  <sodipodi:namedview
     inkscape:zoom="3.6995233"
     inkscape:cx="124.4755"
     inkscape:cy="-3.1085086"
     inkscape:window-width="1920"
     inkscape:window-height="1051"
     inkscape:window-x="0"
     inkscape:window-y="0"
     inkscape:window-maximized="1"
     inkscape:current-layer="svg4"
     pagecolor="#b0b0b0"
     id="namedview1"
     bordercolor="#eeeeee"
     borderopacity="1"
     inkscape:showpageshadow="0"
     inkscape:pageopacity="0"
     inkscape:pagecheckerboard="0"
     inkscape:deskcolor="#505050" />
  <rect
     width="260"
     height="80"
     rx="39.694656"
     fill="#1D5128"
     id="rect"
     style="fill:#0090af;fill-opacity:1;stroke-width:1.99236"
     x="0"
     y="0" />
  <style
     id="style1">
        #logo-svg path {}
    </style>
  <style
     class="darkreader darkreader--sync"
     media="screen"
     id="style2" />
  <style
     id="style1-7">
        #logo-svg path {}
    </style>
  <style
     class="darkreader darkreader--sync"
     media="screen"
     id="style2-5" />
  <path
     style="font-weight:500;font-size:18.5185px;line-height:1.25;font-family:Dosis;-inkscape-font-specification:'Dosis Medium';white-space:pre;fill:#000000"
     d="m 81.573059,261.34742 q -0.277777,0 -0.537036,-0.12963 -0.240741,-0.12963 -0.240741,-0.40741 v -12.44443 q 0,-0.27777 0.222222,-0.4074 0.222222,-0.14815 0.481481,-0.14815 h 6.53703 q 0.277778,0 0.407407,0.22222 0.12963,0.22222 0.12963,0.46296 0,0.27778 -0.148148,0.5 -0.12963,0.22222 -0.388889,0.22222 h -5.685179 v 4.7037 h 2.907405 q 0.259259,0 0.388888,0.20371 0.148148,0.2037 0.148148,0.46296 0,0.22222 -0.129629,0.42592 -0.12963,0.20371 -0.407407,0.20371 h -2.907405 v 5.59258 q 0,0.27778 -0.24074,0.40741 -0.240741,0.12963 -0.537037,0.12963 z m 9.55556,0.14815 q -0.981481,0 -1.814813,-0.5 -0.833333,-0.51852 -1.333332,-1.33333 -0.5,-0.81482 -0.5,-1.75926 v -1.88889 q 0,-0.94444 0.481481,-1.74074 0.5,-0.81481 1.333332,-1.31481 0.833333,-0.5 1.833332,-0.5 0.98148,0 1.814813,0.5 0.833332,0.48148 1.333331,1.27778 0.518518,0.79629 0.518518,1.77777 v 1.88889 q 0,0.92593 -0.518518,1.75926 -0.499999,0.81481 -1.333331,1.33333 -0.833333,0.5 -1.814813,0.5 z m 0,-1.38889 q 0.592592,0 1.055554,-0.31481 0.481481,-0.31482 0.777777,-0.81482 0.296296,-0.51851 0.296296,-1.07407 v -1.88889 q 0,-0.53703 -0.296296,-1.03703 -0.277777,-0.5 -0.759258,-0.81482 -0.481481,-0.31481 -1.074073,-0.31481 -0.592592,0 -1.074073,0.31481 -0.481481,0.31482 -0.759259,0.81482 -0.277777,0.5 -0.277777,1.03703 v 1.88889 q 0,0.55556 0.277777,1.07407 0.277778,0.5 0.759259,0.81482 0.481481,0.31481 1.074073,0.31481 z m 6.444425,1.24074 q -0.333333,0 -0.555555,-0.16667 -0.203704,-0.18518 -0.203704,-0.38888 V 247.8104 q 0,-0.24074 0.203704,-0.38889 0.222222,-0.14815 0.555555,-0.14815 0.314814,0 0.537036,0.14815 0.240741,0.14815 0.240741,0.38889 v 12.98147 q 0,0.2037 -0.240741,0.38888 -0.222222,0.16667 -0.537036,0.16667 z m 4.055546,0 q -0.33333,0 -0.55555,-0.16667 -0.20371,-0.18518 -0.20371,-0.38888 V 247.8104 q 0,-0.24074 0.20371,-0.38889 0.22222,-0.14815 0.55555,-0.14815 0.31482,0 0.53704,0.14815 0.24074,0.14815 0.24074,0.38889 v 12.98147 q 0,0.2037 -0.24074,0.38888 -0.22222,0.16667 -0.53704,0.16667 z m 6.44444,0.14815 q -0.98148,0 -1.81482,-0.5 -0.83333,-0.51852 -1.33333,-1.33333 -0.5,-0.81482 -0.5,-1.75926 v -1.88889 q 0,-0.94444 0.48148,-1.74074 0.5,-0.81481 1.33334,-1.31481 0.83333,-0.5 1.83333,-0.5 0.98148,0 1.81481,0.5 0.83333,0.48148 1.33333,1.27778 0.51852,0.79629 0.51852,1.77777 v 1.88889 q 0,0.92593 -0.51852,1.75926 -0.5,0.81481 -1.33333,1.33333 -0.83333,0.5 -1.81481,0.5 z m 0,-1.38889 q 0.59259,0 1.05555,-0.31481 0.48148,-0.31482 0.77778,-0.81482 0.29629,-0.51851 0.29629,-1.07407 v -1.88889 q 0,-0.53703 -0.29629,-1.03703 -0.27778,-0.5 -0.75926,-0.81482 -0.48148,-0.31481 -1.07407,-0.31481 -0.59259,0 -1.07408,0.31481 -0.48148,0.31482 -0.75925,0.81482 -0.27778,0.5 -0.27778,1.03703 v 1.88889 q 0,0.55556 0.27778,1.07407 0.27777,0.5 0.75925,0.81482 0.48149,0.31481 1.07408,0.31481 z m 8.24072,1.40741 q -0.22223,0 -0.38889,-0.0926 -0.14815,-0.0741 -0.24074,-0.2963 l -2.87037,-7.62962 q -0.037,-0.0926 -0.0741,-0.16667 -0.0185,-0.0926 -0.0185,-0.12963 0,-0.2037 0.14815,-0.35185 0.16666,-0.14815 0.38888,-0.22222 0.22223,-0.0926 0.42593,-0.0926 0.16667,0 0.2963,0.0741 0.14814,0.0741 0.2037,0.22222 l 2.22222,6.22222 1.75926,-5.61111 q 0.0741,-0.2037 0.22222,-0.27778 0.14815,-0.0926 0.35185,-0.0926 0.2037,0 0.35185,0.0926 0.16667,0.0741 0.22222,0.27778 l 1.72222,5.66666 2.25926,-6.27777 q 0.0926,-0.29629 0.48148,-0.29629 0.20371,0 0.42593,0.0926 0.22222,0.0741 0.37037,0.22222 0.16666,0.14815 0.16666,0.35185 0,0.0556 -0.037,0.14815 -0.0185,0.0926 -0.037,0.14815 l -2.88889,7.68517 q -0.0741,0.18519 -0.24074,0.25926 -0.16666,0.0741 -0.37037,0.0741 -0.24074,0 -0.4074,-0.0926 -0.14815,-0.0741 -0.22223,-0.24075 l -1.79629,-5.44443 -1.75926,5.38888 q -0.0741,0.18518 -0.25926,0.27778 -0.18518,0.11111 -0.4074,0.11111 z m 16.75926,-0.0185 q -0.98148,0 -1.81482,-0.5 -0.83333,-0.51852 -1.33333,-1.33333 -0.5,-0.81482 -0.5,-1.75926 v -1.88889 q 0,-0.94444 0.48148,-1.74074 0.5,-0.81481 1.33334,-1.31481 0.83333,-0.5 1.83333,-0.5 0.98148,0 1.81481,0.5 0.83333,0.48148 1.33333,1.27778 0.51852,0.79629 0.51852,1.77777 v 1.88889 q 0,0.92593 -0.51852,1.75926 -0.5,0.81481 -1.33333,1.33333 -0.83333,0.5 -1.81481,0.5 z m 0,-1.38889 q 0.59259,0 1.05555,-0.31481 0.48148,-0.31482 0.77778,-0.81482 0.29629,-0.51851 0.29629,-1.07407 v -1.88889 q 0,-0.53703 -0.29629,-1.03703 -0.27778,-0.5 -0.75926,-0.81482 -0.48148,-0.31481 -1.07407,-0.31481 -0.5926,0 -1.07408,0.31481 -0.48148,0.31482 -0.75925,0.81482 -0.27778,0.5 -0.27778,1.03703 v 1.88889 q 0,0.55556 0.27778,1.07407 0.27777,0.5 0.75925,0.81482 0.48148,0.31481 1.07408,0.31481 z m 6.27776,1.24074 q -0.33334,0 -0.55556,-0.16667 -0.2037,-0.18518 -0.2037,-0.38888 v -7.68518 q 0,-0.24074 0.2037,-0.38889 0.22222,-0.14815 0.55556,-0.14815 0.29629,0 0.5,0.14815 0.2037,0.14815 0.2037,0.38889 v 0.75926 q 0.2963,-0.53704 0.92592,-0.96296 0.62963,-0.44445 1.55556,-0.44445 0.88889,0 1.62963,0.5 0.74074,0.48148 1.18518,1.27778 0.44444,0.79629 0.44444,1.77777 v 4.77778 q 0,0.27777 -0.24074,0.42592 -0.24074,0.12963 -0.53703,0.12963 -0.27778,0 -0.51852,-0.12963 -0.24074,-0.14815 -0.24074,-0.42592 v -4.77778 q 0,-0.53703 -0.2963,-1.03703 -0.27777,-0.5 -0.75926,-0.81482 -0.48148,-0.31481 -1.05555,-0.31481 -0.5,0 -0.96296,0.27778 -0.46296,0.25926 -0.75926,0.74074 -0.2963,0.46296 -0.2963,1.14814 v 4.77778 q 0,0.2037 -0.24074,0.38888 -0.22222,0.16667 -0.53703,0.16667 z"
     id="text5295-0"
     transform="matrix(1.0080032,0,0,1.0080032,-7.4418871,-234.25234)"
     aria-label="Follow on" />
  <path
     style="font-weight:bold;font-size:27.9709px;line-height:1.25;font-family:Dosis;-inkscape-font-specification:'Dosis Bold';white-space:pre;fill:#000000;stroke-width:1.14405"
     d="m 82.173991,59.935502 q -2.19389,0 -4.069297,-0.63665 -1.87542,-0.665588 -3.007749,-2.112514 Q 74,55.710464 74,53.279625 v -8.016001 q 0,-2.43085 1.096945,-3.877776 1.132329,-1.475874 3.007749,-2.112524 1.875407,-0.665588 4.104681,-0.665588 2.476962,0 4.352382,0.694525 1.910805,0.665588 2.972365,1.881013 1.096932,1.215424 1.096932,2.9228 0,1.128612 -0.566158,1.504812 -0.566158,0.347263 -1.733871,0.347263 -0.955408,0 -1.627731,-0.26045 -0.636927,-0.289387 -0.672311,-0.926037 0,-0.347263 -0.141549,-0.810276 -0.106139,-0.491962 -0.460005,-0.954975 -0.353854,-0.463024 -1.096945,-0.781349 -0.707695,-0.318325 -1.981573,-0.318325 -1.804639,0 -2.760047,0.839224 -0.955396,0.810276 -0.955396,2.517663 v 8.016001 q 0,1.736313 0.955396,2.546589 0.990792,0.810287 2.830828,0.810287 1.203097,0 1.910792,-0.318325 0.707707,-0.318325 1.026176,-0.781339 0.353854,-0.491961 0.460006,-1.01286 0.141549,-0.520889 0.212317,-0.983913 0.07072,-0.694526 0.707708,-0.926038 0.636926,-0.260439 1.556938,-0.260439 1.203109,0 1.769267,0.376201 0.566158,0.3762 0.566158,1.475864 0,1.736323 -1.096932,3.038561 -1.06156,1.302238 -2.972365,1.996763 -1.910804,0.694526 -4.387766,0.694526 z m 18.258799,0.0868 q -2.052341,0 -3.786225,-0.810287 -1.733871,-0.839224 -2.795432,-2.199337 -1.061548,-1.360114 -1.061548,-2.922801 v -2.372964 q 0,-1.562687 1.026164,-2.893862 1.026177,-1.360124 2.760048,-2.1704 1.769268,-0.810287 3.856993,-0.810287 2.08772,0 3.82161,0.810287 1.76925,0.781338 2.79543,2.112524 1.06156,1.331176 1.06156,2.951738 v 2.372964 q 0,1.53375 -1.06156,2.893863 -1.06156,1.360113 -2.83082,2.199337 -1.73388,0.839225 -3.78622,0.839225 z m 0,-3.270074 q 0.84924,0 1.55695,-0.3762 0.70771,-0.376201 1.13233,-0.983913 0.42462,-0.63665 0.42462,-1.302238 v -2.372964 q 0,-0.665587 -0.42462,-1.244362 -0.42462,-0.578775 -1.13233,-0.954975 -0.67232,-0.405138 -1.55695,-0.405138 -0.849244,0 -1.556951,0.3762 -0.707707,0.376201 -1.132329,0.983913 -0.389238,0.578775 -0.389238,1.244362 v 2.372964 q 0,0.665588 0.389238,1.302238 0.424622,0.607712 1.132329,0.983913 0.707707,0.3762 1.556951,0.3762 z m 16.17104,3.270074 q -1.66311,0 -3.07851,-0.839225 -1.41541,-0.839224 -2.26466,-2.199337 -0.84924,-1.360113 -0.84924,-2.893863 v -2.372964 q 0,-1.620562 0.84924,-2.951738 0.84925,-1.331186 2.26466,-2.112524 1.4154,-0.810287 3.14929,-0.810287 1.6631,0 2.83081,0.694536 1.16772,0.665588 1.73387,1.504802 v -8.884153 q 0,-0.520899 0.67233,-0.839224 Q 122.58394,38 123.57472,38 q 0.95541,0 1.59233,0.318325 0.63694,0.318325 0.63694,0.839224 v 19.388878 q 0,0.463014 -0.63694,0.839225 -0.63692,0.3762 -1.59233,0.3762 -0.84924,0 -1.4508,-0.3762 -0.60154,-0.376211 -0.60154,-0.839225 v -0.810286 q -0.53078,0.897099 -1.91081,1.591625 -1.34463,0.694536 -3.00774,0.694536 z m 1.45079,-3.270074 q 0.92002,0 1.62772,-0.405138 0.70771,-0.434076 1.13233,-0.926037 0.42462,-0.520889 0.42462,-0.810277 v -2.893863 q 0,-0.810286 -0.49539,-1.389061 -0.46,-0.578764 -1.20309,-0.897089 -0.70771,-0.318325 -1.4508,-0.318325 -0.84925,0 -1.59234,0.405138 -0.7077,0.3762 -1.13233,0.954975 -0.38923,0.578775 -0.38923,1.244362 v 2.372964 q 0,0.665588 0.38923,1.2733 0.42463,0.607712 1.13233,1.012851 0.70771,0.3762 1.55695,0.3762 z m 19.24953,3.270074 q -2.51234,0 -4.45853,-0.723474 -1.91081,-0.752401 -3.00775,-2.083576 -1.09693,-1.360113 -1.09693,-3.125375 V 51.63009 q 0,-1.562677 1.02616,-2.864915 1.06156,-1.331186 2.79543,-2.112524 1.76927,-0.810287 3.92776,-0.810287 1.98157,0 3.60931,0.694536 1.6631,0.694525 2.68926,1.90995 1.02618,1.215414 1.02618,2.835977 0,1.244363 -0.49539,1.7942 -0.4954,0.520899 -1.27388,0.665587 -0.74308,0.115751 -1.55694,0.115751 h -7.18321 v 0.434086 q 0,1.244363 1.13233,2.025701 1.16771,0.752401 3.00775,0.752401 1.16771,0 1.94619,-0.289387 0.77847,-0.289377 1.34463,-0.549827 0.56617,-0.26045 1.06156,-0.26045 0.53078,0 0.92001,0.289388 0.38924,0.289387 0.60156,0.694525 0.2123,0.376201 0.2123,0.665588 0,0.491962 -0.77847,1.070726 -0.74309,0.549837 -2.15849,0.954975 -1.38003,0.376211 -3.29084,0.376211 z m -3.99853,-8.363264 h 5.16624 q 0.60156,0 0.81386,-0.144699 0.24771,-0.173626 0.24771,-0.63665 0,-0.665588 -0.46001,-1.186487 -0.42462,-0.520889 -1.13233,-0.810276 -0.67232,-0.289387 -1.52157,-0.289387 -0.81386,0 -1.52156,0.289387 -0.70771,0.26045 -1.16772,0.781338 -0.42462,0.491962 -0.42462,1.186487 z m 22.46965,8.363264 q -1.66311,0 -3.00775,-0.694536 -1.34463,-0.694526 -1.91079,-1.591625 v 0.810286 q 0,0.463014 -0.60156,0.839225 -0.56616,0.3762 -1.4508,0.3762 -0.95539,0 -1.59233,-0.3762 -0.63693,-0.376211 -0.63693,-0.839225 V 39.157552 q 0,-0.520899 0.63693,-0.839224 0.63694,-0.318325 1.59233,-0.318325 0.9908,0 1.66312,0.318325 0.67231,0.318325 0.67231,0.839224 v 8.884153 q 0.56617,-0.839214 1.73388,-1.504802 1.16772,-0.694536 2.83082,-0.694536 1.73387,0 3.14928,0.810287 1.41541,0.781338 2.26466,2.112524 0.84925,1.331176 0.84925,2.951738 v 2.372964 q 0,1.53375 -0.84925,2.893863 -0.84925,1.360113 -2.26466,2.199337 -1.38003,0.839225 -3.07851,0.839225 z m -1.4508,-3.270074 q 0.84924,0 1.55695,-0.3762 0.70771,-0.405139 1.09694,-1.012851 0.42463,-0.607712 0.42463,-1.2733 v -2.372964 q 0,-0.665587 -0.42463,-1.244362 -0.38923,-0.578775 -1.09694,-0.954975 -0.70771,-0.405138 -1.59233,-0.405138 -0.7431,0 -1.48619,0.318325 -0.70769,0.318325 -1.20309,0.897089 -0.46001,0.578775 -0.46001,1.389061 v 2.893863 q 0,0.289388 0.42462,0.810277 0.42462,0.491961 1.13233,0.926037 0.74309,0.405138 1.62772,0.405138 z m 18.50645,3.270074 q -2.51235,0 -4.45854,-0.723474 -1.9108,-0.752401 -3.00775,-2.083576 -1.09693,-1.360113 -1.09693,-3.125375 V 51.63009 q 0,-1.562677 1.02617,-2.864915 1.06156,-1.331186 2.79543,-2.112524 1.76927,-0.810287 3.92776,-0.810287 1.98157,0 3.60929,0.694536 1.66312,0.694525 2.68928,1.90995 1.02618,1.215414 1.02618,2.835977 0,1.244363 -0.49539,1.7942 -0.49541,0.520899 -1.27388,0.665587 -0.74309,0.115751 -1.55695,0.115751 h -7.1832 v 0.434086 q 0,1.244363 1.13233,2.025701 1.16771,0.752401 3.00775,0.752401 1.16771,0 1.94619,-0.289387 0.77847,-0.289377 1.34463,-0.549827 0.56616,-0.26045 1.06156,-0.26045 0.53077,0 0.92001,0.289388 0.38924,0.289387 0.60156,0.694525 0.2123,0.376201 0.2123,0.665588 0,0.491962 -0.77847,1.070726 -0.7431,0.549837 -2.1585,0.954975 -1.38003,0.376211 -3.29083,0.376211 z m -3.99853,-8.363264 h 5.16624 q 0.60156,0 0.81386,-0.144699 0.2477,-0.173626 0.2477,-0.63665 0,-0.665588 -0.46,-1.186487 -0.42463,-0.520889 -1.13233,-0.810276 -0.67233,-0.289387 -1.52157,-0.289387 -0.81386,0 -1.52157,0.289387 -0.7077,0.26045 -1.16771,0.781338 -0.42462,0.491962 -0.42462,1.186487 z m 15.46337,8.102814 q -0.9554,0 -1.59234,-0.3762 -0.63694,-0.376211 -0.63694,-0.839225 V 47.173574 q 0,-0.5209 0.63694,-0.839225 0.63694,-0.318325 1.59234,-0.318325 0.88462,0 1.45079,0.318325 0.60155,0.318325 0.60155,0.839225 v 1.186476 q 0.38923,-0.63665 1.02617,-1.186476 0.67233,-0.578775 1.52157,-0.954975 0.84924,-0.376211 1.80464,-0.376211 h 1.09694 q 0.67233,0 1.16772,0.491961 0.49539,0.463014 0.49539,1.128602 0,0.694536 -0.49539,1.186487 -0.49539,0.463024 -1.16772,0.463024 h -1.09694 q -0.99078,0 -1.94619,0.549826 -0.92001,0.520899 -1.52155,1.475874 -0.60156,0.926038 -0.60156,2.257213 v 5.151076 q 0,0.463014 -0.67232,0.839224 -0.67231,0.376201 -1.6631,0.376201 z m 17.4962,6.395438 q -2.08774,0 -3.89238,-0.491961 -1.76927,-0.463014 -2.86621,-1.389051 -1.06155,-0.926038 -1.06155,-2.199338 0,-1.099674 0.74309,-1.881012 0.74309,-0.752401 1.84002,-1.186487 -0.67231,-0.260439 -1.09693,-0.694526 -0.38924,-0.463013 -0.38924,-1.157539 0,-0.810286 0.49539,-1.302237 0.53078,-0.5209 1.30925,-0.954975 -1.06156,-0.665588 -1.6631,-1.591625 -0.56617,-0.954976 -0.56617,-2.083587 V 50.61724 q 0,-1.417989 0.84926,-2.488715 0.88462,-1.070736 2.44157,-1.678448 1.59234,-0.607713 3.64468,-0.607713 1.16771,0 2.19389,0.231512 1.02616,0.202574 1.84002,0.607712 0.60156,-1.157549 1.13233,-1.562687 0.53079,-0.405138 1.02618,-0.405138 0.84924,0 1.30925,0.405138 0.49539,0.405138 0.49539,0.752411 0,0.26044 -0.17692,0.463014 -0.14154,0.202574 -0.38924,0.347262 -0.35385,0.173637 -0.81386,0.434076 -0.46001,0.231512 -0.84924,0.665588 0.63692,0.578775 0.92001,1.302248 0.31847,0.694526 0.31847,1.53374 v 0.607712 q 0,1.389051 -0.88463,2.488725 -0.88464,1.070725 -2.47698,1.707376 -1.59233,0.63665 -3.64467,0.63665 -1.27387,0 -2.30004,-0.26045 -0.17692,0.115761 -0.31847,0.26045 -0.10614,0.144698 -0.10614,0.318325 0,0.491961 0.77847,0.694525 0.77848,0.202574 1.98158,0.318325 1.20309,0.115761 2.54774,0.318325 1.38002,0.173637 2.58311,0.578775 1.2031,0.405138 1.98158,1.215424 0.77847,0.781339 0.77847,2.112514 0,1.620574 -1.13233,2.604486 -1.09693,1.012851 -2.8662,1.475864 -1.73387,0.463024 -3.71544,0.463024 z m -0.0707,-2.401912 q 1.38003,0 2.33542,-0.549836 0.9908,-0.549827 0.9908,-1.475864 0,-0.607713 -0.42462,-0.983913 -0.42463,-0.376201 -1.16772,-0.578775 -0.7077,-0.173636 -1.55695,-0.289387 -0.84924,-0.0868 -1.69849,-0.173626 -0.84925,0.318325 -1.38003,0.810276 -0.53077,0.491961 -0.53077,1.186487 0,0.954975 0.99078,1.504802 1.02618,0.549836 2.44158,0.549836 z m -0.0707,-9.954888 q 1.16771,0 1.84004,-0.723463 0.67232,-0.723464 0.67232,-1.852075 V 50.61724 q 0,-1.070726 -0.67232,-1.794189 -0.63694,-0.723474 -1.87542,-0.723474 -1.2031,0 -1.87542,0.723474 -0.63693,0.723463 -0.63693,1.794189 v 0.578774 q 0,1.099674 0.63693,1.852075 0.67232,0.752401 1.9108,0.752401 z"
     id="text5876"
     aria-label="Codeberg" />
  <g
     id="g1"
     transform="matrix(2.0868332,0,0,2.0868332,-26.582264,-22.6029)"
     style="stroke:#000000;stroke-opacity:1">
    <path
       fill="#aaaaaa"
       d="m 31.916901,18.998316 a 11,11 0 0 0 -11,11 11,11 0 0 0 1.7,6.4 l 9.3,-12.4 9.3,12.4 a 11,11 0 0 0 1.7,-6.4 11,11 0 0 0 -11,-11 z"
       id="path1"
       style="fill:none;stroke:#000000;stroke-opacity:1" />
    <path
       fill="#555555"
       d="m 41.216901,36.398316 -9.3,-12.4 4.4,16.8 a 11,11 0 0 0 4.9,-4.4 z"
       id="path2"
       style="fill:#555555;fill-opacity:0.533333;stroke:#000000;stroke-opacity:1" />
  </g>
</svg>
