<?xml version="1.0" encoding="UTF-8" standalone="no"?>
<svg
   width="260"
   height="80"
   viewBox="0 0 260 80"
   fill="none"
   version="1.1"
   id="svg4"
   sodipodi:docname="get_taiga.svg"
   inkscape:version="1.4.2 (ebf0e940d0, 2025-05-08)"
   xmlns:inkscape="http://www.inkscape.org/namespaces/inkscape"
   xmlns:sodipodi="http://sodipodi.sourceforge.net/DTD/sodipodi-0.dtd"
   xmlns="http://www.w3.org/2000/svg"
   xmlns:svg="http://www.w3.org/2000/svg">
  <defs
     id="defs4">
    <rect
       x="78.55587"
       y="21.772038"
       width="163.5845"
       height="37.65974"
       id="rect5" />
    <rect
       x="82.674904"
       y="15.593487"
       width="160.64233"
       height="54.13588"
       id="rect4" />
    <rect
       x="545.27075"
       y="129.38628"
       width="170.53992"
       height="37.730087"
       id="rect5878" />
    <rect
       x="79.480141"
       y="243.98555"
       width="98.107262"
       height="19.632467"
       id="rect5297" />
    <rect
       x="545.27075"
       y="129.38628"
       width="141.00365"
       height="40.573864"
       id="rect5878-3" />
    <rect
       x="79.480141"
       y="243.98555"
       width="97.836517"
       height="25.859533"
       id="rect5297-6" />
  </defs>
  <sodipodi:namedview
     inkscape:zoom="3.6995233"
     inkscape:cx="124.34034"
     inkscape:cy="-3.1085086"
     inkscape:window-width="1920"
     inkscape:window-height="1051"
     inkscape:window-x="0"
     inkscape:window-y="0"
     inkscape:window-maximized="1"
     inkscape:current-layer="svg4"
     pagecolor="#b0b0b0"
     id="namedview1"
     bordercolor="#eeeeee"
     borderopacity="1"
     inkscape:showpageshadow="0"
     inkscape:pageopacity="0"
     inkscape:pagecheckerboard="0"
     inkscape:deskcolor="#505050" />
  <rect
     width="260"
     height="80"
     rx="39.694656"
     fill="#1D5128"
     id="rect"
     style="fill:#0090af;fill-opacity:1;stroke-width:1.99236"
     x="0"
     y="0" />
  <style
     id="style1">
        #logo-svg path {}
    </style>
  <style
     class="darkreader darkreader--sync"
     media="screen"
     id="style2" />
  <style
     id="style1-7">
        #logo-svg path {}
    </style>
  <style
     class="darkreader darkreader--sync"
     media="screen"
     id="style2-5" />
  <g
     id="g2"
     transform="matrix(1.2972973,0,0,1.2972973,-203.24324,14.702703)"
     style="stroke-width:0.77083333;stroke-dasharray:none;stroke:none;stroke-opacity:1;fill:#000000;fill-opacity:1">
    <path
       fill-rule="evenodd"
       clip-rule="evenodd"
       d="m 186.3221,1 4.7454,6.27912 7.8473,-0.60983 -0.7518,7.93371 5.837,4.8558 -5.8383,4.5036 0.7523,8.6367 -7.8549,-1.2209 -4.7375,6.6218 -4.3132,-6.6199 -8.00853,1.2189 0.91973,-8.6389 -5.9196,-4.5012 5.918,-4.8528 -0.91927,-7.93686 8.00237,0.60892 z m 0.0514,2.38866 -3.7038,5.38133 -7.10321,-0.54051 0.81157,7.00702 -5.09648,4.1792 5.09488,3.874 -0.81111,7.6187 7.09705,-1.0802 3.7116,5.6965 4.0741,-5.6945 6.936,1.0781 -0.6639,-7.621 5.0189,-3.8715 -5.0202,-4.1762 0.6644,-7.01017 -6.9436,0.53959 z"
       id="path2-3"
       style="fill:#000000;fill-opacity:1;stroke-width:0.77083333;stroke-dasharray:none;stroke:none;stroke-opacity:1" />
    <path
       fill-rule="evenodd"
       clip-rule="evenodd"
       d="m 189.0083,19.4784 -2.5031,-2.6124 -2.5032,2.6124 2.5032,2.6124 z m -2.5031,-4.6449 -4.4506,4.6449 4.4506,4.6448 4.4505,-4.6448 z"
       id="path3"
       style="fill:#000000;fill-opacity:1;stroke-width:0.77083333;stroke-dasharray:none;stroke:none;stroke-opacity:1" />
    <path
       fill-rule="evenodd"
       clip-rule="evenodd"
       d="m 178.07437,12.0381 6.32983,5.0207 -0.8332,1.1442 -5.47145,-4.3398 -2.0193,1.6995 -0.86443,-1.1186 z"
       id="path4"
       style="fill:#000000;fill-opacity:1;stroke-width:0.77083333;stroke-dasharray:none;stroke:none;stroke-opacity:1" />
    <path
       fill-rule="evenodd"
       clip-rule="evenodd"
       d="m 191.2111,7.65541 2.638,3.41759 -3.9177,4.8383 4.9163,-3.9522 2.9385,2.3959 -0.8478,1.1325 -2.0967,-1.7095 -5.3988,4.3401 -0.6191,-0.8389 -0.0619,0.0764 -1.0518,-0.9276 4.3538,-5.3769 -1.9251,-2.49413 z m -10.2677,3.39959 1.9282,-2.49803 -1.0724,-0.90156 -2.635,3.41369 5.0019,6.282 1.0591,-0.9185 z"
       id="path5"
       style="fill:#000000;fill-opacity:1;stroke-width:0.77083333;stroke-dasharray:none;stroke:none;stroke-opacity:1" />
    <path
       fill-rule="evenodd"
       clip-rule="evenodd"
       d="m 194.936,26.6926 -6.3299,-5.0207 0.8333,-1.1441 5.4714,4.3398 2.0193,-1.6996 0.8644,1.1187 z"
       id="path6"
       style="fill:#000000;fill-opacity:1;stroke-width:0.77083333;stroke-dasharray:none;stroke:none;stroke-opacity:1" />
    <path
       fill-rule="evenodd"
       clip-rule="evenodd"
       d="m 181.7992,31.0753 -2.6379,-3.4176 3.9176,-4.8383 -4.91625,3.9522 -2.93849,-2.3959 0.84776,-1.1325 2.0967,1.7096 5.39878,-4.3401 0.6191,0.8388 0.0619,-0.0764 1.0518,0.9276 -4.3538,5.3769 1.9252,2.4942 z m 10.2677,-3.3996 -1.9281,2.4981 1.0723,0.9015 2.635,-3.4137 -5.0019,-6.282 -1.059,0.9185 z"
       id="path7"
       style="fill:#000000;fill-opacity:1;stroke-width:0.77083333;stroke-dasharray:none;stroke:none;stroke-opacity:1" />
    <path
       fill-rule="evenodd"
       clip-rule="evenodd"
       d="m 187.4723,31.0493 -1.0415,-7.9212 1.3642,-0.1954 0.8946,6.8039 2.579,0.28 -0.1425,1.4294 z"
       id="path8"
       style="fill:#000000;fill-opacity:1;stroke-width:0.77083333;stroke-dasharray:none;stroke:none;stroke-opacity:1" />
    <path
       fill-rule="evenodd"
       clip-rule="evenodd"
       d="m 184.6846,29.636 -3.0542,0.3532 0.1516,1.4284 4.1754,-0.4828 0.6512,-7.7171 -1.3717,-0.1261 z m -9.71419,-5.378 0.59923,-4.1309 6.66716,-0.6179 -6.80122,-0.7304 -0.46753,-3.8748 1.36624,-0.1795 0.3308,2.7416 6.41241,0.6886 -0.127,1.2883 0.1742,-0.0161 0.1218,1.4315 -6.47731,0.6003 -0.43727,3.0145 z"
       id="path9"
       style="fill:#000000;fill-opacity:1;stroke-width:0.77083333;stroke-dasharray:none;stroke:none;stroke-opacity:1" />
    <path
       fill-rule="evenodd"
       clip-rule="evenodd"
       d="m 198.1417,14.3798 -0.6028,4.2177 -6.2329,0.5718 6.2471,0.7906 0.4725,3.8624 -1.3659,0.182 -0.3368,-2.7524 -6.3168,-0.7995 0.1367,-1.1764 -0.5527,0.0507 -0.1206,-1.4316 6.8676,-0.63 0.4426,-3.0973 z m -9.8577,-5.27179 3.0543,-0.35877 -0.1541,-1.42812 -4.1739,0.49029 -0.6819,8.13679 1.3718,0.1252 z"
       id="path10"
       style="fill:#000000;fill-opacity:1;stroke-width:0.77083333;stroke-dasharray:none;stroke:none;stroke-opacity:1" />
    <path
       fill-rule="evenodd"
       clip-rule="evenodd"
       d="m 181.4835,7.246 4.2075,0.23423 0.9725,8.19767 -1.3665,0.1766 -0.8309,-7.00328 -3.056,-0.17013 z"
       id="path11"
       style="fill:#000000;fill-opacity:1;stroke-width:0.77083333;stroke-dasharray:none;stroke:none;stroke-opacity:1" />
  </g>
  <path
     style="font-weight:bold;font-size:27.9709px;line-height:1.25;font-family:Dosis;-inkscape-font-specification:'Dosis Bold';white-space:pre;fill:#000000"
     d="m 552.59986,155.60944 q -0.69927,0 -1.25869,-0.27971 -0.55942,-0.30768 -0.55942,-0.89507 V 138.4353 h -4.11172 q -0.53145,0 -0.83913,-0.50347 -0.30768,-0.50348 -0.30768,-1.14681 0,-0.58739 0.27971,-1.09086 0.27971,-0.53145 0.8671,-0.53145 h 11.83169 q 0.61536,0 0.8671,0.53145 0.27971,0.50347 0.27971,1.09086 0,0.64333 -0.30768,1.14681 -0.27971,0.50347 -0.83913,0.50347 h -4.08375 v 15.99936 q 0,0.58739 -0.58739,0.89507 -0.55942,0.27971 -1.23072,0.27971 z m 9.06497,0.25174 q -1.48246,0 -2.57332,-0.89507 -1.06289,-0.92304 -1.06289,-2.82506 0,-1.59435 0.81115,-2.48941 0.83913,-0.89507 2.29362,-1.25869 1.48245,-0.36363 3.41245,-0.36363 h 1.1468 v -0.36362 q 0,-0.61536 -0.25174,-1.20275 -0.22376,-0.58739 -0.75521,-0.97898 -0.50348,-0.39159 -1.45449,-0.39159 -1.06289,0 -1.65028,0.22377 -0.55942,0.19579 -0.8671,0.41956 -0.30768,0.22377 -0.6713,0.22377 -0.58739,0 -0.92304,-0.58739 -0.30768,-0.58739 -0.30768,-1.20275 0,-0.58739 0.69927,-1.03492 0.72725,-0.47551 1.76217,-0.72725 1.03492,-0.25174 2.0139,-0.25174 2.18173,0 3.49637,0.78319 1.31463,0.78318 1.90202,2.0139 0.61536,1.23072 0.61536,2.65724 v 6.8249 q 0,0.50348 -0.50348,0.83913 -0.50347,0.33565 -1.25869,0.33565 -0.69927,0 -1.17478,-0.33565 -0.44753,-0.33565 -0.44753,-0.83913 v -0.78319 q -0.75522,0.8671 -1.79014,1.5384 -1.00695,0.67131 -2.46144,0.67131 z m 1.45449,-2.68521 q 0.58739,0 1.17478,-0.39159 0.58739,-0.3916 0.97898,-1.00696 0.41956,-0.61536 0.41956,-1.28666 v -0.58739 h -0.41956 q -0.92304,0 -1.76217,0.11189 -0.83913,0.11188 -1.37057,0.50347 -0.50348,0.36363 -0.50348,1.14681 0,0.78319 0.41957,1.14681 0.44753,0.36362 1.06289,0.36362 z m 10.65693,-13.81763 q -0.81116,0 -1.39854,-0.53144 -0.58739,-0.55942 -0.58739,-1.23072 0,-0.72725 0.58739,-1.23072 0.58738,-0.53145 1.39854,-0.53145 0.83913,0 1.39855,0.53145 0.55941,0.50347 0.55941,1.23072 0,0.6713 -0.55941,1.23072 -0.55942,0.53144 -1.39855,0.53144 z m 0,16.2511 q -0.78318,0 -1.28666,-0.36362 -0.50348,-0.36363 -0.50348,-0.81116 V 143.4421 q 0,-0.50348 0.50348,-0.81116 0.50348,-0.30768 1.28666,-0.30768 0.75522,0 1.28666,0.30768 0.53145,0.30768 0.53145,0.81116 v 10.99256 q 0,0.44753 -0.53145,0.81116 -0.53144,0.36362 -1.28666,0.36362 z m 9.8178,6.18157 q -1.65028,0 -3.0768,-0.47551 -1.39854,-0.44753 -2.26564,-1.3426 -0.83913,-0.89507 -0.83913,-2.12579 0,-1.0629 0.58739,-1.81811 0.58739,-0.72724 1.45449,-1.14681 -0.53145,-0.25173 -0.8671,-0.6713 -0.30768,-0.44753 -0.30768,-1.11883 0,-0.78319 0.3916,-1.25869 0.41956,-0.50348 1.03492,-0.92304 -0.83913,-0.64333 -1.31463,-1.5384 -0.44754,-0.92304 -0.44754,-2.01391 v -0.58739 q 0,-1.37057 0.6713,-2.40549 0.69928,-1.03493 1.93,-1.62232 1.25869,-0.58739 2.881,-0.58739 0.92304,0 1.73419,0.22377 0.81116,0.1958 1.45449,0.58739 0.47551,-1.11884 0.89507,-1.51043 0.41956,-0.39159 0.81116,-0.39159 0.6713,0 1.03492,0.39159 0.39159,0.39159 0.39159,0.72725 0,0.25173 -0.13985,0.44753 -0.11189,0.1958 -0.30768,0.33565 -0.27971,0.16783 -0.64333,0.41956 -0.36363,0.22377 -0.67131,0.64333 0.50348,0.55942 0.72725,1.2587 0.25174,0.6713 0.25174,1.48245 v 0.58739 q 0,1.3426 -0.69928,2.4055 -0.69927,1.03492 -1.95796,1.65028 -1.25869,0.61536 -2.881,0.61536 -1.00695,0 -1.81811,-0.25174 -0.13985,0.11189 -0.25174,0.25174 -0.0839,0.13986 -0.0839,0.30768 0,0.47551 0.61536,0.6713 0.61536,0.1958 1.56637,0.30768 0.95101,0.11189 2.0139,0.30768 1.09087,0.16783 2.04188,0.55942 0.95101,0.39159 1.56637,1.17478 0.61536,0.75521 0.61536,2.04187 0,1.56638 -0.89507,2.51739 -0.8671,0.97898 -2.26564,1.42651 -1.37058,0.44754 -2.93695,0.44754 z m -0.0559,-2.32159 q 1.09087,0 1.84608,-0.53145 0.78319,-0.53144 0.78319,-1.42651 0,-0.58739 -0.33565,-0.95101 -0.33566,-0.36362 -0.92304,-0.55942 -0.55942,-0.16783 -1.23072,-0.27971 -0.67131,-0.0839 -1.34261,-0.16782 -0.6713,0.30768 -1.09086,0.78318 -0.41957,0.47551 -0.41957,1.14681 0,0.92304 0.78319,1.45448 0.81116,0.53145 1.92999,0.53145 z m -0.0559,-9.62199 q 0.92304,0 1.45449,-0.69927 0.53144,-0.69927 0.53144,-1.79014 v -0.58739 q 0,-1.03492 -0.53144,-1.73419 -0.50348,-0.69928 -1.48246,-0.69928 -0.95101,0 -1.48246,0.69928 -0.50347,0.69927 -0.50347,1.73419 v 0.55942 q 0,1.0629 0.50347,1.79014 0.53145,0.72724 1.51043,0.72724 z m 10.90867,6.01375 q -1.48246,0 -2.57332,-0.89507 -1.0629,-0.92304 -1.0629,-2.82506 0,-1.59435 0.81116,-2.48941 0.83913,-0.89507 2.29361,-1.25869 1.48246,-0.36363 3.41245,-0.36363 h 1.14681 v -0.36362 q 0,-0.61536 -0.25174,-1.20275 -0.22377,-0.58739 -0.75521,-0.97898 -0.50348,-0.39159 -1.45449,-0.39159 -1.06289,0 -1.65028,0.22377 -0.55942,0.19579 -0.8671,0.41956 -0.30768,0.22377 -0.6713,0.22377 -0.58739,0 -0.92304,-0.58739 -0.30768,-0.58739 -0.30768,-1.20275 0,-0.58739 0.69927,-1.03492 0.72724,-0.47551 1.76217,-0.72725 1.03492,-0.25174 2.0139,-0.25174 2.18173,0 3.49636,0.78319 1.31464,0.78318 1.90203,2.0139 0.61536,1.23072 0.61536,2.65724 v 6.8249 q 0,0.50348 -0.50348,0.83913 -0.50348,0.33565 -1.25869,0.33565 -0.69927,0 -1.17478,-0.33565 -0.44753,-0.33565 -0.44753,-0.83913 v -0.78319 q -0.75522,0.8671 -1.79014,1.5384 -1.00695,0.67131 -2.46144,0.67131 z m 1.45449,-2.68521 q 0.58739,0 1.17477,-0.39159 0.58739,-0.3916 0.97899,-1.00696 0.41956,-0.61536 0.41956,-1.28666 v -0.58739 h -0.41956 q -0.92304,0 -1.76217,0.11189 -0.83913,0.11188 -1.37057,0.50347 -0.50348,0.36363 -0.50348,1.14681 0,0.78319 0.41956,1.14681 0.44754,0.36362 1.0629,0.36362 z"
     id="text5876"
     transform="matrix(1.265073,0,0,1.0345977,-616.12673,-101.839)"
     aria-label="Taiga" />
  <path
     style="font-weight:500;font-size:18.5185px;line-height:1.25;font-family:Dosis;-inkscape-font-specification:'Dosis Medium';white-space:pre;fill:#000000"
     d="m 81.573059,261.34742 q -0.277777,0 -0.537036,-0.12963 -0.240741,-0.12963 -0.240741,-0.40741 v -12.44443 q 0,-0.27777 0.222222,-0.4074 0.222222,-0.14815 0.481481,-0.14815 h 6.53703 q 0.277778,0 0.407407,0.22222 0.12963,0.22222 0.12963,0.46296 0,0.27778 -0.148148,0.5 -0.12963,0.22222 -0.388889,0.22222 h -5.685179 v 4.7037 h 2.907405 q 0.259259,0 0.388888,0.20371 0.148148,0.2037 0.148148,0.46296 0,0.22222 -0.129629,0.42592 -0.12963,0.20371 -0.407407,0.20371 h -2.907405 v 5.59258 q 0,0.27778 -0.24074,0.40741 -0.240741,0.12963 -0.537037,0.12963 z m 9.55556,0.14815 q -0.981481,0 -1.814813,-0.5 -0.833333,-0.51852 -1.333332,-1.33333 -0.5,-0.81482 -0.5,-1.75926 v -1.88889 q 0,-0.94444 0.481481,-1.74074 0.5,-0.81481 1.333332,-1.31481 0.833333,-0.5 1.833332,-0.5 0.98148,0 1.814813,0.5 0.833332,0.48148 1.333331,1.27778 0.518518,0.79629 0.518518,1.77777 v 1.88889 q 0,0.92593 -0.518518,1.75926 -0.499999,0.81481 -1.333331,1.33333 -0.833333,0.5 -1.814813,0.5 z m 0,-1.38889 q 0.592592,0 1.055554,-0.31481 0.481481,-0.31482 0.777777,-0.81482 0.296296,-0.51851 0.296296,-1.07407 v -1.88889 q 0,-0.53703 -0.296296,-1.03703 -0.277777,-0.5 -0.759258,-0.81482 -0.481481,-0.31481 -1.074073,-0.31481 -0.592592,0 -1.074073,0.31481 -0.481481,0.31482 -0.759259,0.81482 -0.277777,0.5 -0.277777,1.03703 v 1.88889 q 0,0.55556 0.277777,1.07407 0.277778,0.5 0.759259,0.81482 0.481481,0.31481 1.074073,0.31481 z m 6.444425,1.24074 q -0.333333,0 -0.555555,-0.16667 -0.203704,-0.18518 -0.203704,-0.38888 V 247.8104 q 0,-0.24074 0.203704,-0.38889 0.222222,-0.14815 0.555555,-0.14815 0.314814,0 0.537036,0.14815 0.240741,0.14815 0.240741,0.38889 v 12.98147 q 0,0.2037 -0.240741,0.38888 -0.222222,0.16667 -0.537036,0.16667 z m 4.055546,0 q -0.33333,0 -0.55555,-0.16667 -0.20371,-0.18518 -0.20371,-0.38888 V 247.8104 q 0,-0.24074 0.20371,-0.38889 0.22222,-0.14815 0.55555,-0.14815 0.31482,0 0.53704,0.14815 0.24074,0.14815 0.24074,0.38889 v 12.98147 q 0,0.2037 -0.24074,0.38888 -0.22222,0.16667 -0.53704,0.16667 z m 6.44444,0.14815 q -0.98148,0 -1.81482,-0.5 -0.83333,-0.51852 -1.33333,-1.33333 -0.5,-0.81482 -0.5,-1.75926 v -1.88889 q 0,-0.94444 0.48148,-1.74074 0.5,-0.81481 1.33334,-1.31481 0.83333,-0.5 1.83333,-0.5 0.98148,0 1.81481,0.5 0.83333,0.48148 1.33333,1.27778 0.51852,0.79629 0.51852,1.77777 v 1.88889 q 0,0.92593 -0.51852,1.75926 -0.5,0.81481 -1.33333,1.33333 -0.83333,0.5 -1.81481,0.5 z m 0,-1.38889 q 0.59259,0 1.05555,-0.31481 0.48148,-0.31482 0.77778,-0.81482 0.29629,-0.51851 0.29629,-1.07407 v -1.88889 q 0,-0.53703 -0.29629,-1.03703 -0.27778,-0.5 -0.75926,-0.81482 -0.48148,-0.31481 -1.07407,-0.31481 -0.59259,0 -1.07408,0.31481 -0.48148,0.31482 -0.75925,0.81482 -0.27778,0.5 -0.27778,1.03703 v 1.88889 q 0,0.55556 0.27778,1.07407 0.27777,0.5 0.75925,0.81482 0.48149,0.31481 1.07408,0.31481 z m 8.24072,1.40741 q -0.22223,0 -0.38889,-0.0926 -0.14815,-0.0741 -0.24074,-0.2963 l -2.87037,-7.62962 q -0.037,-0.0926 -0.0741,-0.16667 -0.0185,-0.0926 -0.0185,-0.12963 0,-0.2037 0.14815,-0.35185 0.16666,-0.14815 0.38888,-0.22222 0.22223,-0.0926 0.42593,-0.0926 0.16667,0 0.2963,0.0741 0.14814,0.0741 0.2037,0.22222 l 2.22222,6.22222 1.75926,-5.61111 q 0.0741,-0.2037 0.22222,-0.27778 0.14815,-0.0926 0.35185,-0.0926 0.2037,0 0.35185,0.0926 0.16667,0.0741 0.22222,0.27778 l 1.72222,5.66666 2.25926,-6.27777 q 0.0926,-0.29629 0.48148,-0.29629 0.20371,0 0.42593,0.0926 0.22222,0.0741 0.37037,0.22222 0.16666,0.14815 0.16666,0.35185 0,0.0556 -0.037,0.14815 -0.0185,0.0926 -0.037,0.14815 l -2.88889,7.68517 q -0.0741,0.18519 -0.24074,0.25926 -0.16666,0.0741 -0.37037,0.0741 -0.24074,0 -0.4074,-0.0926 -0.14815,-0.0741 -0.22223,-0.24075 l -1.79629,-5.44443 -1.75926,5.38888 q -0.0741,0.18518 -0.25926,0.27778 -0.18518,0.11111 -0.4074,0.11111 z m 16.75926,-0.0185 q -0.98148,0 -1.81482,-0.5 -0.83333,-0.51852 -1.33333,-1.33333 -0.5,-0.81482 -0.5,-1.75926 v -1.88889 q 0,-0.94444 0.48148,-1.74074 0.5,-0.81481 1.33334,-1.31481 0.83333,-0.5 1.83333,-0.5 0.98148,0 1.81481,0.5 0.83333,0.48148 1.33333,1.27778 0.51852,0.79629 0.51852,1.77777 v 1.88889 q 0,0.92593 -0.51852,1.75926 -0.5,0.81481 -1.33333,1.33333 -0.83333,0.5 -1.81481,0.5 z m 0,-1.38889 q 0.59259,0 1.05555,-0.31481 0.48148,-0.31482 0.77778,-0.81482 0.29629,-0.51851 0.29629,-1.07407 v -1.88889 q 0,-0.53703 -0.29629,-1.03703 -0.27778,-0.5 -0.75926,-0.81482 -0.48148,-0.31481 -1.07407,-0.31481 -0.5926,0 -1.07408,0.31481 -0.48148,0.31482 -0.75925,0.81482 -0.27778,0.5 -0.27778,1.03703 v 1.88889 q 0,0.55556 0.27778,1.07407 0.27777,0.5 0.75925,0.81482 0.48148,0.31481 1.07408,0.31481 z m 6.27776,1.24074 q -0.33334,0 -0.55556,-0.16667 -0.2037,-0.18518 -0.2037,-0.38888 v -7.68518 q 0,-0.24074 0.2037,-0.38889 0.22222,-0.14815 0.55556,-0.14815 0.29629,0 0.5,0.14815 0.2037,0.14815 0.2037,0.38889 v 0.75926 q 0.2963,-0.53704 0.92592,-0.96296 0.62963,-0.44445 1.55556,-0.44445 0.88889,0 1.62963,0.5 0.74074,0.48148 1.18518,1.27778 0.44444,0.79629 0.44444,1.77777 v 4.77778 q 0,0.27777 -0.24074,0.42592 -0.24074,0.12963 -0.53703,0.12963 -0.27778,0 -0.51852,-0.12963 -0.24074,-0.14815 -0.24074,-0.42592 v -4.77778 q 0,-0.53703 -0.2963,-1.03703 -0.27777,-0.5 -0.75926,-0.81482 -0.48148,-0.31481 -1.05555,-0.31481 -0.5,0 -0.96296,0.27778 -0.46296,0.25926 -0.75926,0.74074 -0.2963,0.46296 -0.2963,1.14814 v 4.77778 q 0,0.2037 -0.24074,0.38888 -0.22222,0.16667 -0.53703,0.16667 z"
     id="text5295-0"
     transform="matrix(1.0080032,0,0,1.0080032,-7.4418871,-234.25234)"
     aria-label="Follow on" />
</svg>
