<?xml version="1.0" encoding="UTF-8" standalone="no"?>
<svg
   width="260"
   height="80"
   viewBox="0 0 260 80"
   fill="none"
   version="1.1"
   id="svg4"
   sodipodi:docname="get_iod.svg"
   inkscape:version="1.4.1 (93de688d07, 2025-03-30)"
   xmlns:inkscape="http://www.inkscape.org/namespaces/inkscape"
   xmlns:sodipodi="http://sodipodi.sourceforge.net/DTD/sodipodi-0.dtd"
   xmlns="http://www.w3.org/2000/svg"
   xmlns:svg="http://www.w3.org/2000/svg">
  <defs
     id="defs4">
    <rect
       x="78.55587"
       y="21.772038"
       width="163.5845"
       height="37.65974"
       id="rect5" />
    <rect
       x="82.674904"
       y="15.593487"
       width="160.64233"
       height="54.13588"
       id="rect4" />
    <rect
       x="545.27075"
       y="129.38628"
       width="170.53992"
       height="37.730087"
       id="rect5878" />
    <rect
       x="79.480141"
       y="243.98555"
       width="98.107262"
       height="19.632467"
       id="rect5297" />
  </defs>
  <sodipodi:namedview
     inkscape:zoom="3.398855"
     inkscape:cx="128.13139"
     inkscape:cy="60.167321"
     inkscape:window-width="1920"
     inkscape:window-height="1051"
     inkscape:window-x="0"
     inkscape:window-y="0"
     inkscape:window-maximized="1"
     inkscape:current-layer="svg4"
     pagecolor="#b0b0b0"
     id="namedview1"
     bordercolor="#eeeeee"
     borderopacity="1"
     inkscape:showpageshadow="0"
     inkscape:pageopacity="0"
     inkscape:pagecheckerboard="0"
     inkscape:deskcolor="#505050" />
  <rect
     width="260"
     height="80"
     rx="39.694656"
     fill="#1D5128"
     id="rect"
     style="fill:#9bedff;fill-opacity:0.83529413;stroke-width:1.99236"
     x="0"
     y="0" />
  <path
     style="font-weight:bold;font-size:29.3808px;line-height:1.25;font-family:Dosis;-inkscape-font-specification:'Dosis Bold';white-space:pre;fill:#000000"
     d="m 548.94408,156.93122 q -0.70513,0 -1.32213,-0.29381 -0.58762,-0.32319 -0.58762,-0.94018 v -19.03876 q 0,-0.64638 0.58762,-0.91081 0.617,-0.29381 1.32213,-0.29381 0.73452,0 1.32214,0.29381 0.58762,0.26443 0.58762,0.91081 v 19.03876 q 0,0.61699 -0.58762,0.94018 -0.58762,0.29381 -1.32214,0.29381 z m 5.58234,0 q -0.70514,0 -0.99895,-0.41133 -0.2938,-0.44071 -0.2938,-0.94019 0,-0.44071 0.17628,-0.82266 0.20567,-0.41133 0.47009,-0.73452 l 5.75864,-7.9622 h -5.0535 q -0.47009,0 -0.82266,-0.44071 -0.32319,-0.47009 -0.32319,-1.11647 0,-0.617 0.32319,-1.05771 0.32319,-0.47009 0.82266,-0.47009 h 8.63796 q 0.49947,0 0.85204,0.32319 0.35257,0.32319 0.35257,0.96956 0,0.79329 -0.58762,1.58657 l -5.78801,7.96219 h 5.72925 q 0.4701,0 0.79328,0.4701 0.35257,0.47009 0.35257,1.11647 0,0.61699 -0.32319,1.08709 -0.2938,0.44071 -0.82266,0.44071 z m 12.75127,0 q -0.70514,0 -0.99895,-0.41133 -0.29381,-0.44071 -0.29381,-0.94019 0,-0.44071 0.17629,-0.82266 0.20566,-0.41133 0.47009,-0.73452 l 5.75864,-7.9622 h -5.0535 q -0.47009,0 -0.82266,-0.44071 -0.32319,-0.47009 -0.32319,-1.11647 0,-0.617 0.32319,-1.05771 0.32319,-0.47009 0.82266,-0.47009 h 8.63795 q 0.49948,0 0.85205,0.32319 0.35257,0.32319 0.35257,0.96956 0,0.79329 -0.58762,1.58657 l -5.78802,7.96219 h 5.72926 q 0.47009,0 0.79328,0.4701 0.35257,0.47009 0.35257,1.11647 0,0.61699 -0.32319,1.08709 -0.29381,0.44071 -0.82266,0.44071 z m 12.75126,6.49316 q -0.73452,0 -1.23399,-0.29381 -0.49947,-0.26443 -0.49947,-1.32214 0,-0.64638 0.20566,-1.11647 0.23505,-0.47009 0.7639,-0.47009 0.49948,0 1.14585,-0.17629 0.67576,-0.17628 1.35152,-0.67575 0.67576,-0.4701 1.14585,-1.32214 0.47009,-0.82266 0.55824,-2.1448 l -5.0535,-10.81213 q -0.11752,-0.26443 -0.11752,-0.49948 0,-0.49947 0.41133,-0.9108 0.44071,-0.41133 1.02833,-0.64638 0.58761,-0.26443 1.08709,-0.26443 0.35256,0 0.64637,0.14691 0.32319,0.1469 0.44071,0.49947 l 3.5257,8.78486 2.82056,-8.78486 q 0.1469,-0.35257 0.44071,-0.49947 0.29381,-0.14691 0.58762,-0.14691 0.44071,0 1.0577,0.26443 0.617,0.23505 1.05771,0.67576 0.4701,0.41133 0.4701,0.94018 0,0.26443 -0.0882,0.44072 l -4.28959,10.95903 q -0.52886,1.32214 -1.02833,2.6149 -0.49947,1.32213 -1.26338,2.37984 -0.73452,1.08709 -1.96851,1.73347 -1.23399,0.64638 -3.20251,0.64638 z m 20.47845,-6.31688 q -1.93913,0 -3.49631,-0.64637 -1.55719,-0.67576 -2.49737,-2.1448 -0.91081,-1.49842 -0.91081,-3.96641 v -8.13848 q 0,-2.46799 0.91081,-3.93703 0.94018,-1.49842 2.46799,-2.1448 1.55718,-0.67576 3.52569,-0.67576 1.93913,0 3.49632,0.67576 1.58656,0.64638 2.49736,2.1448 0.91081,1.46904 0.91081,3.93703 v 8.13848 q 0,2.46799 -0.91081,3.96641 -0.9108,1.46904 -2.49736,2.1448 -1.55719,0.64637 -3.49632,0.64637 z m 0,-3.34941 q 1.43966,0 2.26232,-0.82266 0.82267,-0.82266 0.82267,-2.58551 v -8.13848 q 0,-1.76285 -0.82267,-2.58551 -0.82266,-0.82266 -2.26232,-0.82266 -1.43966,0 -2.26232,0.82266 -0.79328,0.82266 -0.79328,2.58551 v 8.13848 q 0,1.76285 0.79328,2.58551 0.82266,0.82266 2.26232,0.82266 z m 11.73713,3.17313 q -0.82266,0 -1.35151,-0.38195 -0.52886,-0.38195 -0.52886,-0.85204 v -11.54666 q 0,-0.52885 0.52886,-0.85204 0.52885,-0.32319 1.35151,-0.32319 0.70514,0 1.17524,0.32319 0.49947,0.32319 0.49947,0.85204 v 0.88142 q 0.44071,-0.85204 1.43966,-1.5278 1.02833,-0.70514 2.49737,-0.70514 1.38089,0 2.52675,0.82267 1.14585,0.79328 1.82161,2.14479 0.70513,1.35152 0.70513,2.99685 v 6.93387 q 0,0.61699 -0.58761,0.94018 -0.58762,0.29381 -1.32214,0.29381 -0.64638,0 -1.26337,-0.29381 -0.617,-0.32319 -0.617,-0.94018 v -6.93387 q 0,-0.67576 -0.35257,-1.26338 -0.32319,-0.58761 -0.9108,-0.96956 -0.58762,-0.41134 -1.29276,-0.41134 -0.58761,0 -1.14585,0.32319 -0.55824,0.32319 -0.9108,0.91081 -0.35257,0.58761 -0.35257,1.41028 v 6.93387 q 0,0.47009 -0.55824,0.85204 -0.55823,0.38195 -1.35152,0.38195 z m 15.28834,0 q -0.7639,0 -1.234,-0.35257 -0.44071,-0.35257 -0.44071,-0.85204 v -19.06814 q 0,-0.49948 0.44071,-0.85205 0.4701,-0.35257 1.234,-0.35257 h 5.2004 q 1.96851,0 3.5257,0.67576 1.55718,0.64638 2.46798,2.1448 0.94019,1.46904 0.94019,3.93703 v 7.96219 q 0,2.46799 -0.94019,3.96641 -0.9108,1.46904 -2.46798,2.1448 -1.55719,0.64638 -3.5257,0.64638 z m 2.1448,-3.34941 h 3.0556 q 1.46904,0 2.2917,-0.82266 0.82266,-0.85205 0.82266,-2.58552 v -7.96219 q 0,-1.73347 -0.82266,-2.55613 -0.82266,-0.85204 -2.26232,-0.85204 h -3.08498 z m 14.76335,3.34941 q -0.79328,0 -1.32214,-0.38195 -0.52885,-0.38195 -0.52885,-0.85204 v -11.54666 q 0,-0.52885 0.52885,-0.85204 0.52886,-0.32319 1.32214,-0.32319 0.73452,0 1.20461,0.32319 0.49947,0.32319 0.49947,0.85204 v 1.20461 q 0.32319,-0.64637 0.85205,-1.20461 0.55823,-0.58762 1.26337,-0.96957 0.70514,-0.38195 1.49842,-0.38195 h 0.91081 q 0.55823,0 0.96956,0.49948 0.41133,0.47009 0.41133,1.14585 0,0.70514 -0.41133,1.20461 -0.41133,0.47009 -0.96956,0.47009 h -0.91081 q -0.82266,0 -1.61594,0.55824 -0.7639,0.52885 -1.26338,1.49842 -0.49947,0.94019 -0.49947,2.2917 v 5.22979 q 0,0.47009 -0.55824,0.85204 -0.55823,0.38195 -1.38089,0.38195 z m 14.65761,0.26443 q -1.70409,0 -3.14375,-0.82267 -1.43966,-0.85204 -2.32108,-2.23294 -0.88143,-1.38089 -0.88143,-2.96746 v -2.40922 q 0,-1.58657 0.85205,-2.93808 0.85204,-1.3809 2.2917,-2.20356 1.46904,-0.82267 3.20251,-0.82267 1.73346,0 3.17312,0.82267 1.46904,0.79328 2.32109,2.14479 0.88142,1.35152 0.88142,2.99685 v 2.40922 q 0,1.55718 -0.88142,2.93808 -0.88143,1.3809 -2.35047,2.23294 -1.43966,0.85205 -3.14374,0.85205 z m 0,-3.32003 q 0.70513,0 1.29275,-0.38195 0.58762,-0.38196 0.94019,-0.99895 0.35257,-0.64638 0.35257,-1.32214 v -2.40922 q 0,-0.67576 -0.35257,-1.26338 -0.35257,-0.58761 -0.94019,-0.96956 -0.55823,-0.41134 -1.29275,-0.41134 -0.70514,0 -1.29276,0.38195 -0.58762,0.38196 -0.94019,0.99895 -0.32318,0.58762 -0.32318,1.26338 v 2.40922 q 0,0.67576 0.32318,1.32214 0.35257,0.61699 0.94019,0.99895 0.58762,0.38195 1.29276,0.38195 z m 10.66522,-14.01465 q -0.85205,0 -1.46904,-0.55823 -0.617,-0.58762 -0.617,-1.29276 0,-0.7639 0.617,-1.29275 0.61699,-0.55824 1.46904,-0.55824 0.88142,0 1.46904,0.55824 0.58761,0.52885 0.58761,1.29275 0,0.70514 -0.58761,1.29276 -0.58762,0.55823 -1.46904,0.55823 z m 0,17.07025 q -0.82266,0 -1.35152,-0.38195 -0.52885,-0.38195 -0.52885,-0.85204 v -11.54666 q 0,-0.52885 0.52885,-0.85204 0.52886,-0.32319 1.35152,-0.32319 0.79328,0 1.35151,0.32319 0.55824,0.32319 0.55824,0.85204 v 11.54666 q 0,0.47009 -0.55824,0.85204 -0.55823,0.38195 -1.35151,0.38195 z m 9.46064,0.26443 q -1.3809,0 -2.55613,-0.85205 -1.17523,-0.85204 -1.88037,-2.23294 -0.70514,-1.3809 -0.70514,-2.93808 v -2.40922 q 0,-1.64533 0.70514,-2.99685 0.70514,-1.35151 1.88037,-2.14479 1.17523,-0.82267 2.61489,-0.82267 1.3809,0 2.35046,0.70514 0.96957,0.67576 1.43966,1.5278 v -9.0199 q 0,-0.52886 0.55824,-0.85204 0.55823,-0.32319 1.3809,-0.32319 0.79328,0 1.32213,0.32319 0.52886,0.32318 0.52886,0.85204 v 19.68514 q 0,0.47009 -0.52886,0.85204 -0.52885,0.38195 -1.32213,0.38195 -0.70514,0 -1.20462,-0.38195 -0.49947,-0.38195 -0.49947,-0.85204 v -0.82267 q -0.44071,0.91081 -1.58656,1.61595 -1.11647,0.70514 -2.49737,0.70514 z m 1.20461,-3.32003 q 0.7639,0 1.35152,-0.41134 0.58761,-0.44071 0.94018,-0.94018 0.35257,-0.52886 0.35257,-0.82266 v -2.93808 q 0,-0.82267 -0.41133,-1.41028 -0.38195,-0.58762 -0.99895,-0.91081 -0.58761,-0.32319 -1.20461,-0.32319 -0.70514,0 -1.32213,0.41134 -0.58762,0.38195 -0.94019,0.96956 -0.32319,0.58762 -0.32319,1.26338 v 2.40922 q 0,0.67576 0.32319,1.29276 0.35257,0.61699 0.94019,1.02833 0.58761,0.38195 1.29275,0.38195 z"
     id="text5876"
     transform="matrix(0.99838614,0,0,0.99838614,-472.15148,-99.619225)"
     aria-label="IzzyOnDroid" />
  <path
     style="font-size:16.0259px;line-height:1.25;font-family:Dosis;-inkscape-font-specification:Dosis;white-space:pre;fill:#000000"
     d="m 83.903617,259.10676 q -0.929502,0 -1.682719,-0.33654 -0.753218,-0.33654 -1.201943,-1.08976 -0.448725,-0.75322 -0.448725,-2.00324 v -4.952 q 0,-1.25002 0.448725,-2.00324 0.448725,-0.75322 1.185917,-1.08976 0.753217,-0.33654 1.682719,-0.33654 1.025658,0 1.778875,0.36859 0.753217,0.35257 1.169891,0.97758 0.416673,0.62501 0.416673,1.44233 0,0.28847 -0.144233,0.41668 -0.144233,0.11218 -0.384622,0.11218 -0.224362,0 -0.384621,-0.0962 -0.144233,-0.0961 -0.160259,-0.30449 -0.0641,-0.60898 -0.336544,-1.04168 -0.27244,-0.4327 -0.753217,-0.65707 -0.480777,-0.24038 -1.185917,-0.24038 -1.073735,0 -1.666693,0.60898 -0.592959,0.59296 -0.592959,1.84298 v 4.952 q 0,1.25002 0.592959,1.85901 0.592958,0.59295 1.666693,0.59295 1.073735,0 1.666694,-0.59295 0.608984,-0.60899 0.608984,-1.85901 v -1.90708 H 84.04785 q -0.192311,0 -0.304492,-0.12821 -0.09615,-0.14423 -0.09615,-0.32052 0,-0.17628 0.09615,-0.32051 0.112181,-0.14424 0.304492,-0.14424 h 2.804533 q 0.19231,0 0.288466,0.12821 0.112181,0.12821 0.112181,0.30449 v 2.38786 q 0,1.25002 -0.448725,2.00324 -0.448725,0.75322 -1.201942,1.08976 -0.753218,0.33654 -1.698746,0.33654 z m 8.429621,0.016 q -1.009632,0 -1.794901,-0.38462 -0.769243,-0.38462 -1.217968,-1.05771 -0.4327,-0.68911 -0.4327,-1.60259 v -1.77888 q 0,-0.80129 0.416674,-1.47438 0.416673,-0.68911 1.105787,-1.08976 0.705139,-0.40065 1.538486,-0.40065 0.801295,0 1.474383,0.38462 0.689114,0.3686 1.105787,1.02566 0.416674,0.65706 0.416674,1.52246 0,0.60899 -0.208337,0.88143 -0.208337,0.27244 -0.528855,0.33654 -0.304492,0.0481 -0.657062,0.0481 h -3.621853 v 0.59296 q 0,0.96155 0.689114,1.52246 0.689113,0.5609 1.746823,0.5609 0.641036,0 0.993605,-0.16025 0.35257,-0.16026 0.544881,-0.32052 0.208337,-0.16026 0.384622,-0.16026 0.128207,0 0.224362,0.0961 0.112182,0.0801 0.160259,0.19231 0.0641,0.11219 0.0641,0.20834 0,0.17629 -0.288466,0.4327 -0.288467,0.25641 -0.833347,0.44873 -0.544881,0.17628 -1.282072,0.17628 z m -2.403885,-4.35904 h 3.20518 q 0.480777,0 0.641036,-0.0962 0.160259,-0.11218 0.160259,-0.44872 0,-0.51283 -0.256415,-0.96156 -0.256414,-0.46475 -0.705139,-0.75322 -0.448725,-0.30449 -1.041684,-0.30449 -0.54488,0 -1.009631,0.27244 -0.448726,0.27244 -0.721166,0.70514 -0.27244,0.4327 -0.27244,0.97758 z m 9.086688,4.24686 q -1.233995,0 -1.891056,-0.56091 -0.657062,-0.5609 -0.657062,-1.7949 v -8.42962 q 0,-0.19231 0.160259,-0.28847 0.176285,-0.11218 0.352569,-0.11218 0.208337,0 0.368596,0.11218 0.160259,0.0962 0.160259,0.28847 v 3.20518 h 2.083367 q 0.160259,0 0.256415,0.12821 0.09615,0.1282 0.09615,0.30449 0,0.17628 -0.09615,0.30449 -0.09616,0.12821 -0.256415,0.12821 h -2.083367 v 4.35904 q 0,0.78527 0.336544,1.10579 0.336544,0.30449 1.169891,0.30449 h 0.448725 q 0.224363,0 0.336544,0.14423 0.128207,0.12821 0.128207,0.32052 0,0.19231 -0.128207,0.33655 -0.112181,0.14423 -0.336544,0.14423 z m 5.945619,-9.82388 q -0.28846,0 -0.51283,-0.19231 -0.20833,-0.20833 -0.20833,-0.48078 0,-0.27244 0.20833,-0.46475 0.22437,-0.19231 0.51283,-0.19231 0.28847,0 0.49681,0.19231 0.20833,0.19231 0.20833,0.46475 0,0.27245 -0.20833,0.48078 -0.20834,0.19231 -0.49681,0.19231 z m -0.016,9.82388 q -0.20834,0 -0.3686,-0.12821 -0.14423,-0.12821 -0.14423,-0.28846 v -6.76293 q 0,-0.19231 0.14423,-0.28847 0.16026,-0.11218 0.3686,-0.11218 0.22436,0 0.36859,0.11218 0.16026,0.0962 0.16026,0.28847 v 6.76293 q 0,0.16025 -0.16026,0.28846 -0.14423,0.12821 -0.36859,0.12821 z m 5.03212,0 q -1.234,0 -1.89106,-0.56091 -0.65706,-0.5609 -0.65706,-1.7949 v -8.42962 q 0,-0.19231 0.16026,-0.28847 0.17628,-0.11218 0.35257,-0.11218 0.20833,0 0.36859,0.11218 0.16026,0.0962 0.16026,0.28847 v 3.20518 h 2.08337 q 0.16026,0 0.25641,0.12821 0.0962,0.1282 0.0962,0.30449 0,0.17628 -0.0962,0.30449 -0.0961,0.12821 -0.25641,0.12821 h -2.08337 v 4.35904 q 0,0.78527 0.33655,1.10579 0.33654,0.30449 1.16989,0.30449 h 0.44872 q 0.22436,0 0.33655,0.14423 0.1282,0.12821 0.1282,0.32052 0,0.19231 -0.1282,0.33655 -0.11219,0.14423 -0.33655,0.14423 z m 8.17322,0.11218 q -0.81732,0 -1.50644,-0.41667 -0.68911,-0.4327 -1.12181,-1.12182 -0.41667,-0.70514 -0.41667,-1.50643 v -1.7308 q 0,-0.81732 0.40064,-1.49041 0.41668,-0.68911 1.10579,-1.10578 0.70514,-0.41668 1.53849,-0.41668 0.81732,0 1.50643,0.41668 0.70514,0.40064 1.12182,1.07373 0.41667,0.67309 0.41667,1.52246 v 1.7308 q 0,0.78527 -0.41667,1.49041 -0.41668,0.70514 -1.12182,1.13784 -0.68911,0.41667 -1.50643,0.41667 z m 0,-0.96155 q 0.5609,0 1.00963,-0.28847 0.44872,-0.30449 0.72116,-0.78527 0.27245,-0.48078 0.27245,-1.00963 v -1.7308 q 0,-0.52885 -0.27245,-0.9936 -0.25641,-0.46475 -0.72116,-0.75322 -0.44873,-0.30449 -1.00963,-0.30449 -0.56091,0 -1.00963,0.30449 -0.44873,0.28847 -0.72117,0.75322 -0.27244,0.46475 -0.27244,0.9936 v 1.7308 q 0,0.52885 0.27244,1.00963 0.27244,0.48078 0.72117,0.78527 0.46475,0.28847 1.00963,0.28847 z m 5.27252,0.84937 q -0.20834,0 -0.3686,-0.12821 -0.14423,-0.12821 -0.14423,-0.28846 v -6.76293 q 0,-0.19231 0.14423,-0.28847 0.16026,-0.11218 0.3686,-0.11218 0.20834,0 0.35257,0.11218 0.14423,0.0962 0.14423,0.28847 v 0.72116 q 0.25642,-0.46475 0.8013,-0.83335 0.54488,-0.38462 1.34617,-0.38462 0.76925,0 1.41028,0.41668 0.65706,0.40064 1.04169,1.08976 0.38462,0.67309 0.38462,1.50643 v 4.24687 q 0,0.20833 -0.16026,0.32051 -0.16026,0.0962 -0.3686,0.0962 -0.17628,0 -0.35257,-0.0962 -0.16026,-0.11218 -0.16026,-0.32051 v -4.24687 q 0,-0.52885 -0.27244,-0.9936 -0.27244,-0.46475 -0.72116,-0.75322 -0.44873,-0.30449 -0.99361,-0.30449 -0.48078,0 -0.9295,0.25641 -0.4327,0.24039 -0.72117,0.68912 -0.27244,0.44872 -0.27244,1.10578 v 4.24687 q 0,0.16025 -0.16026,0.28846 -0.14423,0.12821 -0.36859,0.12821 z"
     id="text5295"
     transform="matrix(0.99838614,0,0,0.99838614,-6.3282138,-228.35859)"
     aria-label="Get it on" />
  <path
     style="fill:#000000;fill-opacity:1;stroke:#000000;stroke-width:0.502067;stroke-dasharray:none;stroke-opacity:1"
     d="m 25.434722,47.497788 c -0.595964,1.259779 -1.508398,2.4373 -2.255293,3.614883 -1.462964,2.306572 -2.924515,4.614611 -4.375769,6.928525 -0.552371,0.88071 -1.119129,1.75271 -1.667514,2.635852 -0.195775,0.315283 -0.564514,0.728628 -0.476789,1.129361 0.09253,0.422695 0.495151,0.521971 0.867809,0.52717 0.878242,0.0123 1.757516,2.9e-4 2.635852,2.9e-4 h 11.221198 11.748369 c 4.785935,0 9.348477,-0.04029 13.4805,-2.825524 8.53312,-5.751852 9.542272,-18.135544 2.334612,-25.340437 -1.237763,-1.237289 -2.73921,-2.409404 -4.367984,-3.087712 0.559439,-1.182861 1.409439,-2.280087 2.104904,-3.388952 1.498681,-2.389527 3.019913,-4.76491 4.518603,-7.154456 l 1.664378,-2.635852 c 0.195363,-0.311517 0.55213,-0.732213 0.442971,-1.129302 -0.117847,-0.428679 -0.529662,-0.451451 -0.89861,-0.452209 H 59.776107 48.630219 36.80654 c -1.832972,0 -3.748762,-0.160944 -5.572944,0.01278 -2.856239,0.272016 -5.610237,1.230477 -7.982866,2.851151 -8.241035,5.6292 -9.279957,17.415129 -2.723888,24.699547 1.336304,1.48476 3.049194,2.841046 4.90788,3.614882 M 44.412856,17.524386 c -0.556781,1.290439 -1.508701,2.499444 -2.255526,3.690193 -1.368366,2.181753 -2.721323,4.373251 -4.094518,6.551975 -0.552267,0.876233 -1.106022,1.752654 -1.647059,2.635852 -0.175622,0.286687 -0.522164,0.694239 -0.422747,1.053991 0.121764,0.44064 0.573359,0.522406 0.964154,0.52723 0.978705,0.01205 1.958305,2.9e-4 2.937093,2.9e-4 h 12.576779 c -0.761825,1.43106 -1.735478,2.76624 -2.592442,4.142053 -0.268613,0.431244 -0.885275,1.086409 -0.402701,1.564019 0.606871,0.600625 1.141161,-0.462961 1.409624,-0.886229 0.984905,-1.552838 1.978718,-3.102451 2.9411,-4.669223 2.035628,0.586429 4.020814,2.470794 5.317724,4.066743 4.848931,5.966981 4.588131,15.41237 -1.250981,20.697483 -1.649264,1.492783 -3.587056,2.735178 -5.723564,3.399818 -2.579035,0.802302 -5.162472,0.755017 -7.832246,0.755017 h -8.735967 c 0.652523,-1.395957 1.65623,-2.690716 2.481225,-3.991433 1.462319,-2.305552 2.881055,-4.641396 4.37199,-6.928525 0.55036,-0.844268 1.086388,-1.701339 1.613182,-2.560542 0.216519,-0.353145 0.441631,-0.767329 0.03255,-1.089904 -0.67841,-0.534939 -1.269405,0.808487 -1.538511,1.240524 -1.098928,1.76428 -2.235761,3.5052 -3.331075,5.271704 -1.158046,1.86768 -2.360285,3.707641 -3.52214,5.572944 -0.41426,0.665077 -0.930872,1.970946 -1.583952,2.407831 -0.28993,0.193947 -0.898884,0.0774 -1.234428,0.0774 H 29.878015 18.430887 c 0.732976,-1.936651 2.349734,-3.822054 3.460253,-5.572944 2.33684,-3.68436 4.625324,-7.400615 6.984658,-11.070578 0.915168,-1.423551 1.796012,-2.869149 2.711163,-4.292673 0.239627,-0.372737 0.923652,-1.108589 0.787791,-1.581162 -0.415315,-1.444617 -1.67157,0.746847 -1.917442,1.129301 -1.443096,2.244745 -2.872799,4.50406 -4.269488,6.777905 -1.721363,-0.495693 -3.2984,-1.91508 -4.519707,-3.16308 -5.664495,-5.788293 -5.737933,-15.965394 0.377712,-21.525835 1.60242,-1.456945 3.427918,-2.684989 5.497576,-3.375001 2.663818,-0.888102 5.361578,-0.855145 8.133486,-0.855145 h 8.735967 m 17.170693,0 -1.954054,3.163022 -4.038851,6.401355 -1.617189,2.560542 -0.763214,1.05225 -1.191069,0.0774 -3.087713,-0.07531 H 37.710261 l 2.104906,-3.464263 3.991433,-6.401354 1.458665,-2.334612 0.736132,-0.933589 1.423861,-0.04544 h 3.163022 10.995269 m -26.35852,19.806545 c -1.699222,0.881494 -2.732564,3.257084 -3.055752,5.045773 -0.09333,0.516548 -0.364954,1.679737 0.202164,1.998972 0.319238,0.179702 0.769514,0.10971 1.121457,0.10971 h 2.409922 8.811276 2.560542 c 0.373184,0 0.869555,0.07931 1.196767,-0.139929 0.543224,-0.363986 0.255203,-1.432121 0.164799,-1.968753 -0.322449,-1.91401 -1.393287,-3.934568 -3.018387,-5.045773 0.574106,-0.574106 1.556444,-1.223415 1.905122,-1.958062 0.247222,-0.520882 -0.226136,-1.053762 -0.775471,-0.838812 -0.834133,0.326385 -1.348142,1.807381 -2.227342,1.931157 -0.317459,0.0447 -0.793045,-0.298498 -1.086301,-0.409732 -0.720945,-0.273459 -1.487702,-0.472361 -2.259301,-0.525252 -1.057179,-0.07247 -2.146558,-8.89e-4 -3.163023,0.309958 -0.509958,0.155952 -1.065625,0.533974 -1.581511,0.611892 -0.546413,0.08253 -1.566669,-1.241111 -1.958061,-1.603359 -0.29421,-0.272302 -0.740023,-0.553262 -1.096993,-0.196294 -0.318467,0.318469 -0.124174,0.739851 0.126156,1.021682 0.529811,0.596469 1.138846,1.117903 1.723937,1.656822 m 12.275539,5.874184 h -14.15829 c 0.03194,-3.859889 4.008374,-6.814861 7.681625,-6.46388 3.369342,0.321943 6.207068,3.052621 6.476665,6.46388 M 37.183091,39.859047 c -1.189425,0.156464 -0.953964,1.95273 0.22593,1.824469 1.188254,-0.129174 0.959366,-1.98039 -0.22593,-1.824469 m 6.551974,2.91e-4 c -1.219451,0.23666 -0.842133,2.084883 0.376493,1.809825 1.097432,-0.247703 0.737181,-2.025958 -0.376493,-1.809825 z"
     id="path1" />
</svg>
