<?xml version="1.0" encoding="UTF-8" standalone="no"?>
<svg
   width="260"
   height="80"
   viewBox="0 0 260 80"
   fill="none"
   version="1.1"
   id="svg4"
   sodipodi:docname="get_taiga.svg"
   inkscape:version="1.4.1 (93de688d07, 2025-03-30)"
   xmlns:inkscape="http://www.inkscape.org/namespaces/inkscape"
   xmlns:sodipodi="http://sodipodi.sourceforge.net/DTD/sodipodi-0.dtd"
   xmlns="http://www.w3.org/2000/svg"
   xmlns:svg="http://www.w3.org/2000/svg">
  <defs
     id="defs4">
    <rect
       x="78.55587"
       y="21.772038"
       width="163.5845"
       height="37.65974"
       id="rect5" />
    <rect
       x="82.674904"
       y="15.593487"
       width="160.64233"
       height="54.13588"
       id="rect4" />
    <rect
       x="545.27075"
       y="129.38628"
       width="170.53992"
       height="37.730087"
       id="rect5878" />
    <rect
       x="79.480141"
       y="243.98555"
       width="98.107262"
       height="19.632467"
       id="rect5297" />
  </defs>
  <sodipodi:namedview
     inkscape:zoom="2.615958"
     inkscape:cx="166.66934"
     inkscape:cy="83.525806"
     inkscape:window-width="1920"
     inkscape:window-height="1051"
     inkscape:window-x="0"
     inkscape:window-y="0"
     inkscape:window-maximized="1"
     inkscape:current-layer="svg4"
     pagecolor="#b0b0b0"
     id="namedview1"
     bordercolor="#eeeeee"
     borderopacity="1"
     inkscape:showpageshadow="0"
     inkscape:pageopacity="0"
     inkscape:pagecheckerboard="0"
     inkscape:deskcolor="#505050" />
  <rect
     width="260"
     height="80"
     rx="39.694656"
     fill="#1D5128"
     id="rect"
     style="fill:#008aa8;fill-opacity:1;stroke-width:1.99236"
     x="0"
     y="0" />
  <path
     style="font-weight:bold;font-size:29.3808px;line-height:1.25;font-family:Dosis;-inkscape-font-specification:'Dosis Bold';white-space:pre;fill:#000000"
     d="m 552.96925,156.93122 q -0.73452,0 -1.32213,-0.29381 -0.58762,-0.32319 -0.58762,-0.94018 v -16.80582 h -4.31898 q -0.55823,0 -0.88142,-0.52886 -0.32319,-0.52885 -0.32319,-1.20461 0,-0.617 0.29381,-1.14585 0.29381,-0.55824 0.9108,-0.55824 h 12.42808 q 0.64638,0 0.91081,0.55824 0.29381,0.52885 0.29381,1.14585 0,0.67576 -0.32319,1.20461 -0.29381,0.52886 -0.88143,0.52886 h -4.28959 v 16.80582 q 0,0.61699 -0.617,0.94018 -0.58762,0.29381 -1.29276,0.29381 z m 9.52191,0.26443 q -1.55719,0 -2.70304,-0.94019 -1.11647,-0.96957 -1.11647,-2.96746 0,-1.67471 0.85205,-2.61489 0.88142,-0.94019 2.40922,-1.32214 1.55718,-0.38195 3.58446,-0.38195 h 1.20461 v -0.38195 q 0,-0.64638 -0.26443,-1.26337 -0.23504,-0.617 -0.79328,-1.02833 -0.52885,-0.41133 -1.5278,-0.41133 -1.11647,0 -1.73347,0.23504 -0.58761,0.20567 -0.9108,0.44072 -0.32319,0.23504 -0.70514,0.23504 -0.617,0 -0.96957,-0.61699 -0.32319,-0.617 -0.32319,-1.26338 0,-0.617 0.73452,-1.08709 0.76391,-0.49947 1.85099,-0.7639 1.08709,-0.26443 2.11542,-0.26443 2.2917,0 3.6726,0.82267 1.3809,0.82266 1.9979,2.11541 0.64637,1.29276 0.64637,2.79118 v 7.16892 q 0,0.52885 -0.52885,0.88142 -0.52885,0.35257 -1.32214,0.35257 -0.73452,0 -1.23399,-0.35257 -0.47009,-0.35257 -0.47009,-0.88142 v -0.82267 q -0.79328,0.91081 -1.88037,1.61595 -1.05771,0.70514 -2.58551,0.70514 z m 1.5278,-2.82056 q 0.61699,0 1.23399,-0.41133 0.617,-0.41133 1.02833,-1.05771 0.44071,-0.64638 0.44071,-1.35152 v -0.61699 h -0.44071 q -0.96957,0 -1.85099,0.11752 -0.88143,0.11752 -1.43966,0.52885 -0.52885,0.38195 -0.52885,1.20462 0,0.82266 0.44071,1.20461 0.47009,0.38195 1.11647,0.38195 z m 11.1941,-14.51412 q -0.85204,0 -1.46904,-0.55823 -0.61699,-0.58762 -0.61699,-1.29276 0,-0.7639 0.61699,-1.29275 0.617,-0.55824 1.46904,-0.55824 0.88143,0 1.46904,0.55824 0.58762,0.52885 0.58762,1.29275 0,0.70514 -0.58762,1.29276 -0.58761,0.55823 -1.46904,0.55823 z m 0,17.07025 q -0.82266,0 -1.35151,-0.38195 -0.52886,-0.38195 -0.52886,-0.85204 v -11.54666 q 0,-0.52885 0.52886,-0.85204 0.52885,-0.32319 1.35151,-0.32319 0.79328,0 1.35152,0.32319 0.55823,0.32319 0.55823,0.85204 v 11.54666 q 0,0.47009 -0.55823,0.85204 -0.55824,0.38195 -1.35152,0.38195 z m 10.31268,6.49316 q -1.73347,0 -3.23189,-0.49948 -1.46904,-0.47009 -2.37984,-1.41028 -0.88142,-0.94018 -0.88142,-2.23294 0,-1.11647 0.61699,-1.90975 0.617,-0.7639 1.5278,-1.20461 -0.55823,-0.26443 -0.9108,-0.70514 -0.32319,-0.47009 -0.32319,-1.17523 0,-0.82267 0.41133,-1.32214 0.44071,-0.52885 1.08709,-0.96957 -0.88142,-0.67575 -1.3809,-1.61594 -0.47009,-0.96957 -0.47009,-2.11542 v -0.61699 q 0,-1.43966 0.70514,-2.52675 0.73452,-1.08709 2.02727,-1.70409 1.32214,-0.617 3.02623,-0.617 0.96956,0 1.82161,0.23505 0.85204,0.20567 1.5278,0.617 0.49947,-1.17523 0.94018,-1.58657 0.44072,-0.41133 0.85205,-0.41133 0.70514,0 1.08709,0.41133 0.41133,0.41134 0.41133,0.7639 0,0.26443 -0.14691,0.4701 -0.11752,0.20566 -0.32318,0.35257 -0.29381,0.17628 -0.67576,0.44071 -0.38195,0.23505 -0.70514,0.67576 0.52885,0.58761 0.7639,1.32213 0.26443,0.70514 0.26443,1.55719 v 0.61699 q 0,1.41028 -0.73452,2.52675 -0.73452,1.08709 -2.05666,1.73347 -1.32214,0.64638 -3.02622,0.64638 -1.05771,0 -1.90975,-0.26443 -0.14691,0.11752 -0.26443,0.26443 -0.0881,0.1469 -0.0881,0.32319 0,0.49947 0.64637,0.70513 0.64638,0.20567 1.64533,0.32319 0.99895,0.11753 2.11542,0.32319 1.14585,0.17629 2.14479,0.58762 0.99895,0.41133 1.64533,1.23399 0.64638,0.79328 0.64638,2.1448 0,1.64533 -0.94019,2.64427 -0.9108,1.02833 -2.37984,1.49842 -1.43966,0.4701 -3.08499,0.4701 z m -0.0588,-2.43861 q 1.14585,0 1.93913,-0.55824 0.82267,-0.55823 0.82267,-1.49842 0,-0.61699 -0.35257,-0.99894 -0.35257,-0.38195 -0.96957,-0.58762 -0.58762,-0.17628 -1.29276,-0.29381 -0.70513,-0.0881 -1.41027,-0.17628 -0.70514,0.32319 -1.14586,0.82266 -0.44071,0.49947 -0.44071,1.20461 0,0.96957 0.82267,1.5278 0.85204,0.55824 2.02727,0.55824 z m -0.0588,-10.107 q 0.96957,0 1.5278,-0.73452 0.55824,-0.73452 0.55824,-1.88037 v -0.61699 q 0,-1.08709 -0.55824,-1.82161 -0.52885,-0.73452 -1.55718,-0.73452 -0.99895,0 -1.55718,0.73452 -0.52886,0.73452 -0.52886,1.82161 v 0.58761 q 0,1.11647 0.52886,1.88037 0.55823,0.7639 1.58656,0.7639 z m 11.45853,6.31688 q -1.55718,0 -2.70303,-0.94019 -1.11647,-0.96957 -1.11647,-2.96746 0,-1.67471 0.85204,-2.61489 0.88143,-0.94019 2.40923,-1.32214 1.55718,-0.38195 3.58446,-0.38195 h 1.20461 v -0.38195 q 0,-0.64638 -0.26443,-1.26337 -0.23505,-0.617 -0.79328,-1.02833 -0.52886,-0.41133 -1.5278,-0.41133 -1.11647,0 -1.73347,0.23504 -0.58762,0.20567 -0.9108,0.44072 -0.32319,0.23504 -0.70514,0.23504 -0.617,0 -0.96957,-0.61699 -0.32319,-0.617 -0.32319,-1.26338 0,-0.617 0.73452,-1.08709 0.7639,-0.49947 1.85099,-0.7639 1.08709,-0.26443 2.11542,-0.26443 2.2917,0 3.6726,0.82267 1.3809,0.82266 1.99789,2.11541 0.64638,1.29276 0.64638,2.79118 v 7.16892 q 0,0.52885 -0.52885,0.88142 -0.52886,0.35257 -1.32214,0.35257 -0.73452,0 -1.23399,-0.35257 -0.4701,-0.35257 -0.4701,-0.88142 v -0.82267 q -0.79328,0.91081 -1.88037,1.61595 -1.05771,0.70514 -2.58551,0.70514 z m 1.5278,-2.82056 q 0.617,0 1.234,-0.41133 0.61699,-0.41133 1.02833,-1.05771 0.44071,-0.64638 0.44071,-1.35152 v -0.61699 h -0.44071 q -0.96957,0 -1.85099,0.11752 -0.88143,0.11752 -1.43966,0.52885 -0.52886,0.38195 -0.52886,1.20462 0,0.82266 0.44071,1.20461 0.4701,0.38195 1.11647,0.38195 z"
     id="text5876"
     transform="matrix(0.99838614,0,0,0.99838614,-470.65552,-100.1572)"
     aria-label="Taiga" />
  <path
     style="font-size:16.0259px;line-height:1.25;font-family:Dosis;-inkscape-font-specification:Dosis;white-space:pre;fill:#000000"
     d="m 81.227292,259.01061 q -0.208337,0 -0.368596,-0.0962 -0.160259,-0.0961 -0.160259,-0.30449 v -10.89761 q 0,-0.20834 0.144233,-0.30449 0.160259,-0.11218 0.336544,-0.11218 h 5.673169 q 0.208336,0 0.304492,0.16026 0.09615,0.14423 0.09615,0.32051 0,0.19231 -0.112181,0.35257 -0.09616,0.14424 -0.288466,0.14424 h -5.096236 v 4.40712 h 2.532092 q 0.176285,0 0.27244,0.14423 0.112181,0.14424 0.112181,0.33655 0,0.16025 -0.09615,0.30449 -0.08013,0.14423 -0.288466,0.14423 h -2.532092 v 5.00008 q 0,0.20834 -0.176285,0.30449 -0.160259,0.0962 -0.35257,0.0962 z m 8.101105,0.11218 q -0.817321,0 -1.506435,-0.41667 -0.689113,-0.4327 -1.121813,-1.12182 -0.416673,-0.70514 -0.416673,-1.50643 v -1.7308 q 0,-0.81732 0.400647,-1.49041 0.416674,-0.68911 1.105787,-1.10578 0.70514,-0.41668 1.538487,-0.41668 0.817321,0 1.506434,0.41668 0.70514,0.40064 1.121813,1.07373 0.416674,0.67309 0.416674,1.52246 v 1.7308 q 0,0.78527 -0.416674,1.49041 -0.416673,0.70514 -1.121813,1.13784 -0.689113,0.41667 -1.506434,0.41667 z m 0,-0.96155 q 0.560906,0 1.009632,-0.28847 0.448725,-0.30449 0.721165,-0.78527 0.27244,-0.48078 0.27244,-1.00963 v -1.7308 q 0,-0.52885 -0.27244,-0.9936 -0.256414,-0.46475 -0.721165,-0.75322 -0.448726,-0.30449 -1.009632,-0.30449 -0.560907,0 -1.009632,0.30449 -0.448725,0.28847 -0.721165,0.75322 -0.272441,0.46475 -0.272441,0.9936 v 1.7308 q 0,0.52885 0.272441,1.00963 0.27244,0.48078 0.721165,0.78527 0.464751,0.28847 1.009632,0.28847 z m 5.416751,0.84937 q -0.208336,0 -0.368595,-0.12821 -0.144234,-0.12821 -0.144234,-0.28846 V 247.1835 q 0,-0.19232 0.144234,-0.28847 0.160259,-0.11218 0.368595,-0.11218 0.224363,0 0.368596,0.11218 0.160259,0.0962 0.160259,0.28847 v 11.41044 q 0,0.16025 -0.160259,0.28846 -0.144233,0.12821 -0.368596,0.12821 z m 3.333391,0 q -0.208336,0 -0.368595,-0.12821 -0.144233,-0.12821 -0.144233,-0.28846 V 247.1835 q 0,-0.19232 0.144233,-0.28847 0.160259,-0.11218 0.368595,-0.11218 0.224363,0 0.368596,0.11218 0.160259,0.0962 0.160259,0.28847 v 11.41044 q 0,0.16025 -0.160259,0.28846 -0.144233,0.12821 -0.368596,0.12821 z m 5.432781,0.11218 q -0.81732,0 -1.50643,-0.41667 -0.68912,-0.4327 -1.12182,-1.12182 -0.41667,-0.70514 -0.41667,-1.50643 v -1.7308 q 0,-0.81732 0.40065,-1.49041 0.41667,-0.68911 1.10579,-1.10578 0.70513,-0.41668 1.53848,-0.41668 0.81732,0 1.50644,0.41668 0.70514,0.40064 1.12181,1.07373 0.41667,0.67309 0.41667,1.52246 v 1.7308 q 0,0.78527 -0.41667,1.49041 -0.41667,0.70514 -1.12181,1.13784 -0.68912,0.41667 -1.50644,0.41667 z m 0,-0.96155 q 0.56091,0 1.00963,-0.28847 0.44873,-0.30449 0.72117,-0.78527 0.27244,-0.48078 0.27244,-1.00963 v -1.7308 q 0,-0.52885 -0.27244,-0.9936 -0.25642,-0.46475 -0.72117,-0.75322 -0.44872,-0.30449 -1.00963,-0.30449 -0.5609,0 -1.00963,0.30449 -0.44873,0.28847 -0.72117,0.75322 -0.27244,0.46475 -0.27244,0.9936 v 1.7308 q 0,0.52885 0.27244,1.00963 0.27244,0.48078 0.72117,0.78527 0.46475,0.28847 1.00963,0.28847 z m 7.00332,0.97758 q -0.16026,0 -0.27244,-0.0641 -0.0962,-0.0641 -0.17629,-0.25641 l -2.48401,-6.69883 q -0.032,-0.0641 -0.0481,-0.1282 -0.016,-0.0801 -0.016,-0.11219 0,-0.14423 0.0962,-0.24038 0.0961,-0.11219 0.24039,-0.17629 0.14423,-0.0641 0.28846,-0.0641 0.11218,0 0.22437,0.0641 0.11218,0.0641 0.14423,0.17629 l 2.05131,5.70522 1.63465,-5.20842 q 0.0481,-0.14423 0.16026,-0.20834 0.11218,-0.0641 0.27244,-0.0641 0.14423,0 0.25641,0.0641 0.11218,0.0641 0.16026,0.20834 l 1.58656,5.27252 2.08337,-5.76932 q 0.0801,-0.24039 0.3686,-0.24039 0.1282,0 0.27244,0.0641 0.16025,0.0641 0.25641,0.16026 0.0962,0.0961 0.0962,0.24039 0,0.0641 -0.0321,0.14423 -0.016,0.0641 -0.0321,0.11218 l -2.50004,6.76293 q -0.0481,0.14424 -0.17628,0.19231 -0.11218,0.0641 -0.24039,0.0641 -0.16026,0 -0.27244,-0.0641 -0.11218,-0.0641 -0.16026,-0.17628 l -1.66669,-5.20842 -1.65067,5.12829 q -0.0481,0.16026 -0.17629,0.24039 -0.1282,0.0801 -0.28846,0.0801 z m 14.39127,-0.016 q -0.81732,0 -1.50643,-0.41667 -0.68911,-0.4327 -1.12181,-1.12182 -0.41668,-0.70514 -0.41668,-1.50643 v -1.7308 q 0,-0.81732 0.40065,-1.49041 0.41667,-0.68911 1.10579,-1.10578 0.70514,-0.41668 1.53848,-0.41668 0.81732,0 1.50644,0.41668 0.70514,0.40064 1.12181,1.07373 0.41667,0.67309 0.41667,1.52246 v 1.7308 q 0,0.78527 -0.41667,1.49041 -0.41667,0.70514 -1.12181,1.13784 -0.68912,0.41667 -1.50644,0.41667 z m 0,-0.96155 q 0.56091,0 1.00964,-0.28847 0.44872,-0.30449 0.72116,-0.78527 0.27244,-0.48078 0.27244,-1.00963 v -1.7308 q 0,-0.52885 -0.27244,-0.9936 -0.25641,-0.46475 -0.72116,-0.75322 -0.44873,-0.30449 -1.00964,-0.30449 -0.5609,0 -1.00963,0.30449 -0.44872,0.28847 -0.72116,0.75322 -0.27244,0.46475 -0.27244,0.9936 v 1.7308 q 0,0.52885 0.27244,1.00963 0.27244,0.48078 0.72116,0.78527 0.46475,0.28847 1.00963,0.28847 z m 5.27252,0.84937 q -0.20834,0 -0.36859,-0.12821 -0.14424,-0.12821 -0.14424,-0.28846 v -6.76293 q 0,-0.19231 0.14424,-0.28847 0.16025,-0.11218 0.36859,-0.11218 0.20834,0 0.35257,0.11218 0.14423,0.0962 0.14423,0.28847 v 0.72116 q 0.25642,-0.46475 0.8013,-0.83335 0.54488,-0.38462 1.34618,-0.38462 0.76924,0 1.41027,0.41668 0.65707,0.40064 1.04169,1.08976 0.38462,0.67309 0.38462,1.50643 v 4.24687 q 0,0.20833 -0.16026,0.32051 -0.16026,0.0962 -0.3686,0.0962 -0.17628,0 -0.35257,-0.0962 -0.16025,-0.11218 -0.16025,-0.32051 v -4.24687 q 0,-0.52885 -0.27244,-0.9936 -0.27244,-0.46475 -0.72117,-0.75322 -0.44873,-0.30449 -0.99361,-0.30449 -0.48077,0 -0.9295,0.25641 -0.4327,0.24039 -0.72116,0.68912 -0.27244,0.44872 -0.27244,1.10578 v 4.24687 q 0,0.16025 -0.16026,0.28846 -0.14424,0.12821 -0.3686,0.12821 z"
     id="text5295"
     transform="matrix(0.99838614,0,0,0.99838614,-4.8322467,-228.89656)"
     aria-label="Follow on" />
  <style
     id="style1">
        #logo-svg path {}
    </style>
  <style
     class="darkreader darkreader--sync"
     media="screen"
     id="style2" />
  <style
     id="style1-7">
        #logo-svg path {}
    </style>
  <style
     class="darkreader darkreader--sync"
     media="screen"
     id="style2-5" />
  <g
     id="g2"
     transform="matrix(1.2972973,0,0,1.2972973,-203.24324,14.702703)"
     style="stroke-width:0.77083333;stroke-dasharray:none;stroke:none;stroke-opacity:1;fill:#000000;fill-opacity:1">
    <path
       fill-rule="evenodd"
       clip-rule="evenodd"
       d="m 186.3221,1 4.7454,6.27912 7.8473,-0.60983 -0.7518,7.93371 5.837,4.8558 -5.8383,4.5036 0.7523,8.6367 -7.8549,-1.2209 -4.7375,6.6218 -4.3132,-6.6199 -8.00853,1.2189 0.91973,-8.6389 -5.9196,-4.5012 5.918,-4.8528 -0.91927,-7.93686 8.00237,0.60892 z m 0.0514,2.38866 -3.7038,5.38133 -7.10321,-0.54051 0.81157,7.00702 -5.09648,4.1792 5.09488,3.874 -0.81111,7.6187 7.09705,-1.0802 3.7116,5.6965 4.0741,-5.6945 6.936,1.0781 -0.6639,-7.621 5.0189,-3.8715 -5.0202,-4.1762 0.6644,-7.01017 -6.9436,0.53959 z"
       id="path2-3"
       style="fill:#000000;fill-opacity:1;stroke-width:0.77083333;stroke-dasharray:none;stroke:none;stroke-opacity:1" />
    <path
       fill-rule="evenodd"
       clip-rule="evenodd"
       d="m 189.0083,19.4784 -2.5031,-2.6124 -2.5032,2.6124 2.5032,2.6124 z m -2.5031,-4.6449 -4.4506,4.6449 4.4506,4.6448 4.4505,-4.6448 z"
       id="path3"
       style="fill:#000000;fill-opacity:1;stroke-width:0.77083333;stroke-dasharray:none;stroke:none;stroke-opacity:1" />
    <path
       fill-rule="evenodd"
       clip-rule="evenodd"
       d="m 178.07437,12.0381 6.32983,5.0207 -0.8332,1.1442 -5.47145,-4.3398 -2.0193,1.6995 -0.86443,-1.1186 z"
       id="path4"
       style="fill:#000000;fill-opacity:1;stroke-width:0.77083333;stroke-dasharray:none;stroke:none;stroke-opacity:1" />
    <path
       fill-rule="evenodd"
       clip-rule="evenodd"
       d="m 191.2111,7.65541 2.638,3.41759 -3.9177,4.8383 4.9163,-3.9522 2.9385,2.3959 -0.8478,1.1325 -2.0967,-1.7095 -5.3988,4.3401 -0.6191,-0.8389 -0.0619,0.0764 -1.0518,-0.9276 4.3538,-5.3769 -1.9251,-2.49413 z m -10.2677,3.39959 1.9282,-2.49803 -1.0724,-0.90156 -2.635,3.41369 5.0019,6.282 1.0591,-0.9185 z"
       id="path5"
       style="fill:#000000;fill-opacity:1;stroke-width:0.77083333;stroke-dasharray:none;stroke:none;stroke-opacity:1" />
    <path
       fill-rule="evenodd"
       clip-rule="evenodd"
       d="m 194.936,26.6926 -6.3299,-5.0207 0.8333,-1.1441 5.4714,4.3398 2.0193,-1.6996 0.8644,1.1187 z"
       id="path6"
       style="fill:#000000;fill-opacity:1;stroke-width:0.77083333;stroke-dasharray:none;stroke:none;stroke-opacity:1" />
    <path
       fill-rule="evenodd"
       clip-rule="evenodd"
       d="m 181.7992,31.0753 -2.6379,-3.4176 3.9176,-4.8383 -4.91625,3.9522 -2.93849,-2.3959 0.84776,-1.1325 2.0967,1.7096 5.39878,-4.3401 0.6191,0.8388 0.0619,-0.0764 1.0518,0.9276 -4.3538,5.3769 1.9252,2.4942 z m 10.2677,-3.3996 -1.9281,2.4981 1.0723,0.9015 2.635,-3.4137 -5.0019,-6.282 -1.059,0.9185 z"
       id="path7"
       style="fill:#000000;fill-opacity:1;stroke-width:0.77083333;stroke-dasharray:none;stroke:none;stroke-opacity:1" />
    <path
       fill-rule="evenodd"
       clip-rule="evenodd"
       d="m 187.4723,31.0493 -1.0415,-7.9212 1.3642,-0.1954 0.8946,6.8039 2.579,0.28 -0.1425,1.4294 z"
       id="path8"
       style="fill:#000000;fill-opacity:1;stroke-width:0.77083333;stroke-dasharray:none;stroke:none;stroke-opacity:1" />
    <path
       fill-rule="evenodd"
       clip-rule="evenodd"
       d="m 184.6846,29.636 -3.0542,0.3532 0.1516,1.4284 4.1754,-0.4828 0.6512,-7.7171 -1.3717,-0.1261 z m -9.71419,-5.378 0.59923,-4.1309 6.66716,-0.6179 -6.80122,-0.7304 -0.46753,-3.8748 1.36624,-0.1795 0.3308,2.7416 6.41241,0.6886 -0.127,1.2883 0.1742,-0.0161 0.1218,1.4315 -6.47731,0.6003 -0.43727,3.0145 z"
       id="path9"
       style="fill:#000000;fill-opacity:1;stroke-width:0.77083333;stroke-dasharray:none;stroke:none;stroke-opacity:1" />
    <path
       fill-rule="evenodd"
       clip-rule="evenodd"
       d="m 198.1417,14.3798 -0.6028,4.2177 -6.2329,0.5718 6.2471,0.7906 0.4725,3.8624 -1.3659,0.182 -0.3368,-2.7524 -6.3168,-0.7995 0.1367,-1.1764 -0.5527,0.0507 -0.1206,-1.4316 6.8676,-0.63 0.4426,-3.0973 z m -9.8577,-5.27179 3.0543,-0.35877 -0.1541,-1.42812 -4.1739,0.49029 -0.6819,8.13679 1.3718,0.1252 z"
       id="path10"
       style="fill:#000000;fill-opacity:1;stroke-width:0.77083333;stroke-dasharray:none;stroke:none;stroke-opacity:1" />
    <path
       fill-rule="evenodd"
       clip-rule="evenodd"
       d="m 181.4835,7.246 4.2075,0.23423 0.9725,8.19767 -1.3665,0.1766 -0.8309,-7.00328 -3.056,-0.17013 z"
       id="path11"
       style="fill:#000000;fill-opacity:1;stroke-width:0.77083333;stroke-dasharray:none;stroke:none;stroke-opacity:1" />
  </g>
</svg>
