<?xml version="1.0" encoding="UTF-8" standalone="no"?>
<svg
   width="260"
   height="80"
   viewBox="0 0 260 80"
   fill="none"
   version="1.1"
   id="svg4"
   inkscape:version="1.4.1 (93de688d07, 2025-03-30)"
   sodipodi:docname="get_fdroid.svg"
   xmlns:inkscape="http://www.inkscape.org/namespaces/inkscape"
   xmlns:sodipodi="http://sodipodi.sourceforge.net/DTD/sodipodi-0.dtd"
   xmlns="http://www.w3.org/2000/svg"
   xmlns:svg="http://www.w3.org/2000/svg">
  <defs
     id="defs4">
    <rect
       x="78.55587"
       y="21.772038"
       width="163.5845"
       height="37.65974"
       id="rect5" />
    <rect
       x="82.674904"
       y="15.593487"
       width="160.64233"
       height="54.13588"
       id="rect4" />
    <rect
       x="545.27075"
       y="129.38628"
       width="170.53992"
       height="37.730087"
       id="rect5878" />
    <rect
       x="79.480141"
       y="243.98555"
       width="98.107262"
       height="19.632467"
       id="rect5297" />
  </defs>
  <sodipodi:namedview
     inkscape:zoom="6.7977099"
     inkscape:cx="56.636721"
     inkscape:cy="41.558113"
     inkscape:window-width="1920"
     inkscape:window-height="1051"
     inkscape:window-x="0"
     inkscape:window-y="0"
     inkscape:window-maximized="1"
     inkscape:current-layer="svg4"
     pagecolor="#b0b0b0"
     id="namedview1"
     bordercolor="#eeeeee"
     borderopacity="1"
     inkscape:showpageshadow="0"
     inkscape:pageopacity="0"
     inkscape:pagecheckerboard="0"
     inkscape:deskcolor="#505050" />
  <rect
     width="260"
     height="80"
     rx="39.694656"
     fill="#1D5128"
     id="rect"
     style="fill:#a3e889;fill-opacity:1;stroke-width:1.99236"
     x="0"
     y="0" />
  <g
     id="g5"
     transform="matrix(2.5041405,0,0,2.5041462,-11.823012,-11.437342)"
     style="stroke-width:0.691938;stroke-dasharray:none">
    <g
       id="g1"
       transform="translate(0.3833401,0.51114024)"
       style="stroke-width:0.691938;stroke-dasharray:none">
      <path
         fill-rule="evenodd"
         clip-rule="evenodd"
         d="m 11.871378,10.927641 c -0.182752,-0.185994 -0.479052,-0.185994 -0.661806,0 -0.182752,0.185995 -0.182752,0.487548 0,0.673543 l 1.639686,1.668763 c -0.06354,0.152389 -0.09868,0.320018 -0.09868,0.496047 v 2.540117 c 0,0.701384 0.558625,1.270011 1.24788,1.270011 h 11.8552 c 0.689256,0 1.247976,-0.568627 1.247976,-1.270011 v -2.540117 c 0,-0.175443 -0.03493,-0.342583 -0.09819,-0.494583 l 1.64122,-1.670227 c 0.182753,-0.185995 0.182753,-0.487548 0,-0.673543 -0.182753,-0.185994 -0.479149,-0.185994 -0.661902,0 l -1.64026,1.669447 c -0.150118,-0.06515 -0.315306,-0.101104 -0.488843,-0.101104 H 13.998467 c -0.172961,0 -0.337668,0.03575 -0.487403,0.100421 z m 5.55888,4.108363 c 0,0.70148 -0.558719,1.270107 -1.247976,1.270107 -0.689161,0 -1.247882,-0.568627 -1.247882,-1.270107 0,-0.701382 0.558721,-1.27001 1.247882,-1.27001 0.689257,0 1.247976,0.568628 1.247976,1.27001 z m 7.487473,0 c 0,0.70148 -0.558719,1.270107 -1.247881,1.270107 -0.689256,0 -1.247976,-0.568627 -1.247976,-1.270107 0,-0.701382 0.55872,-1.27001 1.247976,-1.27001 0.689162,0 1.247881,0.568628 1.247881,1.27001 z"
         fill="#B7F1BA"
         id="path1"
         style="fill:none;fill-opacity:1;stroke:#000000;stroke-width:0.691938;stroke-dasharray:none;stroke-opacity:1" />
      <path
         fill-rule="evenodd"
         clip-rule="evenodd"
         d="m 19.95365,26.766862 c 1.390708,0 2.518129,-1.147415 2.518129,-2.562787 0,-1.415259 -1.127421,-2.562672 -2.518129,-2.562672 -1.140699,0 -2.104215,0.771887 -2.413765,1.830546 h 1.167371 c 0.248793,-0.437701 0.713838,-0.732242 1.246394,-0.732242 0.794738,0 1.438961,0.655648 1.438961,1.464368 0,0.808835 -0.644223,1.464481 -1.438961,1.464481 -0.532556,0 -0.997601,-0.294538 -1.246394,-0.73224 h -1.167371 c 0.30955,1.058543 1.273066,1.830546 2.413765,1.830546 z"
         fill="#B7F1BA"
         id="path2"
         style="fill:#000000;fill-opacity:1;stroke-width:0.691938;stroke-dasharray:none"
         sodipodi:nodetypes="sssccsssccs" />
      <path
         fill-rule="evenodd"
         clip-rule="evenodd"
         d="M 12.750586,27.997855 V 20.3775 c 0,-0.701382 0.558625,-1.27001 1.24788,-1.27001 h 11.8552 c 0.689256,0 1.247976,0.568628 1.247976,1.27001 v 7.620355 c 0,0.701383 -0.55872,1.270011 -1.247976,1.270011 h -11.8552 c -0.689255,0 -1.24788,-0.568628 -1.24788,-1.270011 z m 10.920225,-3.810227 c 0,2.104343 -1.676062,3.810227 -3.743737,3.810227 -2.067578,0 -3.743737,-1.705884 -3.743737,-3.810227 0,-2.104244 1.676159,-3.810128 3.743737,-3.810128 2.067675,0 3.743737,1.705884 3.743737,3.810128 z"
         fill="#B7F1BA"
         id="path3"
         style="fill:none;fill-opacity:1;stroke:#000000;stroke-width:0.691938;stroke-dasharray:none;stroke-opacity:1" />
    </g>
  </g>
  <path
     style="font-weight:bold;font-size:29.3808px;line-height:1.25;font-family:Dosis;-inkscape-font-specification:'Dosis Bold';white-space:pre;fill:#000000"
     d="m 548.94408,156.93122 q -0.70513,0 -1.32213,-0.29381 -0.58762,-0.32319 -0.58762,-0.9108 v -19.03876 q 0,-0.617 0.52886,-0.91081 0.52885,-0.32319 1.14585,-0.32319 h 10.2539 q 0.64637,0 0.9108,0.52886 0.29381,0.52885 0.29381,1.11647 0,0.70514 -0.32319,1.20461 -0.29381,0.49948 -0.88142,0.49948 h -8.1091 v 5.87616 h 4.49526 q 0.58761,0 0.88142,0.47009 0.32319,0.44071 0.32319,1.05771 0,0.49947 -0.29381,0.99894 -0.26442,0.4701 -0.9108,0.4701 h -4.49526 v 8.05034 q 0,0.58761 -0.58762,0.9108 -0.58762,0.29381 -1.32214,0.29381 z m 12.03688,-5.49421 q -0.52886,0 -0.88143,-0.44071 -0.32319,-0.44071 -0.32319,-1.11647 0,-0.67576 0.32319,-1.11647 0.35257,-0.4701 0.88143,-0.4701 h 7.639 q 0.44072,0 0.82267,0.4701 0.38195,0.44071 0.38195,1.11647 0,0.67576 -0.38195,1.11647 -0.38195,0.44071 -0.82267,0.44071 z m 13.2801,5.49421 q -0.76391,0 -1.234,-0.35257 -0.44071,-0.35257 -0.44071,-0.85204 v -19.06814 q 0,-0.49948 0.44071,-0.85205 0.47009,-0.35257 1.234,-0.35257 h 5.2004 q 1.96851,0 3.52569,0.67576 1.55719,0.64638 2.46799,2.1448 0.94019,1.46904 0.94019,3.93703 v 7.96219 q 0,2.46799 -0.94019,3.96641 -0.9108,1.46904 -2.46799,2.1448 -1.55718,0.64638 -3.52569,0.64638 z m 2.14479,-3.34941 h 3.05561 q 1.46904,0 2.2917,-0.82266 0.82266,-0.85205 0.82266,-2.58552 v -7.96219 q 0,-1.73347 -0.82266,-2.55613 -0.82266,-0.85204 -2.26232,-0.85204 h -3.08499 z m 14.76336,3.34941 q -0.79328,0 -1.32214,-0.38195 -0.52885,-0.38195 -0.52885,-0.85204 v -11.54666 q 0,-0.52885 0.52885,-0.85204 0.52886,-0.32319 1.32214,-0.32319 0.73452,0 1.20461,0.32319 0.49948,0.32319 0.49948,0.85204 v 1.20461 q 0.32318,-0.64637 0.85204,-1.20461 0.55823,-0.58762 1.26337,-0.96957 0.70514,-0.38195 1.49842,-0.38195 h 0.91081 q 0.55823,0 0.96956,0.49948 0.41134,0.47009 0.41134,1.14585 0,0.70514 -0.41134,1.20461 -0.41133,0.47009 -0.96956,0.47009 h -0.91081 q -0.82266,0 -1.61594,0.55824 -0.7639,0.52885 -1.26337,1.49842 -0.49948,0.94019 -0.49948,2.2917 v 5.22979 q 0,0.47009 -0.55823,0.85204 -0.55824,0.38195 -1.3809,0.38195 z m 14.65761,0.26443 q -1.70409,0 -3.14375,-0.82267 -1.43966,-0.85204 -2.32108,-2.23294 -0.88143,-1.38089 -0.88143,-2.96746 v -2.40922 q 0,-1.58657 0.85205,-2.93808 0.85204,-1.3809 2.2917,-2.20356 1.46904,-0.82267 3.20251,-0.82267 1.73346,0 3.17312,0.82267 1.46904,0.79328 2.32109,2.14479 0.88142,1.35152 0.88142,2.99685 v 2.40922 q 0,1.55718 -0.88142,2.93808 -0.88143,1.3809 -2.35047,2.23294 -1.43966,0.85205 -3.14374,0.85205 z m 0,-3.32003 q 0.70514,0 1.29275,-0.38195 0.58762,-0.38196 0.94019,-0.99895 0.35257,-0.64638 0.35257,-1.32214 v -2.40922 q 0,-0.67576 -0.35257,-1.26338 -0.35257,-0.58761 -0.94019,-0.96956 -0.55823,-0.41134 -1.29275,-0.41134 -0.70514,0 -1.29276,0.38195 -0.58761,0.38196 -0.94018,0.99895 -0.32319,0.58762 -0.32319,1.26338 v 2.40922 q 0,0.67576 0.32319,1.32214 0.35257,0.61699 0.94018,0.99895 0.58762,0.38195 1.29276,0.38195 z m 10.66522,-14.01465 q -0.85204,0 -1.46904,-0.55823 -0.61699,-0.58762 -0.61699,-1.29276 0,-0.7639 0.61699,-1.29275 0.617,-0.55824 1.46904,-0.55824 0.88143,0 1.46904,0.55824 0.58762,0.52885 0.58762,1.29275 0,0.70514 -0.58762,1.29276 -0.58761,0.55823 -1.46904,0.55823 z m 0,17.07025 q -0.82266,0 -1.35151,-0.38195 -0.52886,-0.38195 -0.52886,-0.85204 v -11.54666 q 0,-0.52885 0.52886,-0.85204 0.52885,-0.32319 1.35151,-0.32319 0.79328,0 1.35152,0.32319 0.55823,0.32319 0.55823,0.85204 v 11.54666 q 0,0.47009 -0.55823,0.85204 -0.55824,0.38195 -1.35152,0.38195 z m 9.46064,0.26443 q -1.3809,0 -2.55613,-0.85205 -1.17524,-0.85204 -1.88038,-2.23294 -0.70513,-1.3809 -0.70513,-2.93808 v -2.40922 q 0,-1.64533 0.70513,-2.99685 0.70514,-1.35151 1.88038,-2.14479 1.17523,-0.82267 2.61489,-0.82267 1.38089,0 2.35046,0.70514 0.96957,0.67576 1.43966,1.5278 v -9.0199 q 0,-0.52886 0.55824,-0.85204 0.55823,-0.32319 1.38089,-0.32319 0.79328,0 1.32214,0.32319 0.52885,0.32318 0.52885,0.85204 v 19.68514 q 0,0.47009 -0.52885,0.85204 -0.52886,0.38195 -1.32214,0.38195 -0.70514,0 -1.20461,-0.38195 -0.49947,-0.38195 -0.49947,-0.85204 v -0.82267 q -0.44072,0.91081 -1.58657,1.61595 -1.11647,0.70514 -2.49736,0.70514 z m 1.20461,-3.32003 q 0.7639,0 1.35151,-0.41134 0.58762,-0.44071 0.94019,-0.94018 0.35257,-0.52886 0.35257,-0.82266 v -2.93808 q 0,-0.82267 -0.41133,-1.41028 -0.38195,-0.58762 -0.99895,-0.91081 -0.58761,-0.32319 -1.20461,-0.32319 -0.70514,0 -1.32214,0.41134 -0.58761,0.38195 -0.94018,0.96956 -0.32319,0.58762 -0.32319,1.26338 v 2.40922 q 0,0.67576 0.32319,1.29276 0.35257,0.61699 0.94018,1.02833 0.58762,0.38195 1.29276,0.38195 z"
     id="text5876"
     transform="matrix(0.99838614,0,0,0.99838614,-472.15148,-99.619225)"
     aria-label="F-Droid" />
  <path
     style="font-size:16.0259px;line-height:1.25;font-family:Dosis;-inkscape-font-specification:Dosis;white-space:pre;fill:#000000"
     d="m 83.903617,259.10676 q -0.929502,0 -1.682719,-0.33654 -0.753218,-0.33654 -1.201943,-1.08976 -0.448725,-0.75322 -0.448725,-2.00324 v -4.952 q 0,-1.25002 0.448725,-2.00324 0.448725,-0.75322 1.185917,-1.08976 0.753217,-0.33654 1.682719,-0.33654 1.025658,0 1.778875,0.36859 0.753217,0.35257 1.169891,0.97758 0.416673,0.62501 0.416673,1.44233 0,0.28847 -0.144233,0.41668 -0.144233,0.11218 -0.384622,0.11218 -0.224362,0 -0.384621,-0.0962 -0.144233,-0.0961 -0.160259,-0.30449 -0.0641,-0.60898 -0.336544,-1.04168 -0.27244,-0.4327 -0.753217,-0.65707 -0.480777,-0.24038 -1.185917,-0.24038 -1.073735,0 -1.666693,0.60898 -0.592959,0.59296 -0.592959,1.84298 v 4.952 q 0,1.25002 0.592959,1.85901 0.592958,0.59295 1.666693,0.59295 1.073735,0 1.666694,-0.59295 0.608984,-0.60899 0.608984,-1.85901 v -1.90708 H 84.04785 q -0.192311,0 -0.304492,-0.12821 -0.09615,-0.14423 -0.09615,-0.32052 0,-0.17628 0.09615,-0.32051 0.112181,-0.14424 0.304492,-0.14424 h 2.804533 q 0.19231,0 0.288466,0.12821 0.112181,0.12821 0.112181,0.30449 v 2.38786 q 0,1.25002 -0.448725,2.00324 -0.448725,0.75322 -1.201942,1.08976 -0.753218,0.33654 -1.698746,0.33654 z m 8.429621,0.016 q -1.009632,0 -1.794901,-0.38462 -0.769243,-0.38462 -1.217968,-1.05771 -0.4327,-0.68911 -0.4327,-1.60259 v -1.77888 q 0,-0.80129 0.416674,-1.47438 0.416673,-0.68911 1.105787,-1.08976 0.705139,-0.40065 1.538486,-0.40065 0.801295,0 1.474383,0.38462 0.689114,0.3686 1.105787,1.02566 0.416674,0.65706 0.416674,1.52246 0,0.60899 -0.208337,0.88143 -0.208337,0.27244 -0.528855,0.33654 -0.304492,0.0481 -0.657062,0.0481 h -3.621853 v 0.59296 q 0,0.96155 0.689114,1.52246 0.689113,0.5609 1.746823,0.5609 0.641036,0 0.993605,-0.16025 0.35257,-0.16026 0.544881,-0.32052 0.208337,-0.16026 0.384622,-0.16026 0.128207,0 0.224362,0.0961 0.112182,0.0801 0.160259,0.19231 0.0641,0.11219 0.0641,0.20834 0,0.17629 -0.288466,0.4327 -0.288467,0.25641 -0.833347,0.44873 -0.544881,0.17628 -1.282072,0.17628 z m -2.403885,-4.35904 h 3.20518 q 0.480777,0 0.641036,-0.0962 0.160259,-0.11218 0.160259,-0.44872 0,-0.51283 -0.256415,-0.96156 -0.256414,-0.46475 -0.705139,-0.75322 -0.448725,-0.30449 -1.041684,-0.30449 -0.54488,0 -1.009631,0.27244 -0.448726,0.27244 -0.721166,0.70514 -0.27244,0.4327 -0.27244,0.97758 z m 9.086688,4.24686 q -1.233995,0 -1.891056,-0.56091 -0.657062,-0.5609 -0.657062,-1.7949 v -8.42962 q 0,-0.19231 0.160259,-0.28847 0.176285,-0.11218 0.352569,-0.11218 0.208337,0 0.368596,0.11218 0.160259,0.0962 0.160259,0.28847 v 3.20518 h 2.083367 q 0.160259,0 0.256415,0.12821 0.09615,0.1282 0.09615,0.30449 0,0.17628 -0.09615,0.30449 -0.09616,0.12821 -0.256415,0.12821 h -2.083367 v 4.35904 q 0,0.78527 0.336544,1.10579 0.336544,0.30449 1.169891,0.30449 h 0.448725 q 0.224363,0 0.336544,0.14423 0.128207,0.12821 0.128207,0.32052 0,0.19231 -0.128207,0.33655 -0.112181,0.14423 -0.336544,0.14423 z m 5.945619,-9.82388 q -0.28846,0 -0.51283,-0.19231 -0.20833,-0.20833 -0.20833,-0.48078 0,-0.27244 0.20833,-0.46475 0.22437,-0.19231 0.51283,-0.19231 0.28847,0 0.49681,0.19231 0.20833,0.19231 0.20833,0.46475 0,0.27245 -0.20833,0.48078 -0.20834,0.19231 -0.49681,0.19231 z m -0.016,9.82388 q -0.20834,0 -0.3686,-0.12821 -0.14423,-0.12821 -0.14423,-0.28846 v -6.76293 q 0,-0.19231 0.14423,-0.28847 0.16026,-0.11218 0.3686,-0.11218 0.22436,0 0.36859,0.11218 0.16026,0.0962 0.16026,0.28847 v 6.76293 q 0,0.16025 -0.16026,0.28846 -0.14423,0.12821 -0.36859,0.12821 z m 5.03212,0 q -1.234,0 -1.89106,-0.56091 -0.65706,-0.5609 -0.65706,-1.7949 v -8.42962 q 0,-0.19231 0.16026,-0.28847 0.17628,-0.11218 0.35257,-0.11218 0.20833,0 0.36859,0.11218 0.16026,0.0962 0.16026,0.28847 v 3.20518 h 2.08337 q 0.16026,0 0.25641,0.12821 0.0962,0.1282 0.0962,0.30449 0,0.17628 -0.0962,0.30449 -0.0961,0.12821 -0.25641,0.12821 h -2.08337 v 4.35904 q 0,0.78527 0.33655,1.10579 0.33654,0.30449 1.16989,0.30449 h 0.44872 q 0.22436,0 0.33655,0.14423 0.1282,0.12821 0.1282,0.32052 0,0.19231 -0.1282,0.33655 -0.11219,0.14423 -0.33655,0.14423 z m 8.17322,0.11218 q -0.81732,0 -1.50644,-0.41667 -0.68911,-0.4327 -1.12181,-1.12182 -0.41667,-0.70514 -0.41667,-1.50643 v -1.7308 q 0,-0.81732 0.40064,-1.49041 0.41668,-0.68911 1.10579,-1.10578 0.70514,-0.41668 1.53849,-0.41668 0.81732,0 1.50643,0.41668 0.70514,0.40064 1.12182,1.07373 0.41667,0.67309 0.41667,1.52246 v 1.7308 q 0,0.78527 -0.41667,1.49041 -0.41668,0.70514 -1.12182,1.13784 -0.68911,0.41667 -1.50643,0.41667 z m 0,-0.96155 q 0.5609,0 1.00963,-0.28847 0.44872,-0.30449 0.72116,-0.78527 0.27245,-0.48078 0.27245,-1.00963 v -1.7308 q 0,-0.52885 -0.27245,-0.9936 -0.25641,-0.46475 -0.72116,-0.75322 -0.44873,-0.30449 -1.00963,-0.30449 -0.56091,0 -1.00963,0.30449 -0.44873,0.28847 -0.72117,0.75322 -0.27244,0.46475 -0.27244,0.9936 v 1.7308 q 0,0.52885 0.27244,1.00963 0.27244,0.48078 0.72117,0.78527 0.46475,0.28847 1.00963,0.28847 z m 5.27252,0.84937 q -0.20834,0 -0.3686,-0.12821 -0.14423,-0.12821 -0.14423,-0.28846 v -6.76293 q 0,-0.19231 0.14423,-0.28847 0.16026,-0.11218 0.3686,-0.11218 0.20834,0 0.35257,0.11218 0.14423,0.0962 0.14423,0.28847 v 0.72116 q 0.25642,-0.46475 0.8013,-0.83335 0.54488,-0.38462 1.34617,-0.38462 0.76925,0 1.41028,0.41668 0.65706,0.40064 1.04169,1.08976 0.38462,0.67309 0.38462,1.50643 v 4.24687 q 0,0.20833 -0.16026,0.32051 -0.16026,0.0962 -0.3686,0.0962 -0.17628,0 -0.35257,-0.0962 -0.16026,-0.11218 -0.16026,-0.32051 v -4.24687 q 0,-0.52885 -0.27244,-0.9936 -0.27244,-0.46475 -0.72116,-0.75322 -0.44873,-0.30449 -0.99361,-0.30449 -0.48078,0 -0.9295,0.25641 -0.4327,0.24039 -0.72117,0.68912 -0.27244,0.44872 -0.27244,1.10578 v 4.24687 q 0,0.16025 -0.16026,0.28846 -0.14423,0.12821 -0.36859,0.12821 z"
     id="text5295"
     transform="matrix(0.99838614,0,0,0.99838614,-6.3282138,-228.35859)"
     aria-label="Get it on" />
</svg>
