<?xml version="1.0" encoding="UTF-8" standalone="no"?>
<svg
   width="260"
   height="80"
   viewBox="0 0 260 80"
   fill="none"
   version="1.1"
   id="svg4"
   sodipodi:docname="get_codeberg_mc.svg"
   inkscape:version="1.4.2 (ebf0e940d0, 2025-05-08)"
   xmlns:inkscape="http://www.inkscape.org/namespaces/inkscape"
   xmlns:sodipodi="http://sodipodi.sourceforge.net/DTD/sodipodi-0.dtd"
   xmlns="http://www.w3.org/2000/svg"
   xmlns:svg="http://www.w3.org/2000/svg">
  <defs
     id="defs4">
    <rect
       x="78.55587"
       y="21.772038"
       width="163.5845"
       height="37.65974"
       id="rect5" />
    <rect
       x="82.674904"
       y="15.593487"
       width="160.64233"
       height="54.13588"
       id="rect4" />
    <rect
       x="545.27075"
       y="129.38628"
       width="170.53992"
       height="37.730087"
       id="rect5878" />
    <rect
       x="79.480141"
       y="243.98555"
       width="98.107262"
       height="19.632467"
       id="rect5297" />
    <rect
       x="545.27075"
       y="129.38628"
       width="132.63116"
       height="41.711376"
       id="rect5878-3" />
    <rect
       x="79.480141"
       y="243.98555"
       width="97.836517"
       height="25.859533"
       id="rect5297-6" />
  </defs>
  <sodipodi:namedview
     inkscape:zoom="3.3804442"
     inkscape:cx="99.691041"
     inkscape:cy="38.900213"
     inkscape:window-width="1920"
     inkscape:window-height="1051"
     inkscape:window-x="0"
     inkscape:window-y="0"
     inkscape:window-maximized="1"
     inkscape:current-layer="svg4"
     pagecolor="#b0b0b0"
     id="namedview1"
     bordercolor="#eeeeee"
     borderopacity="1"
     inkscape:showpageshadow="0"
     inkscape:pageopacity="0"
     inkscape:pagecheckerboard="0"
     inkscape:deskcolor="#505050" />
  <rect
     width="260"
     height="80"
     rx="39.694656"
     fill="#1D5128"
     id="rect"
     style="fill:#6cb3e8;fill-opacity:1;stroke-width:1.99236"
     x="0"
     y="0" />
  <g
     id="g1"
     transform="matrix(2.0868332,0,0,2.0868332,-26.582264,-22.6029)"
     style="stroke:#000000;stroke-opacity:1">
    <path
       fill="#aaaaaa"
       d="m 31.916901,18.998316 a 11,11 0 0 0 -11,11 11,11 0 0 0 1.7,6.4 l 9.3,-12.4 9.3,12.4 a 11,11 0 0 0 1.7,-6.4 11,11 0 0 0 -11,-11 z"
       id="path1"
       style="fill:none;stroke:#000000;stroke-opacity:1" />
    <path
       fill="#555555"
       d="m 41.216901,36.398316 -9.3,-12.4 4.4,16.8 a 11,11 0 0 0 4.9,-4.4 z"
       id="path2"
       style="fill:#555555;fill-opacity:0.533333;stroke:#000000;stroke-opacity:1" />
  </g>
  <path
     style="font-weight:bold;font-size:27.9709px;line-height:1.25;font-family:Dosis;-inkscape-font-specification:'Dosis Bold';white-space:pre;fill:#000000;stroke-width:1.14405"
     d="m 82.173991,59.935505 q -2.19389,0 -4.069297,-0.63665 -1.87542,-0.665588 -3.007749,-2.112514 Q 74,55.710467 74,53.279628 v -8.016001 q 0,-2.43085 1.096945,-3.877776 1.132329,-1.475874 3.007749,-2.112524 1.875407,-0.665588 4.104681,-0.665588 2.476962,0 4.352382,0.694525 1.910805,0.665588 2.972365,1.881013 1.096932,1.215424 1.096932,2.9228 0,1.128612 -0.566158,1.504812 -0.566158,0.347263 -1.733871,0.347263 -0.955408,0 -1.627731,-0.26045 -0.636927,-0.289387 -0.672311,-0.926037 0,-0.347263 -0.141549,-0.810276 -0.106139,-0.491962 -0.460005,-0.954975 -0.353854,-0.463024 -1.096945,-0.781349 -0.707695,-0.318325 -1.981573,-0.318325 -1.804639,0 -2.760047,0.839224 -0.955396,0.810276 -0.955396,2.517663 v 8.016001 q 0,1.736313 0.955396,2.546589 0.990792,0.810287 2.830828,0.810287 1.203097,0 1.910792,-0.318325 0.707707,-0.318325 1.026176,-0.781339 0.353854,-0.491961 0.460006,-1.01286 0.141549,-0.520889 0.212317,-0.983913 0.07072,-0.694526 0.707708,-0.926038 0.636926,-0.260439 1.556938,-0.260439 1.203109,0 1.769267,0.376201 0.566158,0.3762 0.566158,1.475864 0,1.736323 -1.096932,3.038561 -1.06156,1.302238 -2.972365,1.996763 -1.910804,0.694526 -4.387766,0.694526 z m 18.258799,0.0868 q -2.052341,0 -3.786225,-0.810287 -1.733871,-0.839224 -2.795432,-2.199337 -1.061548,-1.360114 -1.061548,-2.922801 v -2.372964 q 0,-1.562687 1.026164,-2.893862 1.026177,-1.360124 2.760048,-2.1704 1.769268,-0.810287 3.856993,-0.810287 2.08772,0 3.82161,0.810287 1.76925,0.781338 2.79543,2.112524 1.06156,1.331176 1.06156,2.951738 v 2.372964 q 0,1.53375 -1.06156,2.893863 -1.06156,1.360113 -2.83082,2.199337 -1.73388,0.839225 -3.78622,0.839225 z m 0,-3.270074 q 0.84924,0 1.55695,-0.3762 0.70771,-0.376201 1.13233,-0.983913 0.42462,-0.63665 0.42462,-1.302238 v -2.372964 q 0,-0.665587 -0.42462,-1.244362 -0.42462,-0.578775 -1.13233,-0.954975 -0.67232,-0.405138 -1.55695,-0.405138 -0.849244,0 -1.556951,0.3762 -0.707707,0.376201 -1.132329,0.983913 -0.389238,0.578775 -0.389238,1.244362 v 2.372964 q 0,0.665588 0.389238,1.302238 0.424622,0.607712 1.132329,0.983913 0.707707,0.3762 1.556951,0.3762 z m 16.17104,3.270074 q -1.66311,0 -3.07851,-0.839225 -1.41541,-0.839224 -2.26466,-2.199337 -0.84924,-1.360113 -0.84924,-2.893863 v -2.372964 q 0,-1.620562 0.84924,-2.951738 0.84925,-1.331186 2.26466,-2.112524 1.4154,-0.810287 3.14929,-0.810287 1.6631,0 2.83081,0.694536 1.16772,0.665588 1.73387,1.504802 v -8.884153 q 0,-0.520899 0.67233,-0.839224 0.67232,-0.318325 1.6631,-0.318325 0.95541,0 1.59233,0.318325 0.63694,0.318325 0.63694,0.839224 V 58.54643 q 0,0.463014 -0.63694,0.839225 -0.63692,0.3762 -1.59233,0.3762 -0.84924,0 -1.4508,-0.3762 -0.60154,-0.376211 -0.60154,-0.839225 v -0.810286 q -0.53078,0.897099 -1.91081,1.591625 -1.34463,0.694536 -3.00774,0.694536 z m 1.45079,-3.270074 q 0.92002,0 1.62772,-0.405138 0.70771,-0.434076 1.13233,-0.926037 0.42462,-0.520889 0.42462,-0.810277 v -2.893863 q 0,-0.810286 -0.49539,-1.389061 -0.46,-0.578764 -1.20309,-0.897089 -0.70771,-0.318325 -1.4508,-0.318325 -0.84925,0 -1.59234,0.405138 -0.7077,0.3762 -1.13233,0.954975 -0.38923,0.578775 -0.38923,1.244362 v 2.372964 q 0,0.665588 0.38923,1.2733 0.42463,0.607712 1.13233,1.012851 0.70771,0.3762 1.55695,0.3762 z m 19.24953,3.270074 q -2.51234,0 -4.45853,-0.723474 -1.91081,-0.752401 -3.00775,-2.083576 -1.09693,-1.360113 -1.09693,-3.125375 v -2.459787 q 0,-1.562677 1.02616,-2.864915 1.06156,-1.331186 2.79543,-2.112524 1.76927,-0.810287 3.92776,-0.810287 1.98157,0 3.60931,0.694536 1.6631,0.694525 2.68926,1.90995 1.02618,1.215414 1.02618,2.835977 0,1.244363 -0.49539,1.7942 -0.4954,0.520899 -1.27388,0.665587 -0.74308,0.115751 -1.55694,0.115751 h -7.18321 v 0.434086 q 0,1.244363 1.13233,2.025701 1.16771,0.752401 3.00775,0.752401 1.16771,0 1.94619,-0.289387 0.77847,-0.289377 1.34463,-0.549827 0.56617,-0.26045 1.06156,-0.26045 0.53078,0 0.92001,0.289388 0.38924,0.289387 0.60156,0.694525 0.2123,0.376201 0.2123,0.665588 0,0.491962 -0.77847,1.070726 -0.74309,0.549837 -2.15849,0.954975 -1.38003,0.376211 -3.29084,0.376211 z m -3.99853,-8.363264 h 5.16624 q 0.60156,0 0.81386,-0.144699 0.24771,-0.173626 0.24771,-0.63665 0,-0.665588 -0.46001,-1.186487 -0.42462,-0.520889 -1.13233,-0.810276 -0.67232,-0.289387 -1.52157,-0.289387 -0.81386,0 -1.52156,0.289387 -0.70771,0.26045 -1.16772,0.781338 -0.42462,0.491962 -0.42462,1.186487 z m 22.46965,8.363264 q -1.66311,0 -3.00775,-0.694536 -1.34463,-0.694526 -1.91079,-1.591625 v 0.810286 q 0,0.463014 -0.60156,0.839225 -0.56616,0.3762 -1.4508,0.3762 -0.95539,0 -1.59233,-0.3762 -0.63693,-0.376211 -0.63693,-0.839225 V 39.157555 q 0,-0.520899 0.63693,-0.839224 0.63694,-0.318325 1.59233,-0.318325 0.9908,0 1.66312,0.318325 0.67231,0.318325 0.67231,0.839224 v 8.884153 q 0.56617,-0.839214 1.73388,-1.504802 1.16772,-0.694536 2.83082,-0.694536 1.73387,0 3.14928,0.810287 1.41541,0.781338 2.26466,2.112524 0.84925,1.331176 0.84925,2.951738 v 2.372964 q 0,1.53375 -0.84925,2.893863 -0.84925,1.360113 -2.26466,2.199337 -1.38003,0.839225 -3.07851,0.839225 z m -1.4508,-3.270074 q 0.84924,0 1.55695,-0.3762 0.70771,-0.405139 1.09694,-1.012851 0.42463,-0.607712 0.42463,-1.2733 v -2.372964 q 0,-0.665587 -0.42463,-1.244362 -0.38923,-0.578775 -1.09694,-0.954975 -0.70771,-0.405138 -1.59233,-0.405138 -0.7431,0 -1.48619,0.318325 -0.70769,0.318325 -1.20309,0.897089 -0.46001,0.578775 -0.46001,1.389061 v 2.893863 q 0,0.289388 0.42462,0.810277 0.42462,0.491961 1.13233,0.926037 0.74309,0.405138 1.62772,0.405138 z m 18.50645,3.270074 q -2.51235,0 -4.45854,-0.723474 -1.9108,-0.752401 -3.00775,-2.083576 -1.09693,-1.360113 -1.09693,-3.125375 v -2.459787 q 0,-1.562677 1.02617,-2.864915 1.06156,-1.331186 2.79543,-2.112524 1.76927,-0.810287 3.92776,-0.810287 1.98157,0 3.60929,0.694536 1.66312,0.694525 2.68928,1.90995 1.02618,1.215414 1.02618,2.835977 0,1.244363 -0.49539,1.7942 -0.49541,0.520899 -1.27388,0.665587 -0.74309,0.115751 -1.55695,0.115751 h -7.1832 v 0.434086 q 0,1.244363 1.13233,2.025701 1.16771,0.752401 3.00775,0.752401 1.16771,0 1.94619,-0.289387 0.77847,-0.289377 1.34463,-0.549827 0.56616,-0.26045 1.06156,-0.26045 0.53077,0 0.92001,0.289388 0.38924,0.289387 0.60156,0.694525 0.2123,0.376201 0.2123,0.665588 0,0.491962 -0.77847,1.070726 -0.7431,0.549837 -2.1585,0.954975 -1.38003,0.376211 -3.29083,0.376211 z m -3.99853,-8.363264 h 5.16624 q 0.60156,0 0.81386,-0.144699 0.2477,-0.173626 0.2477,-0.63665 0,-0.665588 -0.46,-1.186487 -0.42463,-0.520889 -1.13233,-0.810276 -0.67233,-0.289387 -1.52157,-0.289387 -0.81386,0 -1.52157,0.289387 -0.7077,0.26045 -1.16771,0.781338 -0.42462,0.491962 -0.42462,1.186487 z m 15.46337,8.102814 q -0.9554,0 -1.59234,-0.3762 -0.63694,-0.376211 -0.63694,-0.839225 V 47.173577 q 0,-0.5209 0.63694,-0.839225 0.63694,-0.318325 1.59234,-0.318325 0.88462,0 1.45079,0.318325 0.60155,0.318325 0.60155,0.839225 v 1.186476 q 0.38923,-0.63665 1.02617,-1.186476 0.67233,-0.578775 1.52157,-0.954975 0.84924,-0.376211 1.80464,-0.376211 h 1.09694 q 0.67233,0 1.16772,0.491961 0.49539,0.463014 0.49539,1.128602 0,0.694536 -0.49539,1.186487 -0.49539,0.463024 -1.16772,0.463024 h -1.09694 q -0.99078,0 -1.94619,0.549826 -0.92001,0.520899 -1.52155,1.475874 -0.60156,0.926038 -0.60156,2.257213 v 5.151076 q 0,0.463014 -0.67232,0.839224 -0.67231,0.376201 -1.6631,0.376201 z m 17.4962,6.395438 q -2.08774,0 -3.89238,-0.491961 -1.76927,-0.463014 -2.86621,-1.389051 -1.06155,-0.926038 -1.06155,-2.199338 0,-1.099674 0.74309,-1.881012 0.74309,-0.752401 1.84002,-1.186487 -0.67231,-0.260439 -1.09693,-0.694526 -0.38924,-0.463013 -0.38924,-1.157539 0,-0.810286 0.49539,-1.302237 0.53078,-0.5209 1.30925,-0.954975 -1.06156,-0.665588 -1.6631,-1.591625 -0.56617,-0.954976 -0.56617,-2.083587 v -0.607712 q 0,-1.417989 0.84926,-2.488715 0.88462,-1.070736 2.44157,-1.678448 1.59234,-0.607713 3.64468,-0.607713 1.16771,0 2.19389,0.231512 1.02616,0.202574 1.84002,0.607712 0.60156,-1.157549 1.13233,-1.562687 0.53079,-0.405138 1.02618,-0.405138 0.84924,0 1.30925,0.405138 0.49539,0.405138 0.49539,0.752411 0,0.26044 -0.17692,0.463014 -0.14154,0.202574 -0.38924,0.347262 -0.35385,0.173637 -0.81386,0.434076 -0.46001,0.231512 -0.84924,0.665588 0.63692,0.578775 0.92001,1.302248 0.31847,0.694526 0.31847,1.53374 v 0.607712 q 0,1.389051 -0.88463,2.488725 -0.88464,1.070725 -2.47698,1.707376 -1.59233,0.63665 -3.64467,0.63665 -1.27387,0 -2.30004,-0.26045 -0.17692,0.115761 -0.31847,0.26045 -0.10614,0.144698 -0.10614,0.318325 0,0.491961 0.77847,0.694525 0.77848,0.202574 1.98158,0.318325 1.20309,0.115761 2.54774,0.318325 1.38002,0.173637 2.58311,0.578775 1.2031,0.405138 1.98158,1.215424 0.77847,0.781339 0.77847,2.112514 0,1.620574 -1.13233,2.604486 -1.09693,1.012851 -2.8662,1.475864 -1.73387,0.463024 -3.71544,0.463024 z m -0.0707,-2.401912 q 1.38003,0 2.33542,-0.549836 0.9908,-0.549827 0.9908,-1.475864 0,-0.607713 -0.42462,-0.983913 -0.42463,-0.376201 -1.16772,-0.578775 -0.7077,-0.173636 -1.55695,-0.289387 -0.84924,-0.0868 -1.69849,-0.173626 -0.84925,0.318325 -1.38003,0.810276 -0.53077,0.491961 -0.53077,1.186487 0,0.954975 0.99078,1.504802 1.02618,0.549836 2.44158,0.549836 z m -0.0707,-9.954888 q 1.16771,0 1.84004,-0.723463 0.67232,-0.723464 0.67232,-1.852075 v -0.607712 q 0,-1.070726 -0.67232,-1.794189 -0.63694,-0.723474 -1.87542,-0.723474 -1.2031,0 -1.87542,0.723474 -0.63693,0.723463 -0.63693,1.794189 v 0.578774 q 0,1.099674 0.63693,1.852075 0.67232,0.752401 1.9108,0.752401 z"
     id="text5876"
     aria-label="Codeberg" />
  <path
     style="font-weight:500;font-size:18.5185px;line-height:1.25;font-family:Dosis;-inkscape-font-specification:'Dosis Medium';white-space:pre;fill:#000000;stroke-width:1.008"
     d="m 78.013342,28.757375 q -1.138669,0 -2.053338,-0.392002 Q 75.064002,27.954712 74.522668,27.058708 74,26.162704 74,24.688036 v -5.618681 q 0,-1.474668 0.522668,-2.370672 0.541334,-0.896004 1.437336,-1.287996 0.914669,-0.410671 2.016004,-0.410671 1.232003,0 2.128005,0.429329 0.914668,0.41067 1.41867,1.157339 0.522667,0.746668 0.522667,1.754671 0,0.447997 -0.205334,0.616001 -0.205333,0.149336 -0.578667,0.149336 -0.317335,0 -0.541335,-0.111999 -0.224001,-0.130668 -0.242667,-0.429339 -0.07466,-0.653338 -0.336001,-1.120003 -0.261334,-0.485333 -0.784002,-0.746668 -0.522667,-0.280003 -1.344002,-0.280003 -1.157336,0 -1.810671,0.653337 -0.634668,0.634669 -0.634668,1.997338 v 5.618681 q 0,1.362669 0.634668,2.016006 0.653335,0.634669 1.810671,0.634669 1.157335,0 1.810671,-0.634669 0.653334,-0.653337 0.653334,-2.016006 v -1.904007 h -2.221338 q -0.261334,0 -0.410667,-0.205331 -0.130668,-0.20533 -0.130668,-0.447997 0,-0.242676 0.130668,-0.448007 0.149333,-0.20533 0.410667,-0.20533 h 3.248006 q 0.261334,0 0.392002,0.167994 0.149333,0.168004 0.149333,0.410671 v 2.632007 q 0,1.474668 -0.541335,2.370672 -0.522667,0.896004 -1.437336,1.306665 -0.914668,0.392002 -2.053337,0.392002 z m 9.94936,0.0373 q -1.213335,0 -2.146671,-0.447997 -0.933335,-0.466675 -1.47467,-1.269338 -0.541334,-0.821341 -0.541334,-1.904007 v -1.960002 q 0,-0.952009 0.504,-1.754671 0.522668,-0.802673 1.362671,-1.288007 0.840001,-0.485333 1.848003,-0.485333 0.970669,0 1.773338,0.448007 0.821335,0.447997 1.306669,1.213333 0.504001,0.765337 0.504001,1.77334 0,0.746668 -0.242667,1.082666 -0.242667,0.31733 -0.616002,0.392002 -0.373334,0.07469 -0.784001,0.07469 h -4.106676 v 0.560007 q 0,1.045329 0.746668,1.66133 0.746669,0.597333 1.922672,0.597333 0.690667,0 1.101335,-0.186662 0.410667,-0.186672 0.672001,-0.354666 0.261334,-0.186672 0.466669,-0.186672 0.205333,0 0.336,0.130667 0.149334,0.111999 0.224001,0.280003 0.07466,0.168004 0.07466,0.298672 0,0.242666 -0.354668,0.559996 -0.354667,0.298671 -1.026669,0.541338 -0.653335,0.223998 -1.549337,0.223998 z m -2.613339,-5.170683 h 3.453341 q 0.504001,0 0.653335,-0.112 0.168001,-0.130667 0.168001,-0.485333 0,-0.559996 -0.280002,-1.026661 -0.261333,-0.485344 -0.746668,-0.784005 -0.485334,-0.298671 -1.101335,-0.298671 -0.578669,0 -1.064003,0.280003 -0.485334,0.261335 -0.784002,0.728 -0.298667,0.466665 -0.298667,1.026671 z m 10.528023,5.021347 q -1.512005,0 -2.314668,-0.671995 -0.784002,-0.672006 -0.784002,-2.146674 v -9.613357 q 0,-0.242666 0.242666,-0.392002 0.242668,-0.149336 0.522668,-0.149336 0.298671,0 0.541338,0.149336 0.242667,0.149336 0.242667,0.392002 v 3.584006 h 2.352004 q 0.223998,0 0.335998,0.186672 0.130667,0.186662 0.130667,0.429329 0,0.242667 -0.130667,0.429339 -0.112,0.168004 -0.335998,0.168004 h -2.352004 v 4.816007 q 0,0.802663 0.335997,1.138671 0.354666,0.317329 1.213334,0.317329 h 0.578674 q 0.335998,0 0.504002,0.20533 0.167994,0.205341 0.167994,0.466676 0,0.261335 -0.167994,0.485333 -0.168004,0.20533 -0.504002,0.20533 z m 7.205364,-11.274687 q -0.392,0 -0.69067,-0.261335 -0.27999,-0.280003 -0.27999,-0.634669 0,-0.354666 0.27999,-0.616001 0.29867,-0.261335 0.69067,-0.261335 0.41066,0 0.672,0.261335 0.28,0.261335 0.28,0.616001 0,0.354666 -0.28,0.634669 -0.26134,0.261335 -0.672,0.261335 z m 0,11.274687 q -0.336,0 -0.56,-0.168004 -0.20533,-0.186662 -0.20533,-0.391992 v -7.746686 q 0,-0.242667 0.20533,-0.392002 0.224,-0.149336 0.56,-0.149336 0.31733,0 0.54133,0.149336 0.24267,0.149335 0.24267,0.392002 v 7.746686 q 0,0.20533 -0.24267,0.391992 -0.224,0.168004 -0.54133,0.168004 z m 6.02937,0 q -1.51201,0 -2.31468,-0.671995 -0.784,-0.672006 -0.784,-2.146674 v -9.613357 q 0,-0.242666 0.24267,-0.392002 0.24267,-0.149336 0.52266,-0.149336 0.29867,0 0.54134,0.149336 0.24266,0.149336 0.24266,0.392002 v 3.584006 h 2.35201 q 0.224,0 0.33601,0.186672 0.13066,0.186662 0.13066,0.429329 0,0.242667 -0.13066,0.429339 -0.11201,0.168004 -0.33601,0.168004 h -2.35201 v 4.816007 q 0,0.802663 0.336,1.138671 0.35468,0.317329 1.21335,0.317329 h 0.57866 q 0.336,0 0.504,0.20533 0.16801,0.205341 0.16801,0.466676 0,0.261335 -0.16801,0.485333 -0.168,0.20533 -0.504,0.20533 z m 9.78136,0.149336 q -0.98934,0 -1.82934,-0.504002 -0.84,-0.522669 -1.344,-1.344 -0.504,-0.821342 -0.504,-1.77334 v -1.904007 q 0,-0.951999 0.48533,-1.754672 0.504,-0.821331 1.344,-1.325333 0.84001,-0.504001 1.84801,-0.504001 0.98934,0 1.82934,0.504001 0.84,0.485334 1.344,1.288007 0.52267,0.802663 0.52267,1.791998 v 1.904007 q 0,0.93334 -0.52267,1.77334 -0.504,0.821331 -1.344,1.344 -0.84,0.504002 -1.82934,0.504002 z m 0,-1.400006 q 0.59734,0 1.064,-0.317329 0.48534,-0.31734 0.78401,-0.821341 0.29866,-0.52266 0.29866,-1.082666 v -1.904007 q 0,-0.541328 -0.29866,-1.04533 -0.28,-0.504002 -0.76534,-0.821341 -0.48533,-0.31733 -1.08267,-0.31733 -0.59734,0 -1.08267,0.31733 -0.48533,0.317339 -0.76534,0.821341 -0.27999,0.504002 -0.27999,1.04533 v 1.904007 q 0,0.560006 0.27999,1.082666 0.28001,0.504001 0.76534,0.821341 0.48533,0.317329 1.08267,0.317329 z m 6.328,1.25067 q -0.336,0 -0.56,-0.168004 -0.20533,-0.186662 -0.20533,-0.391992 v -7.746686 q 0,-0.242667 0.20533,-0.392002 0.224,-0.149336 0.56,-0.149336 0.29867,0 0.504,0.149336 0.20534,0.149335 0.20534,0.392002 v 0.765337 q 0.29866,-0.541338 0.93333,-0.970667 0.63467,-0.448007 1.56801,-0.448007 0.89599,0 1.64266,0.504001 0.74667,0.485334 1.19468,1.288007 0.44799,0.802663 0.44799,1.791998 v 4.816017 q 0,0.279993 -0.24266,0.429329 -0.24267,0.130667 -0.54133,0.130667 -0.28,0 -0.52267,-0.130667 -0.24267,-0.149336 -0.24267,-0.429329 v -4.816017 q 0,-0.541328 -0.29867,-1.04533 -0.28,-0.504002 -0.76533,-0.821341 -0.48534,-0.31733 -1.064,-0.31733 -0.504,0 -0.97067,0.280004 -0.46667,0.261334 -0.76534,0.746668 -0.29867,0.466665 -0.29867,1.157329 v 4.816017 q 0,0.20533 -0.24266,0.391992 -0.224,0.168004 -0.54134,0.168004 z"
     id="text5295"
     aria-label="Get it on" />
</svg>
