<?xml version="1.0" encoding="UTF-8" standalone="no"?>
<svg
   width="260"
   height="80"
   viewBox="0 0 260 80"
   fill="none"
   version="1.1"
   id="svg4"
   sodipodi:docname="get_codeberg_mc.svg"
   inkscape:version="1.4.1 (93de688d07, 2025-03-30)"
   xmlns:inkscape="http://www.inkscape.org/namespaces/inkscape"
   xmlns:sodipodi="http://sodipodi.sourceforge.net/DTD/sodipodi-0.dtd"
   xmlns="http://www.w3.org/2000/svg"
   xmlns:svg="http://www.w3.org/2000/svg">
  <defs
     id="defs4">
    <rect
       x="78.55587"
       y="21.772038"
       width="163.5845"
       height="37.65974"
       id="rect5" />
    <rect
       x="82.674904"
       y="15.593487"
       width="160.64233"
       height="54.13588"
       id="rect4" />
    <rect
       x="545.27075"
       y="129.38628"
       width="170.53992"
       height="37.730087"
       id="rect5878" />
    <rect
       x="79.480141"
       y="243.98555"
       width="98.107262"
       height="19.632467"
       id="rect5297" />
  </defs>
  <sodipodi:namedview
     inkscape:zoom="3.3804442"
     inkscape:cx="113.89036"
     inkscape:cy="67.298848"
     inkscape:window-width="1920"
     inkscape:window-height="1051"
     inkscape:window-x="0"
     inkscape:window-y="0"
     inkscape:window-maximized="1"
     inkscape:current-layer="svg4"
     pagecolor="#b0b0b0"
     id="namedview1"
     bordercolor="#eeeeee"
     borderopacity="1"
     inkscape:showpageshadow="0"
     inkscape:pageopacity="0"
     inkscape:pagecheckerboard="0"
     inkscape:deskcolor="#505050" />
  <rect
     width="260"
     height="80"
     rx="39.694656"
     fill="#1D5128"
     id="rect"
     style="fill:#6cb3e8;fill-opacity:1;stroke-width:1.99236"
     x="0"
     y="0" />
  <path
     style="font-weight:bold;font-size:29.3808px;line-height:1.25;font-family:Dosis;-inkscape-font-specification:'Dosis Bold';white-space:pre;fill:#000000"
     d="m 553.58625,157.1075 q -1.82161,0 -3.37879,-0.64637 -1.55718,-0.67576 -2.49737,-2.1448 -0.9108,-1.49842 -0.9108,-3.96641 v -8.13848 q 0,-2.46799 0.9108,-3.93703 0.94019,-1.49842 2.49737,-2.1448 1.55718,-0.67576 3.40817,-0.67576 2.05666,0 3.61384,0.70514 1.58656,0.67576 2.46799,1.90976 0.9108,1.23399 0.9108,2.96746 0,1.14585 -0.47009,1.5278 -0.47009,0.35257 -1.43966,0.35257 -0.79328,0 -1.35152,-0.26443 -0.52885,-0.29381 -0.55823,-0.94019 0,-0.35257 -0.11753,-0.82266 -0.0881,-0.49947 -0.38195,-0.96956 -0.2938,-0.4701 -0.9108,-0.79329 -0.58762,-0.32318 -1.64533,-0.32318 -1.49842,0 -2.2917,0.85204 -0.79328,0.82266 -0.79328,2.55613 v 8.13848 q 0,1.76285 0.79328,2.58551 0.82266,0.82266 2.35047,0.82266 0.99894,0 1.58656,-0.32319 0.58762,-0.32319 0.85204,-0.79328 0.29381,-0.49947 0.38195,-1.02833 0.11753,-0.52885 0.17629,-0.99894 0.0588,-0.70514 0.58761,-0.94019 0.52886,-0.26443 1.29276,-0.26443 0.99895,0 1.46904,0.38195 0.47009,0.38195 0.47009,1.49843 0,1.76284 -0.9108,3.08498 -0.88143,1.32214 -2.46799,2.02727 -1.58656,0.70514 -3.64322,0.70514 z m 15.16051,0.0882 q -1.70408,0 -3.14374,-0.82267 -1.43966,-0.85204 -2.32109,-2.23294 -0.88142,-1.38089 -0.88142,-2.96746 v -2.40922 q 0,-1.58657 0.85204,-2.93808 0.85205,-1.3809 2.2917,-2.20356 1.46904,-0.82267 3.20251,-0.82267 1.73347,0 3.17313,0.82267 1.46904,0.79328 2.32108,2.14479 0.88143,1.35152 0.88143,2.99685 v 2.40922 q 0,1.55718 -0.88143,2.93808 -0.88142,1.3809 -2.35046,2.23294 -1.43966,0.85205 -3.14375,0.85205 z m 0,-3.32003 q 0.70514,0 1.29276,-0.38195 0.58761,-0.38196 0.94018,-0.99895 0.35257,-0.64638 0.35257,-1.32214 v -2.40922 q 0,-0.67576 -0.35257,-1.26338 -0.35257,-0.58761 -0.94018,-0.96956 -0.55824,-0.41134 -1.29276,-0.41134 -0.70514,0 -1.29275,0.38195 -0.58762,0.38196 -0.94019,0.99895 -0.32319,0.58762 -0.32319,1.26338 v 2.40922 q 0,0.67576 0.32319,1.32214 0.35257,0.61699 0.94019,0.99895 0.58761,0.38195 1.29275,0.38195 z m 13.42702,3.32003 q -1.3809,0 -2.55613,-0.85205 -1.17523,-0.85204 -1.88037,-2.23294 -0.70514,-1.3809 -0.70514,-2.93808 v -2.40922 q 0,-1.64533 0.70514,-2.99685 0.70514,-1.35151 1.88037,-2.14479 1.17523,-0.82267 2.61489,-0.82267 1.3809,0 2.35046,0.70514 0.96957,0.67576 1.43966,1.5278 v -9.0199 q 0,-0.52886 0.55824,-0.85204 0.55823,-0.32319 1.3809,-0.32319 0.79328,0 1.32213,0.32319 0.52886,0.32318 0.52886,0.85204 v 19.68514 q 0,0.47009 -0.52886,0.85204 -0.52885,0.38195 -1.32213,0.38195 -0.70514,0 -1.20462,-0.38195 -0.49947,-0.38195 -0.49947,-0.85204 v -0.82267 q -0.44071,0.91081 -1.58656,1.61595 -1.11647,0.70514 -2.49737,0.70514 z m 1.20461,-3.32003 q 0.7639,0 1.35152,-0.41134 0.58761,-0.44071 0.94018,-0.94018 0.35257,-0.52886 0.35257,-0.82266 v -2.93808 q 0,-0.82267 -0.41133,-1.41028 -0.38195,-0.58762 -0.99894,-0.91081 -0.58762,-0.32319 -1.20462,-0.32319 -0.70514,0 -1.32213,0.41134 -0.58762,0.38195 -0.94019,0.96956 -0.32319,0.58762 -0.32319,1.26338 v 2.40922 q 0,0.67576 0.32319,1.29276 0.35257,0.61699 0.94019,1.02833 0.58761,0.38195 1.29275,0.38195 z m 15.98313,3.32003 q -2.08604,0 -3.70198,-0.73452 -1.58656,-0.7639 -2.49737,-2.11542 -0.9108,-1.3809 -0.9108,-3.17313 v -2.49737 q 0,-1.58656 0.85204,-2.9087 0.88142,-1.35151 2.32108,-2.14479 1.46904,-0.82267 3.26127,-0.82267 1.64533,0 2.99684,0.70514 1.3809,0.70514 2.23294,1.93914 0.85205,1.23399 0.85205,2.87931 0,1.26338 -0.41133,1.82161 -0.41134,0.52886 -1.05771,0.67576 -0.617,0.11753 -1.29276,0.11753 h -5.9643 v 0.44071 q 0,1.26337 0.94018,2.05665 0.96957,0.7639 2.49737,0.7639 0.96957,0 1.61595,-0.2938 0.64637,-0.29381 1.11647,-0.55824 0.47009,-0.26443 0.88142,-0.26443 0.44071,0 0.7639,0.29381 0.32319,0.29381 0.49948,0.70514 0.17628,0.38195 0.17628,0.67576 0,0.49947 -0.64638,1.08709 -0.61699,0.55823 -1.79223,0.96957 -1.14585,0.38195 -2.73241,0.38195 z m -3.32003,-8.49106 h 4.2896 q 0.49947,0 0.67575,-0.1469 0.20567,-0.17628 0.20567,-0.64638 0,-0.67576 -0.38195,-1.20461 -0.35257,-0.52885 -0.94019,-0.82266 -0.55823,-0.29381 -1.26337,-0.29381 -0.67576,0 -1.26338,0.29381 -0.58761,0.26443 -0.96956,0.79328 -0.35257,0.49947 -0.35257,1.20461 z m 18.65683,8.49106 q -1.3809,0 -2.49737,-0.70514 -1.11647,-0.70514 -1.58656,-1.61595 v 0.82267 q 0,0.47009 -0.49948,0.85204 -0.47009,0.38195 -1.20461,0.38195 -0.79328,0 -1.32213,-0.38195 -0.52886,-0.38195 -0.52886,-0.85204 v -19.68514 q 0,-0.52886 0.52886,-0.85204 0.52885,-0.32319 1.32213,-0.32319 0.82266,0 1.3809,0.32319 0.55823,0.32318 0.55823,0.85204 v 9.0199 q 0.4701,-0.85204 1.43966,-1.5278 0.96957,-0.70514 2.35047,-0.70514 1.43966,0 2.61489,0.82267 1.17523,0.79328 1.88037,2.14479 0.70514,1.35152 0.70514,2.99685 v 2.40922 q 0,1.55718 -0.70514,2.93808 -0.70514,1.3809 -1.88037,2.23294 -1.14585,0.85205 -2.55613,0.85205 z m -1.20461,-3.32003 q 0.70514,0 1.29275,-0.38195 0.58762,-0.41134 0.91081,-1.02833 0.35257,-0.617 0.35257,-1.29276 v -2.40922 q 0,-0.67576 -0.35257,-1.26338 -0.32319,-0.58761 -0.91081,-0.96956 -0.58761,-0.41134 -1.32213,-0.41134 -0.617,0 -1.234,0.32319 -0.58761,0.32319 -0.99895,0.91081 -0.38195,0.58761 -0.38195,1.41028 v 2.93808 q 0,0.2938 0.35257,0.82266 0.35257,0.49947 0.94019,0.94018 0.617,0.41134 1.35152,0.41134 z m 15.36612,3.32003 q -2.08603,0 -3.70198,-0.73452 -1.58656,-0.7639 -2.49737,-2.11542 -0.9108,-1.3809 -0.9108,-3.17313 v -2.49737 q 0,-1.58656 0.85204,-2.9087 0.88143,-1.35151 2.32109,-2.14479 1.46904,-0.82267 3.26126,-0.82267 1.64533,0 2.99685,0.70514 1.38089,0.70514 2.23294,1.93914 0.85204,1.23399 0.85204,2.87931 0,1.26338 -0.41133,1.82161 -0.41133,0.52886 -1.05771,0.67576 -0.617,0.11753 -1.29275,0.11753 h -5.96431 v 0.44071 q 0,1.26337 0.94019,2.05665 0.96956,0.7639 2.49737,0.7639 0.96956,0 1.61594,-0.2938 0.64638,-0.29381 1.11647,-0.55824 0.47009,-0.26443 0.88142,-0.26443 0.44072,0 0.76391,0.29381 0.32318,0.29381 0.49947,0.70514 0.17628,0.38195 0.17628,0.67576 0,0.49947 -0.64637,1.08709 -0.617,0.55823 -1.79223,0.96957 -1.14585,0.38195 -2.73242,0.38195 z m -3.32003,-8.49106 h 4.2896 q 0.49947,0 0.67576,-0.1469 0.20566,-0.17628 0.20566,-0.64638 0,-0.67576 -0.38195,-1.20461 -0.35257,-0.52885 -0.94018,-0.82266 -0.55824,-0.29381 -1.26338,-0.29381 -0.67576,0 -1.26337,0.29381 -0.58762,0.26443 -0.96957,0.79328 -0.35257,0.49947 -0.35257,1.20461 z m 12.83943,8.22663 q -0.79328,0 -1.32213,-0.38195 -0.52886,-0.38195 -0.52886,-0.85204 v -11.54666 q 0,-0.52885 0.52886,-0.85204 0.52885,-0.32319 1.32213,-0.32319 0.73452,0 1.20462,0.32319 0.49947,0.32319 0.49947,0.85204 v 1.20461 q 0.32319,-0.64637 0.85204,-1.20461 0.55824,-0.58762 1.26338,-0.96957 0.70514,-0.38195 1.49842,-0.38195 h 0.9108 q 0.55824,0 0.96957,0.49948 0.41133,0.47009 0.41133,1.14585 0,0.70514 -0.41133,1.20461 -0.41133,0.47009 -0.96957,0.47009 h -0.9108 q -0.82266,0 -1.61594,0.55824 -0.76391,0.52885 -1.26338,1.49842 -0.49947,0.94019 -0.49947,2.2917 v 5.22979 q 0,0.47009 -0.55824,0.85204 -0.55823,0.38195 -1.3809,0.38195 z m 14.52731,6.49316 q -1.73347,0 -3.23189,-0.49948 -1.46904,-0.47009 -2.37984,-1.41028 -0.88143,-0.94018 -0.88143,-2.23294 0,-1.11647 0.617,-1.90975 0.617,-0.7639 1.5278,-1.20461 -0.55823,-0.26443 -0.9108,-0.70514 -0.32319,-0.47009 -0.32319,-1.17523 0,-0.82267 0.41133,-1.32214 0.44071,-0.52885 1.08709,-0.96957 -0.88142,-0.67575 -1.3809,-1.61594 -0.47009,-0.96957 -0.47009,-2.11542 v -0.61699 q 0,-1.43966 0.70514,-2.52675 0.73452,-1.08709 2.02727,-1.70409 1.32214,-0.617 3.02623,-0.617 0.96956,0 1.82161,0.23505 0.85204,0.20567 1.5278,0.617 0.49947,-1.17523 0.94018,-1.58657 0.44071,-0.41133 0.85205,-0.41133 0.70513,0 1.08709,0.41133 0.41133,0.41134 0.41133,0.7639 0,0.26443 -0.14691,0.4701 -0.11752,0.20566 -0.32319,0.35257 -0.2938,0.17628 -0.67575,0.44071 -0.38196,0.23505 -0.70514,0.67576 0.52885,0.58761 0.7639,1.32213 0.26442,0.70514 0.26442,1.55719 v 0.61699 q 0,1.41028 -0.73452,2.52675 -0.73452,1.08709 -2.05665,1.73347 -1.32214,0.64638 -3.02622,0.64638 -1.05771,0 -1.90976,-0.26443 -0.1469,0.11752 -0.26442,0.26443 -0.0881,0.1469 -0.0881,0.32319 0,0.49947 0.64638,0.70513 0.64638,0.20567 1.64533,0.32319 0.99894,0.11753 2.11541,0.32319 1.14586,0.17629 2.1448,0.58762 0.99895,0.41133 1.64533,1.23399 0.64637,0.79328 0.64637,2.1448 0,1.64533 -0.94018,2.64427 -0.91081,1.02833 -2.37985,1.49842 -1.43965,0.4701 -3.08498,0.4701 z m -0.0588,-2.43861 q 1.14585,0 1.93913,-0.55824 0.82266,-0.55823 0.82266,-1.49842 0,-0.61699 -0.35257,-0.99894 -0.35257,-0.38195 -0.96956,-0.58762 -0.58762,-0.17628 -1.29276,-0.29381 -0.70514,-0.0881 -1.41028,-0.17628 -0.70513,0.32319 -1.14585,0.82266 -0.44071,0.49947 -0.44071,1.20461 0,0.96957 0.82266,1.5278 0.85205,0.55824 2.02728,0.55824 z m -0.0588,-10.107 q 0.96956,0 1.5278,-0.73452 0.55823,-0.73452 0.55823,-1.88037 v -0.61699 q 0,-1.08709 -0.55823,-1.82161 -0.52886,-0.73452 -1.55718,-0.73452 -0.99895,0 -1.55719,0.73452 -0.52885,0.73452 -0.52885,1.82161 v 0.58761 q 0,1.11647 0.52885,1.88037 0.55824,0.7639 1.58657,0.7639 z"
     id="text5876"
     transform="matrix(0.99838614,0,0,0.99838614,-471.94615,-100.1572)"
     aria-label="Codeberg" />
  <path
     style="font-size:16.0259px;line-height:1.25;font-family:Dosis;-inkscape-font-specification:Dosis;white-space:pre;fill:#000000"
     d="m 83.903617,259.10676 q -0.929502,0 -1.682719,-0.33654 -0.753218,-0.33654 -1.201943,-1.08976 -0.448725,-0.75322 -0.448725,-2.00324 v -4.952 q 0,-1.25002 0.448725,-2.00324 0.448725,-0.75322 1.185917,-1.08976 0.753217,-0.33654 1.682719,-0.33654 1.025658,0 1.778875,0.36859 0.753217,0.35257 1.169891,0.97758 0.416673,0.62501 0.416673,1.44233 0,0.28847 -0.144233,0.41668 -0.144233,0.11218 -0.384622,0.11218 -0.224362,0 -0.384621,-0.0962 -0.144233,-0.0961 -0.160259,-0.30449 -0.0641,-0.60898 -0.336544,-1.04168 -0.27244,-0.4327 -0.753217,-0.65707 -0.480777,-0.24038 -1.185917,-0.24038 -1.073735,0 -1.666693,0.60898 -0.592959,0.59296 -0.592959,1.84298 v 4.952 q 0,1.25002 0.592959,1.85901 0.592958,0.59295 1.666693,0.59295 1.073735,0 1.666694,-0.59295 0.608984,-0.60899 0.608984,-1.85901 v -1.90708 H 84.04785 q -0.192311,0 -0.304492,-0.12821 -0.09615,-0.14423 -0.09615,-0.32052 0,-0.17628 0.09615,-0.32051 0.112181,-0.14424 0.304492,-0.14424 h 2.804533 q 0.19231,0 0.288466,0.12821 0.112181,0.12821 0.112181,0.30449 v 2.38786 q 0,1.25002 -0.448725,2.00324 -0.448725,0.75322 -1.201942,1.08976 -0.753218,0.33654 -1.698746,0.33654 z m 8.429621,0.016 q -1.009632,0 -1.794901,-0.38462 -0.769243,-0.38462 -1.217968,-1.05771 -0.4327,-0.68911 -0.4327,-1.60259 v -1.77888 q 0,-0.80129 0.416674,-1.47438 0.416673,-0.68911 1.105787,-1.08976 0.705139,-0.40065 1.538486,-0.40065 0.801295,0 1.474383,0.38462 0.689114,0.3686 1.105787,1.02566 0.416674,0.65706 0.416674,1.52246 0,0.60899 -0.208337,0.88143 -0.208337,0.27244 -0.528855,0.33654 -0.304492,0.0481 -0.657062,0.0481 h -3.621853 v 0.59296 q 0,0.96155 0.689114,1.52246 0.689113,0.5609 1.746823,0.5609 0.641036,0 0.993605,-0.16025 0.35257,-0.16026 0.544881,-0.32052 0.208337,-0.16026 0.384622,-0.16026 0.128207,0 0.224362,0.0961 0.112182,0.0801 0.160259,0.19231 0.0641,0.11219 0.0641,0.20834 0,0.17629 -0.288466,0.4327 -0.288467,0.25641 -0.833347,0.44873 -0.544881,0.17628 -1.282072,0.17628 z m -2.403885,-4.35904 h 3.20518 q 0.480777,0 0.641036,-0.0962 0.160259,-0.11218 0.160259,-0.44872 0,-0.51283 -0.256415,-0.96156 -0.256414,-0.46475 -0.705139,-0.75322 -0.448725,-0.30449 -1.041684,-0.30449 -0.54488,0 -1.009631,0.27244 -0.448726,0.27244 -0.721166,0.70514 -0.27244,0.4327 -0.27244,0.97758 z m 9.086688,4.24686 q -1.233995,0 -1.891056,-0.56091 -0.657062,-0.5609 -0.657062,-1.7949 v -8.42962 q 0,-0.19231 0.160259,-0.28847 0.176285,-0.11218 0.352569,-0.11218 0.208337,0 0.368596,0.11218 0.160259,0.0962 0.160259,0.28847 v 3.20518 h 2.083367 q 0.160259,0 0.256415,0.12821 0.09615,0.1282 0.09615,0.30449 0,0.17628 -0.09615,0.30449 -0.09616,0.12821 -0.256415,0.12821 h -2.083367 v 4.35904 q 0,0.78527 0.336544,1.10579 0.336544,0.30449 1.169891,0.30449 h 0.448725 q 0.224363,0 0.336544,0.14423 0.128207,0.12821 0.128207,0.32052 0,0.19231 -0.128207,0.33655 -0.112181,0.14423 -0.336544,0.14423 z m 5.945619,-9.82388 q -0.28846,0 -0.51283,-0.19231 -0.20833,-0.20833 -0.20833,-0.48078 0,-0.27244 0.20833,-0.46475 0.22437,-0.19231 0.51283,-0.19231 0.28847,0 0.49681,0.19231 0.20833,0.19231 0.20833,0.46475 0,0.27245 -0.20833,0.48078 -0.20834,0.19231 -0.49681,0.19231 z m -0.016,9.82388 q -0.20834,0 -0.3686,-0.12821 -0.14423,-0.12821 -0.14423,-0.28846 v -6.76293 q 0,-0.19231 0.14423,-0.28847 0.16026,-0.11218 0.3686,-0.11218 0.22436,0 0.36859,0.11218 0.16026,0.0962 0.16026,0.28847 v 6.76293 q 0,0.16025 -0.16026,0.28846 -0.14423,0.12821 -0.36859,0.12821 z m 5.03212,0 q -1.234,0 -1.89106,-0.56091 -0.65706,-0.5609 -0.65706,-1.7949 v -8.42962 q 0,-0.19231 0.16026,-0.28847 0.17628,-0.11218 0.35257,-0.11218 0.20833,0 0.36859,0.11218 0.16026,0.0962 0.16026,0.28847 v 3.20518 h 2.08337 q 0.16026,0 0.25641,0.12821 0.0962,0.1282 0.0962,0.30449 0,0.17628 -0.0962,0.30449 -0.0961,0.12821 -0.25641,0.12821 h -2.08337 v 4.35904 q 0,0.78527 0.33655,1.10579 0.33654,0.30449 1.16989,0.30449 h 0.44872 q 0.22436,0 0.33655,0.14423 0.1282,0.12821 0.1282,0.32052 0,0.19231 -0.1282,0.33655 -0.11219,0.14423 -0.33655,0.14423 z m 8.17322,0.11218 q -0.81732,0 -1.50644,-0.41667 -0.68911,-0.4327 -1.12181,-1.12182 -0.41667,-0.70514 -0.41667,-1.50643 v -1.7308 q 0,-0.81732 0.40064,-1.49041 0.41668,-0.68911 1.10579,-1.10578 0.70514,-0.41668 1.53849,-0.41668 0.81732,0 1.50643,0.41668 0.70514,0.40064 1.12182,1.07373 0.41667,0.67309 0.41667,1.52246 v 1.7308 q 0,0.78527 -0.41667,1.49041 -0.41668,0.70514 -1.12182,1.13784 -0.68911,0.41667 -1.50643,0.41667 z m 0,-0.96155 q 0.5609,0 1.00963,-0.28847 0.44872,-0.30449 0.72116,-0.78527 0.27245,-0.48078 0.27245,-1.00963 v -1.7308 q 0,-0.52885 -0.27245,-0.9936 -0.25641,-0.46475 -0.72116,-0.75322 -0.44873,-0.30449 -1.00963,-0.30449 -0.56091,0 -1.00963,0.30449 -0.44873,0.28847 -0.72117,0.75322 -0.27244,0.46475 -0.27244,0.9936 v 1.7308 q 0,0.52885 0.27244,1.00963 0.27244,0.48078 0.72117,0.78527 0.46475,0.28847 1.00963,0.28847 z m 5.27252,0.84937 q -0.20834,0 -0.3686,-0.12821 -0.14423,-0.12821 -0.14423,-0.28846 v -6.76293 q 0,-0.19231 0.14423,-0.28847 0.16026,-0.11218 0.3686,-0.11218 0.20834,0 0.35257,0.11218 0.14423,0.0962 0.14423,0.28847 v 0.72116 q 0.25642,-0.46475 0.8013,-0.83335 0.54488,-0.38462 1.34617,-0.38462 0.76925,0 1.41028,0.41668 0.65706,0.40064 1.04169,1.08976 0.38462,0.67309 0.38462,1.50643 v 4.24687 q 0,0.20833 -0.16026,0.32051 -0.16026,0.0962 -0.3686,0.0962 -0.17628,0 -0.35257,-0.0962 -0.16026,-0.11218 -0.16026,-0.32051 v -4.24687 q 0,-0.52885 -0.27244,-0.9936 -0.27244,-0.46475 -0.72116,-0.75322 -0.44873,-0.30449 -0.99361,-0.30449 -0.48078,0 -0.9295,0.25641 -0.4327,0.24039 -0.72117,0.68912 -0.27244,0.44872 -0.27244,1.10578 v 4.24687 q 0,0.16025 -0.16026,0.28846 -0.14423,0.12821 -0.36859,0.12821 z"
     id="text5295"
     transform="matrix(0.99838614,0,0,0.99838614,-6.1228809,-228.89656)"
     aria-label="Get it on" />
  <g
     id="g1"
     transform="matrix(2.0868332,0,0,2.0868332,-26.582264,-22.6029)"
     style="stroke:#000000;stroke-opacity:1">
    <path
       fill="#aaaaaa"
       d="m 31.916901,18.998316 a 11,11 0 0 0 -11,11 11,11 0 0 0 1.7,6.4 l 9.3,-12.4 9.3,12.4 a 11,11 0 0 0 1.7,-6.4 11,11 0 0 0 -11,-11 z"
       id="path1"
       style="fill:none;stroke:#000000;stroke-opacity:1" />
    <path
       fill="#555555"
       d="m 41.216901,36.398316 -9.3,-12.4 4.4,16.8 a 11,11 0 0 0 4.9,-4.4 z"
       id="path2"
       style="fill:#555555;fill-opacity:0.533333;stroke:#000000;stroke-opacity:1" />
  </g>
</svg>
