<?xml version="1.0" encoding="UTF-8" standalone="no"?>
<svg
   width="260"
   height="80"
   viewBox="0 0 260 80"
   fill="none"
   version="1.1"
   id="svg4"
   inkscape:version="1.4.2 (ebf0e940d0, 2025-05-08)"
   sodipodi:docname="get_fdroid.svg"
   xmlns:inkscape="http://www.inkscape.org/namespaces/inkscape"
   xmlns:sodipodi="http://sodipodi.sourceforge.net/DTD/sodipodi-0.dtd"
   xmlns="http://www.w3.org/2000/svg"
   xmlns:svg="http://www.w3.org/2000/svg">
  <defs
     id="defs4">
    <rect
       x="78.55587"
       y="21.772038"
       width="163.5845"
       height="37.65974"
       id="rect5" />
    <rect
       x="82.674904"
       y="15.593487"
       width="160.64233"
       height="54.13588"
       id="rect4" />
    <rect
       x="545.27075"
       y="129.38628"
       width="170.53992"
       height="37.730087"
       id="rect5878" />
    <rect
       x="79.480141"
       y="243.98555"
       width="98.107262"
       height="19.632467"
       id="rect5297" />
    <rect
       x="545.27075"
       y="129.38628"
       width="132.63116"
       height="41.711376"
       id="rect5878-3" />
    <rect
       x="79.480141"
       y="243.98555"
       width="97.836517"
       height="25.859533"
       id="rect5297-6" />
  </defs>
  <sodipodi:namedview
     inkscape:zoom="3.398855"
     inkscape:cx="129.16115"
     inkscape:cy="33.393599"
     inkscape:window-width="1920"
     inkscape:window-height="1051"
     inkscape:window-x="0"
     inkscape:window-y="0"
     inkscape:window-maximized="1"
     inkscape:current-layer="svg4"
     pagecolor="#b0b0b0"
     id="namedview1"
     bordercolor="#eeeeee"
     borderopacity="1"
     inkscape:showpageshadow="0"
     inkscape:pageopacity="0"
     inkscape:pagecheckerboard="0"
     inkscape:deskcolor="#505050" />
  <rect
     width="260"
     height="80"
     rx="39.694656"
     fill="#1D5128"
     id="rect"
     style="fill:#83e060;fill-opacity:1;stroke-width:1.99236"
     x="0"
     y="0" />
  <g
     id="g5"
     transform="matrix(2.5041405,0,0,2.5041462,-11.823012,-11.437342)"
     style="stroke-width:0.691938;stroke-dasharray:none">
    <g
       id="g1"
       transform="translate(0.3833401,0.51114024)"
       style="stroke-width:0.691938;stroke-dasharray:none">
      <path
         fill-rule="evenodd"
         clip-rule="evenodd"
         d="m 11.871378,10.927641 c -0.182752,-0.185994 -0.479052,-0.185994 -0.661806,0 -0.182752,0.185995 -0.182752,0.487548 0,0.673543 l 1.639686,1.668763 c -0.06354,0.152389 -0.09868,0.320018 -0.09868,0.496047 v 2.540117 c 0,0.701384 0.558625,1.270011 1.24788,1.270011 h 11.8552 c 0.689256,0 1.247976,-0.568627 1.247976,-1.270011 v -2.540117 c 0,-0.175443 -0.03493,-0.342583 -0.09819,-0.494583 l 1.64122,-1.670227 c 0.182753,-0.185995 0.182753,-0.487548 0,-0.673543 -0.182753,-0.185994 -0.479149,-0.185994 -0.661902,0 l -1.64026,1.669447 c -0.150118,-0.06515 -0.315306,-0.101104 -0.488843,-0.101104 H 13.998467 c -0.172961,0 -0.337668,0.03575 -0.487403,0.100421 z m 5.55888,4.108363 c 0,0.70148 -0.558719,1.270107 -1.247976,1.270107 -0.689161,0 -1.247882,-0.568627 -1.247882,-1.270107 0,-0.701382 0.558721,-1.27001 1.247882,-1.27001 0.689257,0 1.247976,0.568628 1.247976,1.27001 z m 7.487473,0 c 0,0.70148 -0.558719,1.270107 -1.247881,1.270107 -0.689256,0 -1.247976,-0.568627 -1.247976,-1.270107 0,-0.701382 0.55872,-1.27001 1.247976,-1.27001 0.689162,0 1.247881,0.568628 1.247881,1.27001 z"
         fill="#B7F1BA"
         id="path1"
         style="fill:none;fill-opacity:1;stroke:#000000;stroke-width:0.691938;stroke-dasharray:none;stroke-opacity:1" />
      <path
         fill-rule="evenodd"
         clip-rule="evenodd"
         d="m 19.95365,26.766862 c 1.390708,0 2.518129,-1.147415 2.518129,-2.562787 0,-1.415259 -1.127421,-2.562672 -2.518129,-2.562672 -1.140699,0 -2.104215,0.771887 -2.413765,1.830546 h 1.167371 c 0.248793,-0.437701 0.713838,-0.732242 1.246394,-0.732242 0.794738,0 1.438961,0.655648 1.438961,1.464368 0,0.808835 -0.644223,1.464481 -1.438961,1.464481 -0.532556,0 -0.997601,-0.294538 -1.246394,-0.73224 h -1.167371 c 0.30955,1.058543 1.273066,1.830546 2.413765,1.830546 z"
         fill="#B7F1BA"
         id="path2"
         style="fill:#000000;fill-opacity:1;stroke-width:0.691938;stroke-dasharray:none"
         sodipodi:nodetypes="sssccsssccs" />
      <path
         fill-rule="evenodd"
         clip-rule="evenodd"
         d="M 12.750586,27.997855 V 20.3775 c 0,-0.701382 0.558625,-1.27001 1.24788,-1.27001 h 11.8552 c 0.689256,0 1.247976,0.568628 1.247976,1.27001 v 7.620355 c 0,0.701383 -0.55872,1.270011 -1.247976,1.270011 h -11.8552 c -0.689255,0 -1.24788,-0.568628 -1.24788,-1.270011 z m 10.920225,-3.810227 c 0,2.104343 -1.676062,3.810227 -3.743737,3.810227 -2.067578,0 -3.743737,-1.705884 -3.743737,-3.810227 0,-2.104244 1.676159,-3.810128 3.743737,-3.810128 2.067675,0 3.743737,1.705884 3.743737,3.810128 z"
         fill="#B7F1BA"
         id="path3"
         style="fill:none;fill-opacity:1;stroke:#000000;stroke-width:0.691938;stroke-dasharray:none;stroke-opacity:1" />
    </g>
  </g>
  <path
     style="font-weight:bold;font-size:27.9709px;line-height:1.25;font-family:Dosis;-inkscape-font-specification:'Dosis Bold';white-space:pre;fill:#000000"
     d="m 548.76785,155.60944 q -0.6713,0 -1.25869,-0.27971 -0.55942,-0.30768 -0.55942,-0.8671 v -18.12514 q 0,-0.58739 0.50347,-0.8671 0.50348,-0.30768 1.09087,-0.30768 h 9.76184 q 0.61536,0 0.8671,0.50348 0.27971,0.50347 0.27971,1.06289 0,0.6713 -0.30768,1.14681 -0.27971,0.4755 -0.83913,0.4755 h -7.71996 v 5.59418 h 4.27954 q 0.55942,0 0.83913,0.44754 0.30768,0.41956 0.30768,1.00695 0,0.4755 -0.27971,0.95101 -0.25174,0.44753 -0.8671,0.44753 h -4.27954 v 7.66403 q 0,0.55942 -0.55942,0.8671 -0.55942,0.27971 -1.25869,0.27971 z m 11.45925,-5.23056 q -0.50347,0 -0.83912,-0.41956 -0.30768,-0.41957 -0.30768,-1.0629 0,-0.64333 0.30768,-1.06289 0.33565,-0.44754 0.83912,-0.44754 h 7.27244 q 0.41956,0 0.78318,0.44754 0.36362,0.41956 0.36362,1.06289 0,0.64333 -0.36362,1.0629 -0.36362,0.41956 -0.78318,0.41956 z m 12.64283,5.23056 q -0.72724,0 -1.17478,-0.33565 -0.41956,-0.33565 -0.41956,-0.81116 v -18.15311 q 0,-0.47551 0.41956,-0.81116 0.44754,-0.33565 1.17478,-0.33565 h 4.95085 q 1.87405,0 3.35651,0.64333 1.48246,0.61536 2.34955,2.04188 0.89507,1.39854 0.89507,3.7481 v 7.58011 q 0,2.34956 -0.89507,3.77607 -0.86709,1.39855 -2.34955,2.04188 -1.48246,0.61536 -3.35651,0.61536 z m 2.04188,-3.18869 h 2.90897 q 1.39855,0 2.18173,-0.78318 0.78319,-0.81116 0.78319,-2.46144 v -7.58011 q 0,-1.65029 -0.78319,-2.43347 -0.78318,-0.81116 -2.15376,-0.81116 h -2.93694 z m 14.0549,3.18869 q -0.75522,0 -1.25869,-0.36362 -0.50348,-0.36363 -0.50348,-0.81116 V 143.4421 q 0,-0.50348 0.50348,-0.81116 0.50347,-0.30768 1.25869,-0.30768 0.69927,0 1.1468,0.30768 0.47551,0.30768 0.47551,0.81116 v 1.1468 q 0.30768,-0.61536 0.81116,-1.1468 0.53144,-0.55942 1.20274,-0.92304 0.67131,-0.36363 1.42652,-0.36363 h 0.8671 q 0.53145,0 0.92304,0.47551 0.39159,0.44753 0.39159,1.09086 0,0.67131 -0.39159,1.14681 -0.39159,0.44754 -0.92304,0.44754 h -0.8671 q -0.78318,0 -1.5384,0.53144 -0.72724,0.50348 -1.20275,1.42652 -0.4755,0.89507 -0.4755,2.18173 v 4.97882 q 0,0.44753 -0.53145,0.81116 -0.53145,0.36362 -1.31463,0.36362 z m 13.95423,0.25174 q -1.62231,0 -2.99289,-0.78319 -1.37057,-0.81116 -2.2097,-2.12579 -0.83912,-1.31463 -0.83912,-2.82506 v -2.29361 q 0,-1.51043 0.81115,-2.79709 0.81116,-1.31464 2.18173,-2.09782 1.39855,-0.78319 3.04883,-0.78319 1.65028,0 3.02086,0.78319 1.39854,0.75521 2.2097,2.04188 0.83913,1.28666 0.83913,2.85303 v 2.29361 q 0,1.48246 -0.83913,2.79709 -0.83913,1.31463 -2.23767,2.12579 -1.37058,0.81116 -2.99289,0.81116 z m 0,-3.16072 q 0.6713,0 1.23072,-0.36362 0.55942,-0.36362 0.89507,-0.95101 0.33565,-0.61536 0.33565,-1.25869 v -2.29361 q 0,-0.64333 -0.33565,-1.20275 -0.33565,-0.55942 -0.89507,-0.92304 -0.53145,-0.39159 -1.23072,-0.39159 -0.6713,0 -1.23072,0.36362 -0.55942,0.36362 -0.89507,0.95101 -0.30768,0.55942 -0.30768,1.20275 v 2.29361 q 0,0.64333 0.30768,1.25869 0.33565,0.58739 0.89507,0.95101 0.55942,0.36362 1.23072,0.36362 z m 10.15343,-13.34212 q -0.81115,0 -1.39854,-0.53144 -0.58739,-0.55942 -0.58739,-1.23072 0,-0.72725 0.58739,-1.23072 0.58739,-0.53145 1.39854,-0.53145 0.83913,0 1.39855,0.53145 0.55941,0.50347 0.55941,1.23072 0,0.6713 -0.55941,1.23072 -0.55942,0.53144 -1.39855,0.53144 z m 0,16.2511 q -0.78318,0 -1.28666,-0.36362 -0.50348,-0.36363 -0.50348,-0.81116 V 143.4421 q 0,-0.50348 0.50348,-0.81116 0.50348,-0.30768 1.28666,-0.30768 0.75522,0 1.28666,0.30768 0.53145,0.30768 0.53145,0.81116 v 10.99256 q 0,0.44753 -0.53145,0.81116 -0.53144,0.36362 -1.28666,0.36362 z m 9.00665,0.25174 q -1.31464,0 -2.43347,-0.81116 -1.11884,-0.81116 -1.79014,-2.12579 -0.6713,-1.31463 -0.6713,-2.79709 v -2.29361 q 0,-1.56637 0.6713,-2.85303 0.6713,-1.28667 1.79014,-2.04188 1.11883,-0.78319 2.48941,-0.78319 1.31463,0 2.23767,0.67131 0.92304,0.64333 1.37057,1.45448 v -8.58706 q 0,-0.50348 0.53145,-0.81116 0.53145,-0.30768 1.31463,-0.30768 0.75522,0 1.25869,0.30768 0.50348,0.30768 0.50348,0.81116 v 18.7405 q 0,0.44753 -0.50348,0.81116 -0.50347,0.36362 -1.25869,0.36362 -0.6713,0 -1.1468,-0.36362 -0.47551,-0.36363 -0.47551,-0.81116 v -0.78319 q -0.41956,0.8671 -1.51043,1.5384 -1.06289,0.67131 -2.37752,0.67131 z m 1.1468,-3.16072 q 0.72725,0 1.28666,-0.39159 0.55942,-0.41956 0.89507,-0.89507 0.33565,-0.50347 0.33565,-0.78318 v -2.79709 q 0,-0.78319 -0.39159,-1.34261 -0.36362,-0.55941 -0.95101,-0.86709 -0.55942,-0.30768 -1.14681,-0.30768 -0.6713,0 -1.25869,0.39159 -0.55941,0.36362 -0.89507,0.92304 -0.30768,0.55942 -0.30768,1.20275 v 2.29361 q 0,0.64333 0.30768,1.23072 0.33566,0.58739 0.89507,0.97898 0.55942,0.36362 1.23072,0.36362 z"
     id="text5876"
     transform="matrix(1.265073,0,0,1.0345977,-617.93133,-101.23129)"
     aria-label="F-Droid" />
  <path
     style="font-weight:500;font-size:18.5185px;line-height:1.25;font-family:Dosis;-inkscape-font-specification:'Dosis Medium';white-space:pre;fill:#000000"
     d="m 84.64713,261.45853 q -1.129628,0 -2.037035,-0.38889 -0.888888,-0.4074 -1.425924,-1.29629 -0.518518,-0.88889 -0.518518,-2.35185 v -5.57407 q 0,-1.46296 0.518518,-2.35185 0.537036,-0.88889 1.425924,-1.27777 0.907407,-0.40741 1.999998,-0.40741 1.222221,0 2.111109,0.42592 0.907406,0.40741 1.407406,1.14815 0.518518,0.74074 0.518518,1.74074 0,0.44444 -0.203704,0.61111 -0.203703,0.14815 -0.574073,0.14815 -0.314815,0 -0.537037,-0.11111 -0.222222,-0.12963 -0.24074,-0.42593 -0.07407,-0.64815 -0.333333,-1.11111 -0.259259,-0.48148 -0.777777,-0.74074 -0.518518,-0.27778 -1.333332,-0.27778 -1.148147,0 -1.796294,0.64815 -0.629629,0.62963 -0.629629,1.98148 v 5.57407 q 0,1.35185 0.629629,2 0.648147,0.62963 1.796294,0.62963 1.148147,0 1.796295,-0.62963 0.648147,-0.64815 0.648147,-2 v -1.88889 h -2.203701 q -0.259259,0 -0.407407,-0.2037 -0.12963,-0.2037 -0.12963,-0.44444 0,-0.24075 0.12963,-0.44445 0.148148,-0.2037 0.407407,-0.2037 h 3.222218 q 0.259259,0 0.388889,0.16666 0.148148,0.16667 0.148148,0.40741 v 2.61111 q 0,1.46296 -0.537037,2.35185 -0.518518,0.88889 -1.425924,1.29629 -0.907406,0.38889 -2.037035,0.38889 z m 9.870366,0.037 q -1.203702,0 -2.129627,-0.44444 -0.925925,-0.46297 -1.462962,-1.25926 -0.537036,-0.81482 -0.537036,-1.88889 v -1.94444 q 0,-0.94445 0.499999,-1.74074 0.518518,-0.7963 1.351851,-1.27778 0.833332,-0.48148 1.833331,-0.48148 0.962962,0 1.759258,0.44445 0.814814,0.44444 1.296295,1.2037 0.499999,0.75926 0.499999,1.75926 0,0.74074 -0.24074,1.07407 -0.240741,0.31481 -0.611111,0.38889 -0.37037,0.0741 -0.777777,0.0741 h -4.07407 v 0.55556 q 0,1.03703 0.74074,1.64814 0.74074,0.59259 1.907406,0.59259 0.685184,0 1.092591,-0.18518 0.407407,-0.18519 0.666666,-0.35185 0.259259,-0.18519 0.462963,-0.18519 0.203703,0 0.333333,0.12963 0.148148,0.11111 0.222222,0.27778 0.07407,0.16667 0.07407,0.2963 0,0.24074 -0.351852,0.55555 -0.351851,0.2963 -1.018517,0.53704 -0.648148,0.22222 -1.537036,0.22222 z m -2.59259,-5.12963 h 3.425923 q 0.499999,0 0.648147,-0.11111 0.166667,-0.12963 0.166667,-0.48148 0,-0.55555 -0.277778,-1.01851 -0.259259,-0.48149 -0.74074,-0.77778 -0.481481,-0.2963 -1.092591,-0.2963 -0.574074,0 -1.055555,0.27778 -0.481481,0.25926 -0.777777,0.72222 -0.296296,0.46296 -0.296296,1.01852 z m 10.444434,4.98148 q -1.5,0 -2.29629,-0.66666 -0.777778,-0.66667 -0.777778,-2.12963 v -9.53703 q 0,-0.24074 0.24074,-0.38889 0.240741,-0.14815 0.518518,-0.14815 0.2963,0 0.53704,0.14815 0.24074,0.14815 0.24074,0.38889 v 3.55555 h 2.33333 q 0.22222,0 0.33333,0.18519 0.12963,0.18518 0.12963,0.42592 0,0.24074 -0.12963,0.42593 -0.11111,0.16667 -0.33333,0.16667 h -2.33333 v 4.77777 q 0,0.79629 0.33333,1.12963 0.35185,0.31481 1.2037,0.31481 h 0.57408 q 0.33333,0 0.5,0.2037 0.16666,0.20371 0.16666,0.46297 0,0.25926 -0.16666,0.48148 -0.16667,0.2037 -0.5,0.2037 z m 7.14816,-11.18517 q -0.38889,0 -0.68519,-0.25926 -0.27777,-0.27778 -0.27777,-0.62963 0,-0.35185 0.27777,-0.61111 0.2963,-0.25926 0.68519,-0.25926 0.4074,0 0.66666,0.25926 0.27778,0.25926 0.27778,0.61111 0,0.35185 -0.27778,0.62963 -0.25926,0.25926 -0.66666,0.25926 z m 0,11.18517 q -0.33334,0 -0.55556,-0.16667 -0.2037,-0.18518 -0.2037,-0.38888 v -7.68518 q 0,-0.24074 0.2037,-0.38889 0.22222,-0.14815 0.55556,-0.14815 0.31481,0 0.53703,0.14815 0.24074,0.14815 0.24074,0.38889 v 7.68518 q 0,0.2037 -0.24074,0.38888 -0.22222,0.16667 -0.53703,0.16667 z m 5.98149,0 q -1.5,0 -2.2963,-0.66666 -0.77777,-0.66667 -0.77777,-2.12963 v -9.53703 q 0,-0.24074 0.24074,-0.38889 0.24074,-0.14815 0.51851,-0.14815 0.2963,0 0.53704,0.14815 0.24074,0.14815 0.24074,0.38889 v 3.55555 h 2.33333 q 0.22222,0 0.33334,0.18519 0.12963,0.18518 0.12963,0.42592 0,0.24074 -0.12963,0.42593 -0.11112,0.16667 -0.33334,0.16667 h -2.33333 v 4.77777 q 0,0.79629 0.33333,1.12963 0.35186,0.31481 1.20371,0.31481 h 0.57407 q 0.33333,0 0.5,0.2037 0.16667,0.20371 0.16667,0.46297 0,0.25926 -0.16667,0.48148 -0.16667,0.2037 -0.5,0.2037 z m 9.7037,0.14815 q -0.98148,0 -1.81481,-0.5 -0.83333,-0.51852 -1.33333,-1.33333 -0.5,-0.81482 -0.5,-1.75926 v -1.88889 q 0,-0.94444 0.48148,-1.74074 0.5,-0.81481 1.33333,-1.31481 0.83334,-0.5 1.83333,-0.5 0.98149,0 1.81482,0.5 0.83333,0.48148 1.33333,1.27778 0.51852,0.79629 0.51852,1.77777 v 1.88889 q 0,0.92593 -0.51852,1.75926 -0.5,0.81481 -1.33333,1.33333 -0.83333,0.5 -1.81482,0.5 z m 0,-1.38889 q 0.5926,0 1.05556,-0.31481 0.48148,-0.31482 0.77778,-0.81482 0.29629,-0.51851 0.29629,-1.07407 v -1.88889 q 0,-0.53703 -0.29629,-1.03703 -0.27778,-0.5 -0.75926,-0.81482 -0.48148,-0.31481 -1.07408,-0.31481 -0.59259,0 -1.07407,0.31481 -0.48148,0.31482 -0.75926,0.81482 -0.27777,0.5 -0.27777,1.03703 v 1.88889 q 0,0.55556 0.27777,1.07407 0.27778,0.5 0.75926,0.81482 0.48148,0.31481 1.07407,0.31481 z m 6.27776,1.24074 q -0.33333,0 -0.55555,-0.16667 -0.2037,-0.18518 -0.2037,-0.38888 v -7.68518 q 0,-0.24074 0.2037,-0.38889 0.22222,-0.14815 0.55555,-0.14815 0.2963,0 0.5,0.14815 0.20371,0.14815 0.20371,0.38889 v 0.75926 q 0.29629,-0.53704 0.92592,-0.96296 0.62963,-0.44445 1.55556,-0.44445 0.88888,0 1.62962,0.5 0.74074,0.48148 1.18519,1.27778 0.44444,0.79629 0.44444,1.77777 v 4.77778 q 0,0.27777 -0.24074,0.42592 -0.24074,0.12963 -0.53703,0.12963 -0.27778,0 -0.51852,-0.12963 -0.24074,-0.14815 -0.24074,-0.42592 v -4.77778 q 0,-0.53703 -0.2963,-1.03703 -0.27778,-0.5 -0.75926,-0.81482 -0.48148,-0.31481 -1.05555,-0.31481 -0.5,0 -0.96296,0.27778 -0.46297,0.25926 -0.75926,0.74074 -0.2963,0.46296 -0.2963,1.14814 v 4.77778 q 0,0.2037 -0.24074,0.38888 -0.22222,0.16667 -0.53704,0.16667 z"
     id="text5295"
     transform="matrix(1.0080032,0,0,1.0080032,-7.3112207,-234.79366)"
     aria-label="Get it on" />
</svg>
