<?xml version="1.0" encoding="UTF-8" standalone="no"?>
<svg
   width="260"
   height="80"
   viewBox="0 0 260 80"
   fill="none"
   version="1.1"
   id="svg4"
   sodipodi:docname="get_iod.svg"
   inkscape:version="1.4.2 (ebf0e940d0, 2025-05-08)"
   xmlns:inkscape="http://www.inkscape.org/namespaces/inkscape"
   xmlns:sodipodi="http://sodipodi.sourceforge.net/DTD/sodipodi-0.dtd"
   xmlns="http://www.w3.org/2000/svg"
   xmlns:svg="http://www.w3.org/2000/svg">
  <defs
     id="defs4">
    <rect
       x="78.55587"
       y="21.772038"
       width="163.5845"
       height="37.65974"
       id="rect5" />
    <rect
       x="82.674904"
       y="15.593487"
       width="160.64233"
       height="54.13588"
       id="rect4" />
    <rect
       x="545.27075"
       y="129.38628"
       width="170.53992"
       height="37.730087"
       id="rect5878" />
    <rect
       x="79.480141"
       y="243.98555"
       width="98.107262"
       height="19.632467"
       id="rect5297" />
    <rect
       x="545.27075"
       y="129.38628"
       width="141.00364"
       height="40.573864"
       id="rect5878-3" />
    <rect
       x="79.480141"
       y="243.98555"
       width="97.836517"
       height="25.859533"
       id="rect5297-6" />
  </defs>
  <sodipodi:namedview
     inkscape:zoom="3.398855"
     inkscape:cx="128.27849"
     inkscape:cy="60.167321"
     inkscape:window-width="1920"
     inkscape:window-height="1051"
     inkscape:window-x="0"
     inkscape:window-y="0"
     inkscape:window-maximized="1"
     inkscape:current-layer="svg4"
     pagecolor="#b0b0b0"
     id="namedview1"
     bordercolor="#eeeeee"
     borderopacity="1"
     inkscape:showpageshadow="0"
     inkscape:pageopacity="0"
     inkscape:pagecheckerboard="0"
     inkscape:deskcolor="#505050" />
  <rect
     width="260"
     height="80"
     rx="39.694656"
     fill="#1D5128"
     id="rect"
     style="fill:#79fff5;fill-opacity:0.83529413;stroke-width:1.99236"
     x="0"
     y="0" />
  <path
     style="fill:#000000;fill-opacity:1;stroke:#000000;stroke-width:0.502067;stroke-dasharray:none;stroke-opacity:1"
     d="m 25.434722,47.497788 c -0.595964,1.259779 -1.508398,2.4373 -2.255293,3.614883 -1.462964,2.306572 -2.924515,4.614611 -4.375769,6.928525 -0.552371,0.88071 -1.119129,1.75271 -1.667514,2.635852 -0.195775,0.315283 -0.564514,0.728628 -0.476789,1.129361 0.09253,0.422695 0.495151,0.521971 0.867809,0.52717 0.878242,0.0123 1.757516,2.9e-4 2.635852,2.9e-4 h 11.221198 11.748369 c 4.785935,0 9.348477,-0.04029 13.4805,-2.825524 8.53312,-5.751852 9.542272,-18.135544 2.334612,-25.340437 -1.237763,-1.237289 -2.73921,-2.409404 -4.367984,-3.087712 0.559439,-1.182861 1.409439,-2.280087 2.104904,-3.388952 1.498681,-2.389527 3.019913,-4.76491 4.518603,-7.154456 l 1.664378,-2.635852 c 0.195363,-0.311517 0.55213,-0.732213 0.442971,-1.129302 -0.117847,-0.428679 -0.529662,-0.451451 -0.89861,-0.452209 H 59.776107 48.630219 36.80654 c -1.832972,0 -3.748762,-0.160944 -5.572944,0.01278 -2.856239,0.272016 -5.610237,1.230477 -7.982866,2.851151 -8.241035,5.6292 -9.279957,17.415129 -2.723888,24.699547 1.336304,1.48476 3.049194,2.841046 4.90788,3.614882 M 44.412856,17.524386 c -0.556781,1.290439 -1.508701,2.499444 -2.255526,3.690193 -1.368366,2.181753 -2.721323,4.373251 -4.094518,6.551975 -0.552267,0.876233 -1.106022,1.752654 -1.647059,2.635852 -0.175622,0.286687 -0.522164,0.694239 -0.422747,1.053991 0.121764,0.44064 0.573359,0.522406 0.964154,0.52723 0.978705,0.01205 1.958305,2.9e-4 2.937093,2.9e-4 h 12.576779 c -0.761825,1.43106 -1.735478,2.76624 -2.592442,4.142053 -0.268613,0.431244 -0.885275,1.086409 -0.402701,1.564019 0.606871,0.600625 1.141161,-0.462961 1.409624,-0.886229 0.984905,-1.552838 1.978718,-3.102451 2.9411,-4.669223 2.035628,0.586429 4.020814,2.470794 5.317724,4.066743 4.848931,5.966981 4.588131,15.41237 -1.250981,20.697483 -1.649264,1.492783 -3.587056,2.735178 -5.723564,3.399818 -2.579035,0.802302 -5.162472,0.755017 -7.832246,0.755017 h -8.735967 c 0.652523,-1.395957 1.65623,-2.690716 2.481225,-3.991433 1.462319,-2.305552 2.881055,-4.641396 4.37199,-6.928525 0.55036,-0.844268 1.086388,-1.701339 1.613182,-2.560542 0.216519,-0.353145 0.441631,-0.767329 0.03255,-1.089904 -0.67841,-0.534939 -1.269405,0.808487 -1.538511,1.240524 -1.098928,1.76428 -2.235761,3.5052 -3.331075,5.271704 -1.158046,1.86768 -2.360285,3.707641 -3.52214,5.572944 -0.41426,0.665077 -0.930872,1.970946 -1.583952,2.407831 -0.28993,0.193947 -0.898884,0.0774 -1.234428,0.0774 H 29.878015 18.430887 c 0.732976,-1.936651 2.349734,-3.822054 3.460253,-5.572944 2.33684,-3.68436 4.625324,-7.400615 6.984658,-11.070578 0.915168,-1.423551 1.796012,-2.869149 2.711163,-4.292673 0.239627,-0.372737 0.923652,-1.108589 0.787791,-1.581162 -0.415315,-1.444617 -1.67157,0.746847 -1.917442,1.129301 -1.443096,2.244745 -2.872799,4.50406 -4.269488,6.777905 -1.721363,-0.495693 -3.2984,-1.91508 -4.519707,-3.16308 -5.664495,-5.788293 -5.737933,-15.965394 0.377712,-21.525835 1.60242,-1.456945 3.427918,-2.684989 5.497576,-3.375001 2.663818,-0.888102 5.361578,-0.855145 8.133486,-0.855145 h 8.735967 m 17.170693,0 -1.954054,3.163022 -4.038851,6.401355 -1.617189,2.560542 -0.763214,1.05225 -1.191069,0.0774 -3.087713,-0.07531 H 37.710261 l 2.104906,-3.464263 3.991433,-6.401354 1.458665,-2.334612 0.736132,-0.933589 1.423861,-0.04544 h 3.163022 10.995269 m -26.35852,19.806545 c -1.699222,0.881494 -2.732564,3.257084 -3.055752,5.045773 -0.09333,0.516548 -0.364954,1.679737 0.202164,1.998972 0.319238,0.179702 0.769514,0.10971 1.121457,0.10971 h 2.409922 8.811276 2.560542 c 0.373184,0 0.869555,0.07931 1.196767,-0.139929 0.543224,-0.363986 0.255203,-1.432121 0.164799,-1.968753 -0.322449,-1.91401 -1.393287,-3.934568 -3.018387,-5.045773 0.574106,-0.574106 1.556444,-1.223415 1.905122,-1.958062 0.247222,-0.520882 -0.226136,-1.053762 -0.775471,-0.838812 -0.834133,0.326385 -1.348142,1.807381 -2.227342,1.931157 -0.317459,0.0447 -0.793045,-0.298498 -1.086301,-0.409732 -0.720945,-0.273459 -1.487702,-0.472361 -2.259301,-0.525252 -1.057179,-0.07247 -2.146558,-8.89e-4 -3.163023,0.309958 -0.509958,0.155952 -1.065625,0.533974 -1.581511,0.611892 -0.546413,0.08253 -1.566669,-1.241111 -1.958061,-1.603359 -0.29421,-0.272302 -0.740023,-0.553262 -1.096993,-0.196294 -0.318467,0.318469 -0.124174,0.739851 0.126156,1.021682 0.529811,0.596469 1.138846,1.117903 1.723937,1.656822 m 12.275539,5.874184 h -14.15829 c 0.03194,-3.859889 4.008374,-6.814861 7.681625,-6.46388 3.369342,0.321943 6.207068,3.052621 6.476665,6.46388 M 37.183091,39.859047 c -1.189425,0.156464 -0.953964,1.95273 0.22593,1.824469 1.188254,-0.129174 0.959366,-1.98039 -0.22593,-1.824469 m 6.551974,2.91e-4 c -1.219451,0.23666 -0.842133,2.084883 0.376493,1.809825 1.097432,-0.247703 0.737181,-2.025958 -0.376493,-1.809825 z"
     id="path1" />
  <path
     style="font-weight:bold;font-size:27.9709px;line-height:1.25;font-family:Dosis;-inkscape-font-specification:'Dosis Bold';white-space:pre;fill:#000000"
     d="m 548.76785,155.60944 q -0.6713,0 -1.25869,-0.27971 -0.55942,-0.30768 -0.55942,-0.89507 v -18.12514 q 0,-0.61536 0.55942,-0.8671 0.58739,-0.27971 1.25869,-0.27971 0.69927,0 1.25869,0.27971 0.55942,0.25174 0.55942,0.8671 v 18.12514 q 0,0.58739 -0.55942,0.89507 -0.55942,0.27971 -1.25869,0.27971 z m 5.31445,0 q -0.6713,0 -0.95101,-0.3916 -0.27971,-0.41956 -0.27971,-0.89506 0,-0.41957 0.16783,-0.78319 0.19579,-0.39159 0.44753,-0.69927 l 5.4823,-7.58012 h -4.811 q -0.44753,0 -0.78318,-0.41956 -0.30768,-0.44753 -0.30768,-1.06289 0,-0.58739 0.30768,-1.00696 0.30768,-0.44753 0.78318,-0.44753 h 8.22345 q 0.4755,0 0.81115,0.30768 0.33566,0.30768 0.33566,0.92304 0,0.75521 -0.55942,1.51043 l -5.51027,7.58011 h 5.45433 q 0.44753,0 0.75521,0.44754 0.33565,0.44753 0.33565,1.06289 0,0.58739 -0.30768,1.03492 -0.27971,0.41957 -0.78318,0.41957 z m 12.13937,0 q -0.6713,0 -0.95101,-0.3916 -0.27971,-0.41956 -0.27971,-0.89506 0,-0.41957 0.16783,-0.78319 0.1958,-0.39159 0.44753,-0.69927 l 5.4823,-7.58012 h -4.81099 q -0.44754,0 -0.78319,-0.41956 -0.30768,-0.44753 -0.30768,-1.06289 0,-0.58739 0.30768,-1.00696 0.30768,-0.44753 0.78319,-0.44753 h 8.22344 q 0.4755,0 0.81116,0.30768 0.33565,0.30768 0.33565,0.92304 0,0.75521 -0.55942,1.51043 l -5.51027,7.58011 h 5.45433 q 0.44753,0 0.75521,0.44754 0.33565,0.44753 0.33565,1.06289 0,0.58739 -0.30768,1.03492 -0.27971,0.41957 -0.78318,0.41957 z m 12.13938,6.18157 q -0.69928,0 -1.17478,-0.27971 -0.47551,-0.25174 -0.47551,-1.25869 0,-0.61536 0.1958,-1.0629 0.22377,-0.44753 0.72724,-0.44753 0.47551,0 1.09087,-0.16783 0.64333,-0.16782 1.28666,-0.64333 0.64333,-0.44753 1.09086,-1.25869 0.44754,-0.78318 0.53145,-2.04187 l -4.81099,-10.2933 q -0.11189,-0.25173 -0.11189,-0.4755 0,-0.47551 0.39159,-0.8671 0.41957,-0.39159 0.97899,-0.61536 0.55941,-0.25174 1.03492,-0.25174 0.33565,0 0.61536,0.13986 0.30768,0.13985 0.41956,0.4755 l 3.35651,8.3633 2.68521,-8.3633 q 0.13985,-0.33565 0.41956,-0.4755 0.27971,-0.13986 0.55942,-0.13986 0.41956,0 1.00695,0.25174 0.58739,0.22377 1.00695,0.64333 0.44754,0.39159 0.44754,0.89507 0,0.25174 -0.0839,0.41956 l -4.08375,10.43315 q -0.50347,1.25869 -0.97898,2.48941 -0.4755,1.25869 -1.20275,2.26564 -0.69927,1.03493 -1.87405,1.65029 -1.17477,0.61536 -3.04882,0.61536 z m 19.49574,-6.01375 q -1.84608,0 -3.32854,-0.61536 -1.48246,-0.64333 -2.37753,-2.04187 -0.86709,-1.42652 -0.86709,-3.77607 v -7.74794 q 0,-2.34956 0.86709,-3.7481 0.89507,-1.42652 2.34956,-2.04188 1.48246,-0.64333 3.35651,-0.64333 1.84608,0 3.32853,0.64333 1.51043,0.61536 2.37753,2.04188 0.8671,1.39854 0.8671,3.7481 v 7.74794 q 0,2.34955 -0.8671,3.77607 -0.8671,1.39854 -2.37753,2.04187 -1.48245,0.61536 -3.32853,0.61536 z m 0,-3.18868 q 1.37057,0 2.15376,-0.78319 0.78318,-0.78318 0.78318,-2.46143 v -7.74794 q 0,-1.67826 -0.78318,-2.46144 -0.78319,-0.78319 -2.15376,-0.78319 -1.37058,0 -2.15376,0.78319 -0.75522,0.78318 -0.75522,2.46144 v 7.74794 q 0,1.67825 0.75522,2.46143 0.78318,0.78319 2.15376,0.78319 z m 11.1739,3.02086 q -0.78319,0 -1.28666,-0.36362 -0.50348,-0.36363 -0.50348,-0.81116 V 143.4421 q 0,-0.50348 0.50348,-0.81116 0.50347,-0.30768 1.28666,-0.30768 0.6713,0 1.11884,0.30768 0.4755,0.30768 0.4755,0.81116 v 0.83912 q 0.41956,-0.81115 1.37057,-1.45448 0.97899,-0.67131 2.37753,-0.67131 1.31463,0 2.4055,0.78319 1.09086,0.75521 1.73419,2.04188 0.67131,1.28666 0.67131,2.85303 v 6.60113 q 0,0.58739 -0.55942,0.89507 -0.55942,0.27971 -1.25869,0.27971 -0.61536,0 -1.20275,-0.27971 -0.58739,-0.30768 -0.58739,-0.89507 v -6.60113 q 0,-0.64333 -0.33565,-1.20275 -0.30768,-0.55942 -0.8671,-0.92304 -0.55942,-0.39159 -1.23072,-0.39159 -0.55942,0 -1.09086,0.30768 -0.53145,0.30768 -0.8671,0.86709 -0.33565,0.55942 -0.33565,1.34261 v 6.60113 q 0,0.44753 -0.53145,0.81116 -0.53145,0.36362 -1.28666,0.36362 z m 14.55469,0 q -0.72725,0 -1.17478,-0.33565 -0.41956,-0.33565 -0.41956,-0.81116 v -18.15311 q 0,-0.47551 0.41956,-0.81116 0.44753,-0.33565 1.17478,-0.33565 h 4.95085 q 1.87405,0 3.3565,0.64333 1.48246,0.61536 2.34956,2.04188 0.89507,1.39854 0.89507,3.7481 v 7.58011 q 0,2.34956 -0.89507,3.77607 -0.8671,1.39855 -2.34956,2.04188 -1.48245,0.61536 -3.3565,0.61536 z m 2.04187,-3.18869 h 2.90898 q 1.39854,0 2.18173,-0.78318 0.78318,-0.81116 0.78318,-2.46144 v -7.58011 q 0,-1.65029 -0.78318,-2.43347 -0.78319,-0.81116 -2.15376,-0.81116 h -2.93695 z m 14.05491,3.18869 q -0.75522,0 -1.25869,-0.36362 -0.50348,-0.36363 -0.50348,-0.81116 V 143.4421 q 0,-0.50348 0.50348,-0.81116 0.50347,-0.30768 1.25869,-0.30768 0.69927,0 1.1468,0.30768 0.47551,0.30768 0.47551,0.81116 v 1.1468 q 0.30768,-0.61536 0.81116,-1.1468 0.53144,-0.55942 1.20274,-0.92304 0.67131,-0.36363 1.42652,-0.36363 h 0.8671 q 0.53145,0 0.92304,0.47551 0.39159,0.44753 0.39159,1.09086 0,0.67131 -0.39159,1.14681 -0.39159,0.44754 -0.92304,0.44754 h -0.8671 q -0.78318,0 -1.5384,0.53144 -0.72724,0.50348 -1.20275,1.42652 -0.4755,0.89507 -0.4755,2.18173 v 4.97882 q 0,0.44753 -0.53145,0.81116 -0.53145,0.36362 -1.31463,0.36362 z m 13.95423,0.25174 q -1.62231,0 -2.99289,-0.78319 -1.37057,-0.81116 -2.2097,-2.12579 -0.83912,-1.31463 -0.83912,-2.82506 v -2.29361 q 0,-1.51043 0.81115,-2.79709 0.81116,-1.31464 2.18173,-2.09782 1.39855,-0.78319 3.04883,-0.78319 1.65028,0 3.02086,0.78319 1.39854,0.75521 2.2097,2.04188 0.83913,1.28666 0.83913,2.85303 v 2.29361 q 0,1.48246 -0.83913,2.79709 -0.83913,1.31463 -2.23767,2.12579 -1.37058,0.81116 -2.99289,0.81116 z m 0,-3.16072 q 0.6713,0 1.23072,-0.36362 0.55942,-0.36362 0.89507,-0.95101 0.33565,-0.61536 0.33565,-1.25869 v -2.29361 q 0,-0.64333 -0.33565,-1.20275 -0.33565,-0.55942 -0.89507,-0.92304 -0.53145,-0.39159 -1.23072,-0.39159 -0.6713,0 -1.23072,0.36362 -0.55942,0.36362 -0.89507,0.95101 -0.30768,0.55942 -0.30768,1.20275 v 2.29361 q 0,0.64333 0.30768,1.25869 0.33565,0.58739 0.89507,0.95101 0.55942,0.36362 1.23072,0.36362 z m 10.15343,-13.34212 q -0.81116,0 -1.39855,-0.53144 -0.58739,-0.55942 -0.58739,-1.23072 0,-0.72725 0.58739,-1.23072 0.58739,-0.53145 1.39855,-0.53145 0.83912,0 1.39854,0.53145 0.55942,0.50347 0.55942,1.23072 0,0.6713 -0.55942,1.23072 -0.55942,0.53144 -1.39854,0.53144 z m 0,16.2511 q -0.78319,0 -1.28666,-0.36362 -0.50348,-0.36363 -0.50348,-0.81116 V 143.4421 q 0,-0.50348 0.50348,-0.81116 0.50347,-0.30768 1.28666,-0.30768 0.75521,0 1.28666,0.30768 0.53145,0.30768 0.53145,0.81116 v 10.99256 q 0,0.44753 -0.53145,0.81116 -0.53145,0.36362 -1.28666,0.36362 z m 9.00665,0.25174 q -1.31463,0 -2.43347,-0.81116 -1.11883,-0.81116 -1.79014,-2.12579 -0.6713,-1.31463 -0.6713,-2.79709 v -2.29361 q 0,-1.56637 0.6713,-2.85303 0.67131,-1.28667 1.79014,-2.04188 1.11884,-0.78319 2.48941,-0.78319 1.31463,0 2.23767,0.67131 0.92304,0.64333 1.37058,1.45448 v -8.58706 q 0,-0.50348 0.53145,-0.81116 0.53144,-0.30768 1.31463,-0.30768 0.75521,0 1.25869,0.30768 0.50347,0.30768 0.50347,0.81116 v 18.7405 q 0,0.44753 -0.50347,0.81116 -0.50348,0.36362 -1.25869,0.36362 -0.6713,0 -1.14681,-0.36362 -0.4755,-0.36363 -0.4755,-0.81116 v -0.78319 q -0.41957,0.8671 -1.51043,1.5384 -1.0629,0.67131 -2.37753,0.67131 z m 1.14681,-3.16072 q 0.72724,0 1.28666,-0.39159 0.55942,-0.41956 0.89507,-0.89507 0.33565,-0.50347 0.33565,-0.78318 v -2.79709 q 0,-0.78319 -0.39159,-1.34261 -0.36363,-0.55941 -0.95101,-0.86709 -0.55942,-0.30768 -1.14681,-0.30768 -0.6713,0 -1.25869,0.39159 -0.55942,0.36362 -0.89507,0.92304 -0.30768,0.55942 -0.30768,1.20275 v 2.29361 q 0,0.64333 0.30768,1.23072 0.33565,0.58739 0.89507,0.97898 0.55942,0.36362 1.23072,0.36362 z"
     id="text5876"
     transform="matrix(1.265073,0,0,1.0345977,-617.93133,-101.23129)"
     aria-label="IzzyOnDroid" />
  <path
     style="font-weight:500;font-size:18.5185px;line-height:1.25;font-family:Dosis;-inkscape-font-specification:'Dosis Medium';white-space:pre;fill:#000000"
     d="m 84.64713,261.45853 q -1.129628,0 -2.037035,-0.38889 -0.888888,-0.4074 -1.425924,-1.29629 -0.518518,-0.88889 -0.518518,-2.35185 v -5.57407 q 0,-1.46296 0.518518,-2.35185 0.537036,-0.88889 1.425924,-1.27777 0.907407,-0.40741 1.999998,-0.40741 1.222221,0 2.111109,0.42592 0.907406,0.40741 1.407406,1.14815 0.518518,0.74074 0.518518,1.74074 0,0.44444 -0.203704,0.61111 -0.203703,0.14815 -0.574073,0.14815 -0.314815,0 -0.537037,-0.11111 -0.222222,-0.12963 -0.24074,-0.42593 -0.07407,-0.64815 -0.333333,-1.11111 -0.259259,-0.48148 -0.777777,-0.74074 -0.518518,-0.27778 -1.333332,-0.27778 -1.148147,0 -1.796294,0.64815 -0.629629,0.62963 -0.629629,1.98148 v 5.57407 q 0,1.35185 0.629629,2 0.648147,0.62963 1.796294,0.62963 1.148147,0 1.796295,-0.62963 0.648147,-0.64815 0.648147,-2 v -1.88889 h -2.203701 q -0.259259,0 -0.407407,-0.2037 -0.12963,-0.2037 -0.12963,-0.44444 0,-0.24075 0.12963,-0.44445 0.148148,-0.2037 0.407407,-0.2037 h 3.222218 q 0.259259,0 0.388889,0.16666 0.148148,0.16667 0.148148,0.40741 v 2.61111 q 0,1.46296 -0.537037,2.35185 -0.518518,0.88889 -1.425924,1.29629 -0.907406,0.38889 -2.037035,0.38889 z m 9.870366,0.037 q -1.203702,0 -2.129627,-0.44444 -0.925925,-0.46297 -1.462962,-1.25926 -0.537036,-0.81482 -0.537036,-1.88889 v -1.94444 q 0,-0.94445 0.499999,-1.74074 0.518518,-0.7963 1.351851,-1.27778 0.833332,-0.48148 1.833331,-0.48148 0.962962,0 1.759258,0.44445 0.814814,0.44444 1.296295,1.2037 0.499999,0.75926 0.499999,1.75926 0,0.74074 -0.24074,1.07407 -0.240741,0.31481 -0.611111,0.38889 -0.37037,0.0741 -0.777777,0.0741 h -4.07407 v 0.55556 q 0,1.03703 0.74074,1.64814 0.74074,0.59259 1.907406,0.59259 0.685184,0 1.092591,-0.18518 0.407407,-0.18519 0.666666,-0.35185 0.259259,-0.18519 0.462963,-0.18519 0.203703,0 0.333333,0.12963 0.148148,0.11111 0.222222,0.27778 0.07407,0.16667 0.07407,0.2963 0,0.24074 -0.351852,0.55555 -0.351851,0.2963 -1.018517,0.53704 -0.648148,0.22222 -1.537036,0.22222 z m -2.59259,-5.12963 h 3.425923 q 0.499999,0 0.648147,-0.11111 0.166667,-0.12963 0.166667,-0.48148 0,-0.55555 -0.277778,-1.01851 -0.259259,-0.48149 -0.74074,-0.77778 -0.481481,-0.2963 -1.092591,-0.2963 -0.574074,0 -1.055555,0.27778 -0.481481,0.25926 -0.777777,0.72222 -0.296296,0.46296 -0.296296,1.01852 z m 10.444434,4.98148 q -1.5,0 -2.29629,-0.66666 -0.777778,-0.66667 -0.777778,-2.12963 v -9.53703 q 0,-0.24074 0.24074,-0.38889 0.240741,-0.14815 0.518518,-0.14815 0.2963,0 0.53704,0.14815 0.24074,0.14815 0.24074,0.38889 v 3.55555 h 2.33333 q 0.22222,0 0.33333,0.18519 0.12963,0.18518 0.12963,0.42592 0,0.24074 -0.12963,0.42593 -0.11111,0.16667 -0.33333,0.16667 h -2.33333 v 4.77777 q 0,0.79629 0.33333,1.12963 0.35185,0.31481 1.2037,0.31481 h 0.57408 q 0.33333,0 0.5,0.2037 0.16666,0.20371 0.16666,0.46297 0,0.25926 -0.16666,0.48148 -0.16667,0.2037 -0.5,0.2037 z m 7.14816,-11.18517 q -0.38889,0 -0.68519,-0.25926 -0.27777,-0.27778 -0.27777,-0.62963 0,-0.35185 0.27777,-0.61111 0.2963,-0.25926 0.68519,-0.25926 0.4074,0 0.66666,0.25926 0.27778,0.25926 0.27778,0.61111 0,0.35185 -0.27778,0.62963 -0.25926,0.25926 -0.66666,0.25926 z m 0,11.18517 q -0.33334,0 -0.55556,-0.16667 -0.2037,-0.18518 -0.2037,-0.38888 v -7.68518 q 0,-0.24074 0.2037,-0.38889 0.22222,-0.14815 0.55556,-0.14815 0.31481,0 0.53703,0.14815 0.24074,0.14815 0.24074,0.38889 v 7.68518 q 0,0.2037 -0.24074,0.38888 -0.22222,0.16667 -0.53703,0.16667 z m 5.98149,0 q -1.5,0 -2.2963,-0.66666 -0.77777,-0.66667 -0.77777,-2.12963 v -9.53703 q 0,-0.24074 0.24074,-0.38889 0.24074,-0.14815 0.51851,-0.14815 0.2963,0 0.53704,0.14815 0.24074,0.14815 0.24074,0.38889 v 3.55555 h 2.33333 q 0.22222,0 0.33334,0.18519 0.12963,0.18518 0.12963,0.42592 0,0.24074 -0.12963,0.42593 -0.11112,0.16667 -0.33334,0.16667 h -2.33333 v 4.77777 q 0,0.79629 0.33333,1.12963 0.35186,0.31481 1.20371,0.31481 h 0.57407 q 0.33333,0 0.5,0.2037 0.16667,0.20371 0.16667,0.46297 0,0.25926 -0.16667,0.48148 -0.16667,0.2037 -0.5,0.2037 z m 9.7037,0.14815 q -0.98148,0 -1.81481,-0.5 -0.83333,-0.51852 -1.33333,-1.33333 -0.5,-0.81482 -0.5,-1.75926 v -1.88889 q 0,-0.94444 0.48148,-1.74074 0.5,-0.81481 1.33333,-1.31481 0.83334,-0.5 1.83333,-0.5 0.98149,0 1.81482,0.5 0.83333,0.48148 1.33333,1.27778 0.51852,0.79629 0.51852,1.77777 v 1.88889 q 0,0.92593 -0.51852,1.75926 -0.5,0.81481 -1.33333,1.33333 -0.83333,0.5 -1.81482,0.5 z m 0,-1.38889 q 0.5926,0 1.05556,-0.31481 0.48148,-0.31482 0.77778,-0.81482 0.29629,-0.51851 0.29629,-1.07407 v -1.88889 q 0,-0.53703 -0.29629,-1.03703 -0.27778,-0.5 -0.75926,-0.81482 -0.48148,-0.31481 -1.07408,-0.31481 -0.59259,0 -1.07407,0.31481 -0.48148,0.31482 -0.75926,0.81482 -0.27777,0.5 -0.27777,1.03703 v 1.88889 q 0,0.55556 0.27777,1.07407 0.27778,0.5 0.75926,0.81482 0.48148,0.31481 1.07407,0.31481 z m 6.27776,1.24074 q -0.33333,0 -0.55555,-0.16667 -0.2037,-0.18518 -0.2037,-0.38888 v -7.68518 q 0,-0.24074 0.2037,-0.38889 0.22222,-0.14815 0.55555,-0.14815 0.2963,0 0.5,0.14815 0.20371,0.14815 0.20371,0.38889 v 0.75926 q 0.29629,-0.53704 0.92592,-0.96296 0.62963,-0.44445 1.55556,-0.44445 0.88888,0 1.62962,0.5 0.74074,0.48148 1.18519,1.27778 0.44444,0.79629 0.44444,1.77777 v 4.77778 q 0,0.27777 -0.24074,0.42592 -0.24074,0.12963 -0.53703,0.12963 -0.27778,0 -0.51852,-0.12963 -0.24074,-0.14815 -0.24074,-0.42592 v -4.77778 q 0,-0.53703 -0.2963,-1.03703 -0.27778,-0.5 -0.75926,-0.81482 -0.48148,-0.31481 -1.05555,-0.31481 -0.5,0 -0.96296,0.27778 -0.46297,0.25926 -0.75926,0.74074 -0.2963,0.46296 -0.2963,1.14814 v 4.77778 q 0,0.2037 -0.24074,0.38888 -0.22222,0.16667 -0.53704,0.16667 z"
     id="text5295"
     transform="matrix(1.0080032,0,0,1.0080032,-7.3112207,-234.79366)"
     aria-label="Get it on" />
</svg>
